{
.appVersion = "3151";
.formatVersion = 3;
axes = (
{
name = Weight;
tag = wght;
},
{
name = Width;
tag = wdth;
},
{
name = Slant;
tag = slnt;
}
);
classes = (
{
code = "zero one two three four five six seven eight nine ";
name = Num;
},
{
code = "zero.canadian one.canadian two.canadian three.canadian four.canadian five.canadian six.canadian seven.canadian eight.canadian nine.canadian 
";
name = Num_can;
},
{

glyphs = (
{
glyphname = idotless;
lastChange = "2023-01-13 15:55:37 +0000";
layers = (
{
layerId = "9563F490-07F6-43DA-A81C-32B2684714C2";
shapes = (
{
closed = 1;
nodes = (
(94,0,l),
(204,520,l),
(114,520,l),
(4,0,l)
);
}
);
width = 199;
}
);
note = dotlessi;
unicode = 305;
},
{
glyphname = "acuteFinal-canadian";
lastChange = "2023-01-13 15:55:40 +0000";
layers = (
{
layerId = "9563F490-07F6-43DA-A81C-32B2684714C2";
shapes = (
{
closed = 1;
nodes = (
(124,345,l),
(322,690,l),
(246,690,l),
(48,345,l)
);
}
);
width = 251;
}
);
metricRight = "=|";
note = uni141F;
unicode = 5151;
},
{
glyphname = "graveFinal-canadian";
kernLeft = mwestleft;
kernRight = mwestright;
lastChange = "2023-01-13 15:55:40 +0000";
layers = (
{
layerId = "9563F490-07F6-43DA-A81C-32B2684714C2";
shapes = (
{
closed = 1;
nodes = (
(247,345,l),
(188,690,l),
(121,690,l),
(179,345,l)
);
}
);
width = 249;
}
);
metricLeft = "=|acuteFinal-canadian";
metricRight = "=|acuteFinal-canadian";
note = uni1420;
unicode = 5152;
},
{
glyphname = "ringBottomhalfFinal-canadian";
kernLeft = mwestleft;
kernRight = mwestright;
lastChange = "2023-01-13 15:55:40 +0000";
layers = (
{
layerId = "9563F490-07F6-43DA-A81C-32B2684714C2";
shapes = (
{
closed = 1;
nodes = (
(281,339,o),
(322,382,o),
(338,458,cs),
(387,690,l),
(326,690,l),
(277,462,ls),
(267,413,o),
(246,395,o),
(208,395,cs),
(164,395,o),
(150,422,o),
(159,466,cs),
(207,690,l),
(145,690,l),
(99,472,ls),
(82,390,o),
(122,339,o),
(203,339,cs)
);
}
);
width = 340;
}
);
metricLeft = "ai-canadian";
metricRight = "==|ai-canadian";
note = uni1421;
unicode = 5153;
},
{
glyphname = "ringTophalfFinal-canadian";
lastChange = "2023-01-13 15:55:40 +0000";
layers = (
{
layerId = "9563F490-07F6-43DA-A81C-32B2684714C2";
shapes = (
{
closed = 1;
nodes = (
(134,345,l),
(183,573,ls),
(193,621,o),
(214,639,o),
(252,639,cs),
(296,639,o),
(309,612,o),
(300,569,cs),
(253,345,l),
(315,345,l),
(360,562,ls),
(378,644,o),
(338,696,o),
(256,696,cs),
(179,696,o),
(138,653,o),
(122,577,cs),
(72,345,l)
);
}
);
width = 341;
}
);
metricLeft = "ai-canadian";
metricRight = "==|ai-canadian";
note = uni1422;
unicode = 5154;
},
{
glyphname = "ringRighthalfFinal-canadian";
kernLeft = mwestleft;
kernRight = mwestright;
lastChange = "2023-01-13 15:55:40 +0000";
layers = (
{
layerId = "9563F490-07F6-43DA-A81C-32B2684714C2";
shapes = (
{
closed = 1;
nodes = (
(115,345,ls),
(259,345,o),
(309,461,o),
(309,558,cs),
(309,643,o),
(259,690,o),
(176,690,cs),
(144,690,l),
(131,631,l),
(169,631,ls),
(219,631,o),
(246,604,o),
(246,553,cs),
(246,495,o),
(224,404,o),
(123,404,cs),
(84,404,l),
(71,345,l)
);
}
);
width = 293;
}
);
metricLeft = "=|t-canadian";
metricWidth = "t-canadian";
note = uni1423;
unicode = 5155;
},
{
glyphname = "ringFinal-canadian";
kernLeft = mwestleft;
kernRight = mwestright;
lastChange = "2023-01-13 15:55:37 +0000";
layers = (
{
layerId = "9563F490-07F6-43DA-A81C-32B2684714C2";
shapes = (
{
closed = 1;
nodes = (
(358,389,o),
(422,455,o),
(422,543,cs),
(422,630,o),
(357,696,o),
(267,696,cs),
(176,696,o),
(111,630,o),
(111,543,cs),
(111,455,o),
(176,389,o),
(267,389,cs)
);
},
{
closed = 1;
nodes = (
(208,442,o),
(169,483,o),
(169,543,cs),
(169,601,o),
(208,642,o),
(267,642,cs),
(325,642,o),
(364,600,o),
(364,543,cs),
(364,483,o),
(325,442,o),
(267,442,cs)
);
}
);
width = 404;
}
);
note = uni1424;
unicode = 5156;
},
{
glyphname = "doubleacuteFinal-canadian";
lastChange = "2023-01-13 15:55:40 +0000";
layers = (
{
layerId = "9563F490-07F6-43DA-A81C-32B2684714C2";
shapes = (
{
closed = 1;
nodes = (
(121,345,l),
(321,690,l),
(248,690,l),
(48,345,l)
);
},
{
closed = 1;
nodes = (
(246,345,l),
(447,690,l),
(374,690,l),
(174,345,l)
);
}
);
width = 376;
}
);
metricLeft = "acuteFinal-canadian";
metricRight = "=|";
note = uni1425;
unicode = 5157;
},
{
glyphname = "doubleshortverticalstrokesFinal-canadian";
kernLeft = mwestleft;
kernRight = mwestright;
lastChange = "2023-01-13 15:55:40 +0000";
layers = (
{
layerId = "9563F490-07F6-43DA-A81C-32B2684714C2";
shapes = (
{
closed = 1;
nodes = (
(133,345,l),
(207,690,l),
(145,690,l),
(71,345,l)
);
},
{
closed = 1;
nodes = (
(244,345,l),
(318,690,l),
(256,690,l),
(183,345,l)
);
}
);
width = 270;
}
);
metricLeft = "pWestCree-canadian";
metricRight = "pWestCree-canadian";
note = uni1426;
unicode = 5158;
},
{
glyphname = "middledotFinal-canadian";
lastChange = "2023-01-13 15:55:37 +0000";
layers = (
{
layerId = "9563F490-07F6-43DA-A81C-32B2684714C2";
shapes = (
{
closed = 1;
nodes = (
(145,304,o),
(167,327,o),
(167,355,cs),
(167,383,o),
(145,405,o),
(117,405,cs),
(90,405,o),
(67,383,o),
(67,355,cs),
(67,327,o),
(90,304,o),
(117,304,cs)
);
}
);
width = 185;
}
);
note = uni1427;
unicode = 5159;
},
{
glyphname = "shorthorizontalstrokeFinal-canadian";
kernLeft = mwestleft;
kernRight = mwestright;
lastChange = "2023-01-13 15:55:40 +0000";
layers = (
{
layerId = "9563F490-07F6-43DA-A81C-32B2684714C2";
shapes = (
{
closed = 1;
nodes = (
(364,499,l),
(378,561,l),
(118,561,l),
(104,499,l)
);
}
);
width = 359;
}
);
metricRight = "=|";
note = uni1428;
unicode = 5160;
},
{
glyphname = "plusFinal-canadian";
kernLeft = mwestleft;
kernRight = mwestright;
lastChange = "2023-01-13 15:55:37 +0000";
layers = (
{
layerId = "9563F490-07F6-43DA-A81C-32B2684714C2";
shapes = (
{
closed = 1;
nodes = (
(242,399,l),
(268,516,l),
(368,516,l),
(381,576,l),
(280,576,l),
(304,690,l),
(246,690,l),
(222,576,l),
(121,576,l),
(108,516,l),
(209,516,l),
(185,399,l)
);
}
);
width = 358;
}
);
metricLeft = "shorthorizontalstrokeFinal-canadian";
metricRight = "shorthorizontalstrokeFinal-canadian";
note = uni1429;
unicode = 5161;
},
{
glyphname = "downtackFinal-canadian";
kernLeft = mwestleft;
kernRight = mwestright;
lastChange = "2023-01-13 15:55:37 +0000";
layers = (
{
layerId = "9563F490-07F6-43DA-A81C-32B2684714C2";
shapes = (
{
closed = 1;
nodes = (
(233,345,l),
(294,631,l),
(392,631,l),
(405,690,l),
(145,690,l),
(132,631,l),
(232,631,l),
(171,345,l)
);
}
);
width = 358;
}
);
metricLeft = "shorthorizontalstrokeFinal-canadian";
metricRight = "shorthorizontalstrokeFinal-canadian";
note = uni142A;
unicode = 5162;
},
{
glyphname = "thFinalWoodScree-canadian";
lastChange = "2023-01-13 15:55:40 +0000";
layers = (
{
layerId = "9563F490-07F6-43DA-A81C-32B2684714C2";
shapes = (
{
closed = 1;
nodes = (
(233,345,l),
(249,420,l),
(348,420,l),
(359,474,l),
(261,474,l),
(279,560,l),
(377,560,l),
(388,614,l),
(291,614,l),
(306,690,l),
(244,690,l),
(229,614,l),
(129,614,l),
(118,560,l),
(217,560,l),
(199,474,l),
(100,474,l),
(88,420,l),
(187,420,l),
(171,345,l)
);
}
);
width = 359;
}
);
metricLeft = "hyphen-canadian";
metricRight = "hyphen-canadian";
note = uni167E;
unicode = 5758;
},
{
glyphname = "ringSmallFinal-canadian";
kernLeft = mwestleft;
kernRight = mwestright;
lastChange = "2023-01-13 15:55:37 +0000";
layers = (
{
layerId = "9563F490-07F6-43DA-A81C-32B2684714C2";
shapes = (
{
closed = 1;
nodes = (
(270,521,o),
(312,559,o),
(312,611,cs),
(312,665,o),
(270,702,o),
(220,702,cs),
(170,702,o),
(128,665,o),
(128,611,cs),
(128,559,o),
(169,521,o),
(220,521,cs)
);
},
{
closed = 1;
nodes = (
(190,561,o),
(171,582,o),
(171,611,cs),
(171,640,o),
(191,662,o),
(220,662,cs),
(249,662,o),
(270,640,o),
(270,611,cs),
(270,582,o),
(249,561,o),
(220,561,cs)
);
}
);
width = 282;
}
);
note = g725;
unicode = 6366;
},
{
glyphname = "raiseddotFinal-canadian";
kernLeft = mwestleft;
kernRight = mwestright;
lastChange = "2023-01-13 15:55:37 +0000";
layers = (
{
layerId = "9563F490-07F6-43DA-A81C-32B2684714C2";
shapes = (
{
closed = 1;
nodes = (
(212,602,o),
(234,624,o),
(234,652,cs),
(234,680,o),
(212,702,o),
(184,702,cs),
(156,702,o),
(133,680,o),
(133,652,cs),
(133,624,o),
(156,602,o),
(184,602,cs)
);
}
);
width = 190;
}
);
note = g725;
unicode = 6367;
},
{
glyphname = "plusFinal-canadian.base";
lastChange = "2023-01-13 15:55:37 +0000";
layers = (
{
layerId = "9563F490-07F6-43DA-A81C-32B2684714C2";
shapes = (
{
closed = 1;
nodes = (
(157,0,l),
(183,117,l),
(283,117,l),
(296,177,l),
(195,177,l),
(219,291,l),
(161,291,l),
(137,177,l),
(36,177,l),
(23,117,l),
(125,117,l),
(99,0,l)
);
}
);
width = 358;
}
);
metricLeft = "shorthorizontalstrokeFinal-canadian";
metricRight = "shorthorizontalstrokeFinal-canadian";
note = uni1429;
},
{
glyphname = "e-canadian";
kernLeft = ecanleft;
kernRight = ecanright;
lastChange = "2023-01-13 15:55:40 +0000";
layers = (
{
anchors = (
{
name = middle_center_can;
pos = (329,454);
},
{
name = top_center_can;
pos = (383,690);
},
{
name = top_left_can;
pos = (203,690);
},
{
name = top_right_can;
pos = (564,690);
}
);
layerId = "9563F490-07F6-43DA-A81C-32B2684714C2";
shapes = (
{
closed = 1;
nodes = (
(252,0,l),
(642,665,l),
(647,690,l),
(121,690,l),
(115,665,l),
(222,0,l)
);
},
{
closed = 1;
nodes = (
(279,98,l),
(202,637,l),
(182,616,l),
(551,616,l),
(535,637,l),
(232,98,l)
);
}
);
width = 575;
}
);
metricRight = "=|";
note = uni1401;
unicode = 5121;
},
{
glyphname = "i-canadian";
kernLeft = icanleft;
kernRight = icanright;
lastChange = "2023-01-13 15:55:40 +0000";
layers = (
{
anchors = (
{
name = middle_center_can;
pos = (317,363);
},
{
name = top_center_can;
pos = (384,690);
},
{
name = top_left_can;
pos = (202,690);
},
{
name = top_right_can;
pos = (563,690);
}
);
layerId = "9563F490-07F6-43DA-A81C-32B2684714C2";
shapes = (
{
closed = 1;
nodes = (
(368,690,l),
(-21,25,l),
(-27,0,l),
(500,0,l),
(505,25,l),
(399,690,l)
);
},
{
closed = 1;
nodes = (
(342,592,l),
(419,53,l),
(440,73,l),
(70,73,l),
(86,53,l),
(389,592,l)
);
}
);
width = 575;
}
);
metricLeft = "e-canadian";
metricWidth = "e-canadian";
note = uni1403;
unicode = 5123;
},
{
glyphname = "o-canadian";
kernLeft = ocanleft;
kernRight = ocanright;
lastChange = "2023-01-13 15:55:37 +0000";
layers = (
{
anchors = (
{
name = middle_center_can;
pos = (253,354);
},
{
name = top_center_can;
pos = (383,690);
},
{
name = top_double;
pos = (467,690);
},
{
name = top_left_can;
pos = (191,690);
},
{
name = top_right_can;
pos = (575,690);
}
);
layerId = "9563F490-07F6-43DA-A81C-32B2684714C2";
shapes = (
{
closed = 1;
nodes = (
(32,0,l),
(539,328,l),
(547,361,l),
(179,690,l),
(156,690,l),
(9,0,l)
);
},
{
closed = 1;
nodes = (
(209,588,l),
(175,601,l),
(463,340,l),
(461,362,l),
(75,108,l),
(104,101,l)
);
}
);
width = 550;
}
);
metricLeft = "nunavuth-canadian";
note = uni1405;
unicode = 5125;
},
{
glyphname = "eeCarrier-canadian";
lastChange = "2023-01-13 15:55:37 +0000";
layers = (
{
layerId = "9563F490-07F6-43DA-A81C-32B2684714C2";
shapes = (
{
closed = 1;
nodes = (
(32,0,l),
(539,328,l),
(547,361,l),
(179,690,l),
(156,690,l),
(9,0,l)
);
},
{
closed = 1;
nodes = (
(203,588,l),
(188,592,l),
(467,340,l),
(472,367,l),
(88,114,l),
(99,101,l)
);
},
{
closed = 1;
nodes = (
(246,269,l),
(281,434,l),
(247,434,l),
(213,269,l)
);
}
);
width = 550;
}
);
metricLeft = "nunavuth-canadian";
metricRight = "o-canadian";
note = uni1408;
unicode = 5128;
},
{
glyphname = "a-canadian";
kernLeft = acanleft;
kernRight = acanright;
lastChange = "2023-01-13 15:55:37 +0000";
layers = (
{
anchors = (
{
name = middle_center_can;
pos = (341,345);
},
{
name = top_center_can;
pos = (340,690);
},
{
name = top_left_can;
pos = (168,690);
},
{
name = top_right_can;
pos = (547,690);
}
);
layerId = "9563F490-07F6-43DA-A81C-32B2684714C2";
shapes = (
{
closed = 1;
nodes = (
(562,690,l),
(55,361,l),
(48,328,l),
(415,0,l),
(440,0,l),
(586,690,l)
);
},
{
closed = 1;
nodes = (
(386,101,l),
(419,89,l),
(131,350,l),
(133,327,l),
(520,582,l),
(491,588,l)
);
}
);
width = 551;
}
);
metricRight = "nunavuth-canadian";
note = uni140A;
unicode = 5130;
},
{
glyphname = "ai-canadian";
lastChange = "2023-01-13 15:55:37 +0000";
layers = (
{
layerId = "9563F490-07F6-43DA-A81C-32B2684714C2";
shapes = (
{
closed = 1;
nodes = (
(240,339,o),
(279,368,o),
(298,419,c),
(281,419,l),
(284,367,o),
(316,339,o),
(371,339,cs),
(441,339,o),
(481,380,o),
(499,468,cs),
(547,690,l),
(489,690,l),
(441,468,ls),
(431,417,o),
(410,395,o),
(373,395,cs),
(332,395,o),
(317,418,o),
(327,468,cs),
(375,690,l),
(317,690,l),
(270,470,ls),
(260,419,o),
(237,395,o),
(200,395,cs),
(162,395,o),
(146,420,o),
(156,465,cs),
(204,690,l),
(145,690,l),
(97,461,ls),
(81,390,o),
(118,339,o),
(188,339,cs)
);
}
);
width = 500;
}
);
metricRight = "=|";
note = uni141C;
unicode = 5148;
},
{
glyphname = "ycreew-canadian";
lastChange = "2023-01-13 15:55:37 +0000";
layers = (
{
layerId = "9563F490-07F6-43DA-A81C-32B2684714C2";
shapes = (
{
closed = 1;
nodes = (
(355,510,o),
(383,545,o),
(383,603,cs),
(383,661,o),
(355,696,o),
(314,696,cs),
(273,696,o),
(244,661,o),
(244,603,cs),
(244,545,o),
(272,510,o),
(314,510,cs)
);
},
{
closed = 1;
nodes = (
(204,339,o),
(232,374,o),
(232,432,cs),
(232,490,o),
(203,525,o),
(162,525,cs),
(122,525,o),
(94,490,o),
(94,432,cs),
(94,374,o),
(122,339,o),
(162,339,cs)
);
},
{
closed = 1;
nodes = (
(141,373,o),
(128,392,o),
(128,432,cs),
(128,472,o),
(141,491,o),
(162,491,cs),
(184,491,o),
(197,472,o),
(197,432,cs),
(197,392,o),
(184,373,o),
(162,373,cs)
);
},
{
closed = 1;
nodes = (
(293,544,o),
(279,563,o),
(279,603,cs),
(279,643,o),
(293,662,o),
(314,662,cs),
(335,662,o),
(348,643,o),
(348,603,cs),
(348,563,o),
(335,544,o),
(314,544,cs)
);
}
);
width = 358;
}
);
metricRight = "=|";
note = uni141D;
unicode = 5149;
},
{
glyphname = "glottalstop-canadian";
lastChange = "2023-01-13 15:55:40 +0000";
layers = (
{
layerId = "9563F490-07F6-43DA-A81C-32B2684714C2";
shapes = (
{
closed = 1;
nodes = (
(330,345,l),
(333,359,l),
(280,690,l),
(265,690,l),
(70,359,l),
(67,345,l)
);
},
{
closed = 1;
nodes = (
(275,625,l),
(246,628,l),
(282,372,l),
(296,392,l),
(125,392,l),
(131,372,l)
);
}
);
width = 351;
}
);
metricRight = "=|";
note = uni141E;
unicode = 5150;
},
{
glyphname = "pe-canadian";
kernLeft = ecanleft;
kernRight = ecanright;
lastChange = "2023-01-13 15:55:40 +0000";
layers = (
{
anchors = (
{
name = middle_center_can;
pos = (329,454);
},
{
name = top_center_can;
pos = (384,690);
},
{
name = top_left_can;
pos = (202,690);
},
{
name = top_right_can;
pos = (564,690);
}
);
layerId = "9563F490-07F6-43DA-A81C-32B2684714C2";
shapes = (
{
closed = 1;
nodes = (
(252,0,l),
(642,665,l),
(647,690,l),
(560,690,l),
(224,105,l),
(286,105,l),
(197,690,l),
(121,690,l),
(115,665,l),
(222,0,l)
);
}
);
width = 575;
}
);
metricLeft = "e-canadian";
metricRight = "e-canadian";
note = uni142F;
unicode = 5167;
},
{
glyphname = "pi-canadian";
kernLeft = icanleft;
kernRight = icanright;
lastChange = "2023-01-13 15:55:40 +0000";
layers = (
{
anchors = (
{
name = middle_center_can;
pos = (319,363);
},
{
name = top_center_can;
pos = (384,690);
},
{
name = top_left_can;
pos = (202,690);
},
{
name = top_right_can;
pos = (563,690);
}
);
layerId = "9563F490-07F6-43DA-A81C-32B2684714C2";
shapes = (
{
closed = 1;
nodes = (
(368,690,l),
(-21,25,l),
(-27,0,l),
(61,0,l),
(396,584,l),
(335,584,l),
(423,0,l),
(499,0,l),
(505,25,l),
(399,690,l)
);
}
);
width = 574;
}
);
metricLeft = "e-canadian";
metricRight = "e-canadian";
note = uni1431;
unicode = 5169;
},
{
glyphname = "po-canadian";
kernLeft = ocanleft;
kernRight = ocanright;
lastChange = "2023-01-13 15:55:37 +0000";
layers = (
{
anchors = (
{
name = middle_center_can;
pos = (186,355);
},
{
name = top_center_can;
pos = (361,690);
},
{
name = top_double;
pos = (455,690);
},
{
name = top_left_can;
pos = (176,690);
},
{
name = top_right_can;
pos = (552,690);
}
);
layerId = "9563F490-07F6-43DA-A81C-32B2684714C2";
name = "Thin Slanted";
shapes = (
{
closed = 1;
nodes = (
(13,0,l),
(516,328,l),
(523,361,l),
(159,690,l),
(136,690,l),
(120,614,l),
(429,333,l),
(438,375,l),
(10,94,l),
(-11,0,l)
);
}
);
width = 526;
}
);
metricRight = "o-canadian";
note = uni1433;
unicode = 5171;
},
{
glyphname = "pa-canadian";
kernLeft = acanleft;
kernRight = acanright;
lastChange = "2023-01-13 15:55:37 +0000";
layers = (
{
anchors = (
{
name = middle_center_can;
pos = (308,345);
},
{
name = top_center_can;
pos = (359,690);
},
{
name = top_left_can;
pos = (169,690);
},
{
name = top_right_can;
pos = (543,690);
}
);
layerId = "9563F490-07F6-43DA-A81C-32B2684714C2";
shapes = (
{
closed = 1;
nodes = (
(557,690,l),
(56,361,l),
(48,328,l),
(411,0,l),
(435,0,l),
(451,75,l),
(142,356,l),
(134,315,l),
(561,596,l),
(582,690,l)
);
}
);
width = 526;
}
);
metricRight = "=|po-canadian";
note = uni1438;
unicode = 5176;
},
{
glyphname = "p-canadian";
kernLeft = mwestleft;
kernRight = mwestright;
lastChange = "2023-01-13 15:55:37 +0000";
layers = (
{
layerId = "9563F490-07F6-43DA-A81C-32B2684714C2";
shapes = (
{
closed = 1;
nodes = (
(297,345,l),
(308,398,l),
(159,535,l),
(150,490,l),
(356,626,l),
(370,690,l),
(357,690,l),
(110,527,l),
(106,508,l),
(284,345,l)
);
}
);
width = 324;
}
);
note = uni1449;
unicode = 5193;
},
{
glyphname = "pWestCree-canadian";
kernLeft = mwestleft;
kernRight = mwestright;
lastChange = "2023-01-13 15:55:40 +0000";
layers = (
{
layerId = "9563F490-07F6-43DA-A81C-32B2684714C2";
shapes = (
{
closed = 1;
nodes = (
(133,345,l),
(207,690,l),
(145,690,l),
(71,345,l)
);
}
);
width = 159;
}
);
metricRight = "=|";
note = uni144A;
unicode = 5194;
},
{
color = 6;
glyphname = "hCarrier-canadian";
lastChange = "2023-01-13 15:55:40 +0000";
layers = (
{
layerId = "9563F490-07F6-43DA-A81C-32B2684714C2";
shapes = (
{
closed = 1;
nodes = (
(97,183,l),
(126,324,ls),
(134,361,o),
(154,380,o),
(181,380,cs),
(212,380,o),
(224,358,o),
(216,322,cs),
(186,183,l),
(248,183,l),
(279,329,ls),
(293,391,o),
(262,435,o),
(204,435,cs),
(166,435,o),
(133,411,o),
(124,375,c),
(136,366,l),
(170,527,l),
(109,527,l),
(36,183,l)
);
}
);
width = 294;
}
);
metricLeft = "pWestCree-canadian";
note = uni144B;
unicode = 5195;
},
{
glyphname = "te-canadian";
lastChange = "2023-01-13 15:55:40 +0000";
layers = (
{
anchors = (
{
name = middle_center_can;
pos = (313,345);
},
{
name = top_center_can;
pos = (386,690);
},
{
name = top_left_can;
pos = (198,690);
},
{
name = top_right_can;
pos = (576,690);
}
);
layerId = "9563F490-07F6-43DA-A81C-32B2684714C2";
shapes = (
{
closed = 1;
nodes = (
(405,-13,o),
(488,66,o),
(523,226,cs),
(621,690,l),
(530,690,l),
(434,236,ls),
(410,121,o),
(359,71,o),
(271,71,cs),
(163,71,o),
(124,132,o),
(150,255,cs),
(242,690,l),
(153,690,l),
(62,262,ls),
(25,89,o),
(102,-13,o),
(266,-13,cs)
);
}
);
width = 583;
}
);
metricRight = "=|";
note = uni144C;
unicode = 5196;
},
{
glyphname = "ti-canadian";
lastChange = "2023-01-13 15:55:40 +0000";
layers = (
{
anchors = (
{
name = middle_center_can;
pos = (314,345);
},
{
name = middle_right_can;
pos = (656,345);
},
{
name = top_center_can;
pos = (387,690);
},
{
name = top_left_can;
pos = (199,690);
},
{
name = top_right_can;
pos = (577,690);
}
);
layerId = "9563F490-07F6-43DA-A81C-32B2684714C2";
shapes = (
{
closed = 1;
nodes = (
(97,0,l),
(193,454,ls),
(217,569,o),
(270,618,o),
(356,618,cs),
(464,618,o),
(503,557,o),
(477,435,cs),
(385,0,l),
(475,0,l),
(566,428,ls),
(603,601,o),
(525,702,o),
(362,702,cs),
(222,702,o),
(139,624,o),
(105,464,cs),
(7,0,l)
);
}
);
width = 583;
}
);
metricLeft = "te-canadian";
metricRight = "te-canadian";
note = uni144E;
unicode = 5198;
},
{
glyphname = "to-canadian";
kernLeft = toleft;
lastChange = "2023-01-13 15:55:37 +0000";
layers = (
{
anchors = (
{
name = middle_center_can;
pos = (218,345);
},
{
name = middle_right_can;
pos = (568,345);
},
{
name = top_center_can;
pos = (315,690);
},
{
name = top_double;
pos = (370,690);
},
{
name = top_left_can;
pos = (177,690);
},
{
name = top_right_can;
pos = (495,690);
}
);
layerId = "9563F490-07F6-43DA-A81C-32B2684714C2";
shapes = (
{
closed = 1;
nodes = (
(103,0,ls),
(400,0,o),
(470,281,o),
(470,441,cs),
(470,602,o),
(381,690,o),
(218,690,cs),
(137,690,l),
(120,607,l),
(202,607,ls),
(321,607,o),
(380,551,o),
(380,437,cs),
(380,317,o),
(328,83,o),
(107,83,cs),
(8,83,l),
(-10,0,l)
);
}
);
width = 487;
}
);
note = uni1450;
unicode = 5200;
},
{
glyphname = "ta-canadian";
kernRight = taright;
lastChange = "2023-01-13 15:55:40 +0000";
layers = (
{
anchors = (
{
name = middle_center_can;
pos = (312,345);
},
{
name = top_center_can;
pos = (362,690);
},
{
name = top_left_can;
pos = (181,690);
},
{
name = top_right_can;
pos = (501,690);
}
);
layerId = "9563F490-07F6-43DA-A81C-32B2684714C2";
shapes = (
{
closed = 1;
nodes = (
(394,0,l),
(411,83,l),
(326,83,ls),
(209,83,o),
(152,139,o),
(152,252,cs),
(152,381,o),
(207,607,o),
(422,607,cs),
(523,607,l),
(540,690,l),
(426,690,ls),
(135,690,o),
(61,415,o),
(61,247,cs),
(61,88,o),
(148,0,o),
(310,0,cs)
);
}
);
width = 486;
}
);
metricLeft = "=|to-canadian";
metricRight = "=|to-canadian";
note = uni1455;
unicode = 5205;
},
{
glyphname = "t-canadian";
kernLeft = mwestleft;
kernRight = mwestright;
lastChange = "2023-01-13 15:55:37 +0000";
layers = (
{
layerId = "9563F490-07F6-43DA-A81C-32B2684714C2";
shapes = (
{
closed = 1;
nodes = (
(268,345,l),
(280,404,l),
(242,404,ls),
(191,404,o),
(165,432,o),
(165,482,cs),
(165,546,o),
(192,631,o),
(291,631,cs),
(328,631,l),
(341,690,l),
(298,690,ls),
(156,690,o),
(102,579,o),
(102,476,cs),
(102,391,o),
(152,345,o),
(236,345,cs)
);
}
);
width = 293;
}
);
note = uni1466;
unicode = 5222;
},
{
glyphname = "ke-canadian";
lastChange = "2023-01-13 15:55:37 +0000";
layers = (
{
anchors = (
{
name = middle_center_can;
pos = (292,441);
},
{
name = top_center_can;
pos = (332,690);
},
{
name = top_left_can;
pos = (189,690);
},
{
name = top_right_can;
pos = (475,690);
}
);
layerId = "9563F490-07F6-43DA-A81C-32B2684714C2";
shapes = (
{
closed = 1;
nodes = (
(374,0,l),
(465,431,ls),
(493,563,o),
(468,702,o),
(318,702,cs),
(144,702,o),
(88,497,o),
(88,373,cs),
(88,263,o),
(138,198,o),
(230,198,cs),
(288,198,o),
(332,231,o),
(362,298,c),
(348,303,l),
(283,0,l)
);
},
{
closed = 1;
nodes = (
(202,276,o),
(175,310,o),
(175,377,cs),
(175,446,o),
(207,625,o),
(310,625,cs),
(361,625,o),
(388,591,o),
(388,525,cs),
(388,455,o),
(356,276,o),
(254,276,cs)
);
}
);
width = 482;
}
);
metricRight = "te-canadian";
note = uni146B;
unicode = 5227;
},
{
glyphname = "ki-canadian";
lastChange = "2023-01-13 15:55:40 +0000";
layers = (
{
anchors = (
{
name = middle_center_can;
pos = (299,441);
},
{
name = top_center_can;
pos = (339,690);
},
{
name = top_left_can;
pos = (197,690);
},
{
name = top_right_can;
pos = (483,690);
}
);
layerId = "9563F490-07F6-43DA-A81C-32B2684714C2";
shapes = (
{
closed = 1;
nodes = (
(96,0,l),
(166,329,l),
(151,303,l),
(150,243,o),
(193,198,o),
(264,198,cs),
(426,198,o),
(483,407,o),
(483,524,cs),
(483,638,o),
(426,702,o),
(325,702,cs),
(213,702,o),
(138,623,o),
(106,470,cs),
(6,0,l)
);
},
{
closed = 1;
nodes = (
(210,276,o),
(183,310,o),
(183,377,cs),
(183,446,o),
(216,625,o),
(318,625,cs),
(369,625,o),
(396,591,o),
(396,526,cs),
(396,453,o),
(363,276,o),
(262,276,cs)
);
}
);
width = 481;
}
);
metricLeft = "te-canadian";
metricRight = "=|ke-canadian";
note = uni146D;
unicode = 5229;
},
{
glyphname = "ko-canadian";
lastChange = "2023-01-13 15:55:37 +0000";
layers = (
{
anchors = (
{
name = middle_center_can;
pos = (275,362);
},
{
name = top_center_can;
pos = (333,690);
},
{
name = top_double;
pos = (476,690);
},
{
name = top_left_can;
pos = (190,690);
},
{
name = top_right_can;
pos = (476,690);
}
);
layerId = "9563F490-07F6-43DA-A81C-32B2684714C2";
shapes = (
{
closed = 1;
nodes = (
(315,-13,o),
(388,67,o),
(421,219,cs),
(521,690,l),
(431,690,l),
(360,360,l),
(376,386,l),
(377,446,o),
(333,492,o),
(263,492,cs),
(100,492,o),
(43,283,o),
(43,166,cs),
(43,53,o),
(100,-13,o),
(203,-13,cs)
);
},
{
closed = 1;
nodes = (
(157,65,o),
(130,99,o),
(130,164,cs),
(130,235,o),
(164,413,o),
(266,413,cs),
(317,413,o),
(344,379,o),
(344,313,cs),
(344,240,o),
(312,65,o),
(210,65,cs)
);
}
);
width = 482;
}
);
metricLeft = "ke-canadian";
metricRight = "te-canadian";
note = uni146F;
unicode = 5231;
},
{
glyphname = "ka-canadian";
lastChange = "2023-01-13 15:55:37 +0000";
layers = (
{
anchors = (
{
name = middle_center_can;
pos = (282,364);
},
{
name = top_center_can;
pos = (340,690);
},
{
name = top_left_can;
pos = (197,690);
},
{
name = top_right_can;
pos = (483,690);
}
);
layerId = "9563F490-07F6-43DA-A81C-32B2684714C2";
shapes = (
{
closed = 1;
nodes = (
(383,-13,o),
(439,192,o),
(439,317,cs),
(439,427,o),
(386,492,o),
(296,492,cs),
(240,492,o),
(195,459,o),
(164,391,c),
(178,386,l),
(242,690,l),
(153,690,l),
(61,259,ls),
(24,88,o),
(83,-13,o),
(209,-13,cs)
);
},
{
closed = 1;
nodes = (
(164,65,o),
(137,99,o),
(137,165,cs),
(137,235,o),
(169,413,o),
(271,413,cs),
(324,413,o),
(351,380,o),
(351,313,cs),
(351,243,o),
(319,65,o),
(216,65,cs)
);
}
);
width = 482;
}
);
metricLeft = "te-canadian";
metricRight = "==|ke-canadian";
note = uni1472;
unicode = 5234;
},
{
glyphname = "k-canadian";
kernLeft = mwestleft;
kernRight = mwestright;
lastChange = "2023-01-13 15:55:37 +0000";
layers = (
{
layerId = "9563F490-07F6-43DA-A81C-32B2684714C2";
shapes = (
{
closed = 1;
nodes = (
(279,339,o),
(311,449,o),
(311,509,cs),
(311,566,o),
(283,601,o),
(237,601,cs),
(198,601,o),
(169,574,o),
(156,534,c),
(174,534,l),
(207,690,l),
(145,690,l),
(100,480,ls),
(87,417,o),
(99,339,o),
(185,339,cs)
);
},
{
closed = 1;
nodes = (
(165,386,o),
(153,404,o),
(153,435,cs),
(153,470,o),
(171,554,o),
(218,554,cs),
(242,554,o),
(254,536,o),
(254,506,cs),
(254,469,o),
(236,386,o),
(188,386,cs)
);
}
);
width = 298;
}
);
note = uni1483;
unicode = 5251;
},
{
glyphname = "kw-canadian";
kernLeft = mwestleft;
kernRight = mwestright;
lastChange = "2023-01-13 15:55:40 +0000";
layers = (
{
layerId = "9563F490-07F6-43DA-A81C-32B2684714C2";
shapes = (
{
closed = 1;
nodes = (
(238,338,o),
(279,381,o),
(297,467,cs),
(344,690,l),
(283,690,l),
(248,527,l),
(264,532,l),
(267,573,o),
(240,600,o),
(200,600,cs),
(119,600,o),
(86,495,o),
(86,437,cs),
(86,376,o),
(119,338,o),
(176,338,cs)
);
},
{
closed = 1;
nodes = (
(154,386,o),
(141,404,o),
(141,434,cs),
(141,469,o),
(159,553,o),
(208,553,cs),
(230,553,o),
(243,535,o),
(243,504,cs),
(243,472,o),
(227,386,o),
(177,386,cs)
);
}
);
width = 298;
}
);
metricLeft = "=|k-canadian";
metricRight = "=|k-canadian";
note = uni1484;
unicode = 5252;
},
{
glyphname = "ce-canadian";
kernLeft = celeft;
lastChange = "2023-01-13 15:55:37 +0000";
layers = (
{
anchors = (
{
name = middle_center_can;
pos = (279,403);
},
{
name = top_center_can;
pos = (330,690);
},
{
name = top_left_can;
pos = (188,690);
},
{
name = top_right_can;
pos = (470,690);
}
);
layerId = "9563F490-07F6-43DA-A81C-32B2684714C2";
shapes = (
{
closed = 1;
nodes = (
(368,0,l),
(467,464,ls),
(497,613,o),
(435,702,o),
(313,702,cs),
(197,702,o),
(131,633,o),
(99,480,cs),
(79,387,l),
(168,387,l),
(190,491,ls),
(211,583,o),
(245,623,o),
(302,623,cs),
(370,623,o),
(400,575,o),
(380,481,cs),
(277,0,l)
);
}
);
width = 476;
}
);
metricRight = "te-canadian";
note = uni1489;
unicode = 5257;
},
{
glyphname = "ci-canadian";
kernRight = ciright;
lastChange = "2023-01-13 15:55:40 +0000";
layers = (
{
anchors = (
{
name = middle_center_can;
pos = (289,403);
},
{
name = top_center_can;
pos = (339,690);
},
{
name = top_left_can;
pos = (198,690);
},
{
name = top_right_can;
pos = (481,690);
}
);
layerId = "9563F490-07F6-43DA-A81C-32B2684714C2";
shapes = (
{
closed = 1;
nodes = (
(96,0,l),
(200,491,ls),
(219,583,o),
(254,623,o),
(313,623,cs),
(380,623,o),
(410,575,o),
(389,481,cs),
(370,387,l),
(459,387,l),
(475,464,ls),
(507,613,o),
(444,702,o),
(322,702,cs),
(206,702,o),
(140,633,o),
(108,480,cs),
(6,0,l)
);
}
);
width = 476;
}
);
metricLeft = "te-canadian";
metricRight = "=|ce-canadian";
note = uni148B;
unicode = 5259;
},
{
glyphname = "co-canadian";
kernLeft = coleft;
lastChange = "2023-01-13 15:55:40 +0000";
layers = (
{
anchors = (
{
name = middle_center_can;
pos = (281,403);
},
{
name = top_center_can;
pos = (330,690);
},
{
name = top_double;
pos = (471,690);
},
{
name = top_left_can;
pos = (189,690);
},
{
name = top_right_can;
pos = (471,690);
}
);
layerId = "9563F490-07F6-43DA-A81C-32B2684714C2";
shapes = (
{
closed = 1;
nodes = (
(315,-13,o),
(381,57,o),
(413,210,cs),
(516,690,l),
(425,690,l),
(322,199,ls),
(301,106,o),
(267,67,o),
(209,67,cs),
(141,67,o),
(111,115,o),
(131,209,cs),
(152,302,l),
(62,302,l),
(45,226,ls),
(14,76,o),
(77,-13,o),
(199,-13,cs)
);
}
);
width = 477;
}
);
metricLeft = "ce-canadian";
metricRight = "te-canadian";
note = uni148D;
unicode = 5261;
},
{
glyphname = "ca-canadian";
kernRight = caright;
lastChange = "2023-01-13 15:55:40 +0000";
layers = (
{
anchors = (
{
name = middle_center_can;
pos = (289,403);
},
{
name = top_center_can;
pos = (340,690);
},
{
name = top_left_can;
pos = (198,690);
},
{
name = top_right_can;
pos = (479,690);
}
);
layerId = "9563F490-07F6-43DA-A81C-32B2684714C2";
shapes = (
{
closed = 1;
nodes = (
(323,-13,o),
(388,57,o),
(421,210,cs),
(440,302,l),
(352,302,l),
(329,199,ls),
(309,106,o),
(274,67,o),
(217,67,cs),
(150,67,o),
(120,115,o),
(140,209,cs),
(242,690,l),
(153,690,l),
(54,226,ls),
(22,76,o),
(85,-13,o),
(207,-13,cs)
);
}
);
width = 475;
}
);
metricLeft = "te-canadian";
metricRight = "=|ce-canadian";
note = uni1490;
unicode = 5264;
},
{
glyphname = "c-canadian";
kernLeft = mwestleft;
kernRight = mwestright;
lastChange = "2023-01-13 15:55:37 +0000";
layers = (
{
layerId = "9563F490-07F6-43DA-A81C-32B2684714C2";
shapes = (
{
closed = 1;
nodes = (
(249,339,o),
(290,381,o),
(304,452,cs),
(312,487,l),
(255,487,l),
(245,446,ls),
(238,410,o),
(219,389,o),
(191,389,cs),
(159,389,o),
(149,416,o),
(156,453,cs),
(207,690,l),
(145,690,l),
(98,468,ls),
(82,394,o),
(113,339,o),
(187,339,cs)
);
}
);
width = 289;
}
);
note = uni14A1;
unicode = 5281;
},
{
glyphname = "thSayisi-canadian";
lastChange = "2023-01-13 15:55:40 +0000";
layers = (
{
layerId = "9563F490-07F6-43DA-A81C-32B2684714C2";
shapes = (
{
closed = 1;
nodes = (
(232,339,o),
(270,381,o),
(287,454,cs),
(337,690,l),
(275,690,l),
(224,450,ls),
(215,407,o),
(196,389,o),
(168,389,cs),
(136,389,o),
(126,416,o),
(133,453,cs),
(140,487,l),
(83,487,l),
(78,463,ls),
(64,392,o),
(95,339,o),
(169,339,cs)
);
}
);
width = 290;
}
);
metricLeft = "=|c-canadian";
metricRight = "=|c-canadian";
note = uni14A2;
unicode = 5282;
},
{
glyphname = "me-canadian";
kernLeft = meleft;
lastChange = "2023-01-13 15:55:37 +0000";
layers = (
{
anchors = (
{
name = middle_center_can;
pos = (180,345);
},
{
name = top_center_can;
pos = (300,690);
},
{
name = top_left_can;
pos = (174,690);
},
{
name = top_right_can;
pos = (421,690);
}
);
layerId = "9563F490-07F6-43DA-A81C-32B2684714C2";
shapes = (
{
closed = 1;
nodes = (
(321,0,l),
(468,690,l),
(128,690,l),
(111,607,l),
(359,607,l),
(230,0,l)
);
}
);
width = 432;
}
);
metricRight = "nunavuth-canadian";
note = uni14A3;
unicode = 5283;
},
{
glyphname = "mi-canadian";
kernRight = miright;
lastChange = "2023-01-13 15:55:40 +0000";
layers = (
{
anchors = (
{
name = middle_center_can;
pos = (298,345);
},
{
name = top_center_can;
pos = (325,690);
},
{
name = top_left_can;
pos = (201,690);
},
{
name = top_right_can;
pos = (448,690);
}
);
layerId = "9563F490-07F6-43DA-A81C-32B2684714C2";
shapes = (
{
closed = 1;
nodes = (
(99,0,l),
(228,607,l),
(476,607,l),
(494,690,l),
(156,690,l),
(9,0,l)
);
}
);
width = 430;
}
);
metricLeft = "nunavuth-canadian";
metricRight = "=|me-canadian";
note = uni14A5;
unicode = 5285;
},
{
glyphname = "mo-canadian";
kernLeft = moleft;
lastChange = "2023-01-13 15:55:40 +0000";
layers = (
{
anchors = (
{
name = middle_center_can;
pos = (179,345);
},
{
name = top_center_can;
pos = (299,690);
},
{
name = top_double;
pos = (421,690);
},
{
name = top_left_can;
pos = (173,690);
},
{
name = top_right_can;
pos = (421,690);
}
);
layerId = "9563F490-07F6-43DA-A81C-32B2684714C2";
shapes = (
{
closed = 1;
nodes = (
(320,0,l),
(467,690,l),
(376,690,l),
(247,83,l),
(-1,83,l),
(-18,0,l)
);
}
);
width = 431;
}
);
metricLeft = "me-canadian";
metricRight = "nunavuth-canadian";
note = uni14A7;
unicode = 5287;
},
{
glyphname = "ma-canadian";
kernRight = maright;
lastChange = "2023-01-13 15:55:40 +0000";
layers = (
{
anchors = (
{
name = middle_center_can;
pos = (298,345);
},
{
name = top_center_can;
pos = (325,690);
},
{
name = top_left_can;
pos = (201,690);
},
{
name = top_right_can;
pos = (448,690);
}
);
layerId = "9563F490-07F6-43DA-A81C-32B2684714C2";
shapes = (
{
closed = 1;
nodes = (
(347,0,l),
(364,83,l),
(117,83,l),
(245,690,l),
(156,690,l),
(9,0,l)
);
}
);
width = 430;
}
);
metricLeft = "nunavuth-canadian";
metricRight = "=|me-canadian";
note = uni14AA;
unicode = 5290;
},
{
glyphname = "m-canadian";
kernLeft = mwestleft;
kernRight = mwestright;
lastChange = "2023-01-13 15:55:37 +0000";
layers = (
{
layerId = "9563F490-07F6-43DA-A81C-32B2684714C2";
shapes = (
{
closed = 1;
nodes = (
(258,345,l),
(270,404,l),
(146,404,l),
(207,690,l),
(145,690,l),
(71,345,l)
);
}
);
width = 266;
}
);
metricLeft = "pWestCree-canadian";
note = uni14BB;
unicode = 5307;
},
{
glyphname = "mh-canadian";
kernLeft = mwestleft;
kernRight = mwestright;
lastChange = "2023-01-13 15:55:40 +0000";
layers = (
{
layerId = "9563F490-07F6-43DA-A81C-32B2684714C2";
shapes = (
{
closed = 1;
nodes = (
(241,345,l),
(314,690,l),
(253,690,l),
(192,404,l),
(67,404,l),
(54,345,l)
);
}
);
width = 266;
}
);
metricLeft = "=|m-canadian";
metricRight = "=|m-canadian";
note = uni14BD;
unicode = 5309;
},
{
glyphname = "mAthapascan-canadian";
lastChange = "2023-01-13 15:55:37 +0000";
layers = (
{
layerId = "9563F490-07F6-43DA-A81C-32B2684714C2";
shapes = (
{
closed = 1;
nodes = (
(269,345,l),
(280,399,l),
(147,399,l),
(145,370,l),
(251,485,ls),
(287,524,o),
(313,563,o),
(313,611,cs),
(313,663,o),
(281,696,o),
(227,696,cs),
(169,696,o),
(128,660,o),
(113,575,c),
(169,575,l),
(178,629,o),
(197,649,o),
(223,649,cs),
(245,649,o),
(258,636,o),
(258,611,cs),
(258,575,o),
(236,542,o),
(203,506,cs),
(83,377,l),
(76,345,l)
);
}
);
width = 285;
}
);
note = uni14BE;
unicode = 5310;
},
{
glyphname = "ne-canadian";
kernLeft = neleft;
lastChange = "2023-01-13 15:55:37 +0000";
layers = (
{
anchors = (
{
name = middle_center_can;
pos = (413,245);
},
{
name = top_center_can;
pos = (456,497);
},
{
name = top_left_can;
pos = (146,497);
},
{
name = top_right_can;
pos = (614,497);
}
);
layerId = "9563F490-07F6-43DA-A81C-32B2684714C2";
shapes = (
{
closed = 1;
nodes = (
(549,-13,o),
(608,184,o),
(608,296,cs),
(608,410,o),
(545,478,o),
(433,478,cs),
(97,478,l),
(79,396,l),
(334,396,l),
(334,429,l),
(242,386,o),
(213,249,o),
(213,169,cs),
(213,55,o),
(275,-13,o),
(382,-13,cs)
);
},
{
closed = 1;
nodes = (
(329,65,o),
(300,101,o),
(300,168,cs),
(300,238,o),
(330,401,o),
(436,401,cs),
(491,401,o),
(520,364,o),
(520,297,cs),
(520,228,o),
(491,65,o),
(384,65,cs)
);
}
);
width = 653;
}
);
metricRight = "=|ke-canadian";
note = uni14C0;
unicode = 5312;
},
{
glyphname = "ni-canadian";
kernRight = niright;
lastChange = "2023-01-13 15:55:40 +0000";
layers = (
{
anchors = (
{
name = middle_center_can;
pos = (242,245);
},
{
name = top_center_can;
pos = (307,497);
},
{
name = top_left_can;
pos = (148,497);
},
{
name = top_right_can;
pos = (616,497);
}
);
layerId = "9563F490-07F6-43DA-A81C-32B2684714C2";
shapes = (
{
closed = 1;
nodes = (
(379,-13,o),
(438,184,o),
(438,297,cs),
(438,349,o),
(421,387,o),
(392,410,c),
(384,396,l),
(641,396,l),
(659,478,l),
(277,478,ls),
(100,478,o),
(43,283,o),
(43,170,cs),
(43,55,o),
(105,-13,o),
(212,-13,cs)
);
},
{
closed = 1;
nodes = (
(159,65,o),
(130,101,o),
(130,168,cs),
(130,238,o),
(160,401,o),
(266,401,cs),
(322,401,o),
(350,364,o),
(350,297,cs),
(350,228,o),
(321,65,o),
(215,65,cs)
);
}
);
width = 654;
}
);
metricLeft = "ke-canadian";
metricRight = "=|ne-canadian";
note = uni14C2;
unicode = 5314;
},
{
glyphname = "no-canadian";
kernLeft = noleft;
lastChange = "2023-01-13 15:55:40 +0000";
layers = (
{
anchors = (
{
name = middle_center_can;
pos = (413,245);
},
{
name = top_center_can;
pos = (465,497);
},
{
name = top_double;
pos = (469,497);
},
{
name = top_left_can;
pos = (146,497);
},
{
name = top_right_can;
pos = (615,497);
}
);
layerId = "9563F490-07F6-43DA-A81C-32B2684714C2";
shapes = (
{
closed = 1;
nodes = (
(377,0,ls),
(554,0,o),
(611,196,o),
(611,308,cs),
(611,423,o),
(548,492,o),
(442,492,cs),
(274,492,o),
(216,296,o),
(216,182,cs),
(216,130,o),
(232,91,o),
(262,69,c),
(270,82,l),
(13,82,l),
(-5,0,l)
);
},
{
closed = 1;
nodes = (
(332,77,o),
(303,115,o),
(303,182,cs),
(303,250,o),
(333,413,o),
(439,413,cs),
(494,413,o),
(523,377,o),
(523,310,cs),
(523,242,o),
(493,77,o),
(387,77,cs)
);
}
);
width = 654;
}
);
metricLeft = "ne-canadian";
metricRight = "=|ke-canadian";
note = uni14C4;
unicode = 5316;
},
{
glyphname = "na-canadian";
kernRight = naright;
lastChange = "2023-01-13 15:55:37 +0000";
layers = (
{
anchors = (
{
name = middle_center_can;
pos = (243,245);
},
{
name = top_center_can;
pos = (298,497);
},
{
name = top_double;
pos = (425,497);
},
{
name = top_left_can;
pos = (148,497);
},
{
name = top_right_can;
pos = (617,497);
}
);
layerId = "9563F490-07F6-43DA-A81C-32B2684714C2";
shapes = (
{
closed = 1;
nodes = (
(556,0,l),
(574,82,l),
(319,82,l),
(319,50,l),
(412,92,o),
(440,229,o),
(440,309,cs),
(440,423,o),
(378,492,o),
(272,492,cs),
(104,492,o),
(46,296,o),
(46,183,cs),
(46,70,o),
(108,0,o),
(220,0,cs)
);
},
{
closed = 1;
nodes = (
(162,77,o),
(133,115,o),
(133,182,cs),
(133,250,o),
(163,413,o),
(269,413,cs),
(325,413,o),
(353,377,o),
(353,310,cs),
(353,242,o),
(324,77,o),
(218,77,cs)
);
}
);
width = 653;
}
);
metricLeft = "ke-canadian";
metricRight = "=|ne-canadian";
note = uni14C7;
unicode = 5319;
},
{
glyphname = "n-canadian";
kernLeft = mwestleft;
kernRight = mwestright;
lastChange = "2023-01-13 15:55:37 +0000";
layers = (
{
layerId = "9563F490-07F6-43DA-A81C-32B2684714C2";
shapes = (
{
closed = 1;
nodes = (
(385,434,l),
(398,493,l),
(257,493,l),
(254,459,l),
(299,480,o),
(320,553,o),
(320,595,cs),
(320,657,o),
(286,696,o),
(230,696,cs),
(144,696,o),
(107,601,o),
(107,533,cs),
(107,471,o),
(142,434,o),
(200,434,cs)
);
},
{
closed = 1;
nodes = (
(175,481,o),
(161,499,o),
(161,532,cs),
(161,569,o),
(178,648,o),
(226,648,cs),
(252,648,o),
(265,630,o),
(265,597,cs),
(265,560,o),
(249,481,o),
(199,481,cs)
);
}
);
width = 374;
}
);
metricLeft = "=|k-canadian";
note = uni14D0;
unicode = 5328;
},
{
glyphname = "nh-canadian";
kernLeft = mwestleft;
kernRight = mwestright;
lastChange = "2023-01-13 15:55:37 +0000";
layers = (
{
layerId = "9563F490-07F6-43DA-A81C-32B2684714C2";
shapes = (
{
closed = 1;
nodes = (
(280,434,ls),
(370,434,o),
(407,527,o),
(407,597,cs),
(407,659,o),
(371,696,o),
(316,696,cs),
(231,696,o),
(193,601,o),
(193,533,cs),
(193,511,o),
(200,485,o),
(218,469,c),
(225,493,l),
(84,493,l),
(71,434,l)
);
},
{
closed = 1;
nodes = (
(262,481,o),
(248,499,o),
(248,532,cs),
(248,569,o),
(265,648,o),
(313,648,cs),
(338,648,o),
(352,630,o),
(352,597,cs),
(352,560,o),
(336,481,o),
(287,481,cs)
);
}
);
width = 376;
}
);
metricLeft = "=|n-canadian";
metricRight = "=|n-canadian";
note = uni14D2;
unicode = 5330;
},
{
glyphname = "le-canadian";
kernLeft = neleft;
lastChange = "2023-01-13 15:55:37 +0000";
layers = (
{
anchors = (
{
name = middle_center_can;
pos = (412,245);
},
{
name = top_center_can;
pos = (457,497);
},
{
name = top_left_can;
pos = (146,497);
},
{
name = top_right_can;
pos = (614,497);
}
);
layerId = "9563F490-07F6-43DA-A81C-32B2684714C2";
shapes = (
{
closed = 1;
nodes = (
(327,0,ls),
(521,0,o),
(606,140,o),
(606,285,cs),
(606,404,o),
(532,478,o),
(408,478,cs),
(97,478,l),
(79,396,l),
(390,396,ls),
(472,396,o),
(517,355,o),
(517,279,cs),
(517,196,o),
(477,80,o),
(338,80,cs),
(323,80,l),
(305,0,l)
);
}
);
width = 653;
}
);
metricLeft = "ne-canadian";
metricRight = "=|ke-canadian";
note = uni14D3;
unicode = 5331;
},
{
glyphname = "li-canadian";
kernRight = niright;
lastChange = "2023-01-13 15:55:40 +0000";
layers = (
{
anchors = (
{
name = middle_center_can;
pos = (245,245);
},
{
name = top_center_can;
pos = (310,497);
},
{
name = top_left_can;
pos = (151,497);
},
{
name = top_right_can;
pos = (618,497);
}
);
layerId = "9563F490-07F6-43DA-A81C-32B2684714C2";
shapes = (
{
closed = 1;
nodes = (
(248,0,l),
(265,80,l),
(250,80,ls),
(180,80,o),
(138,126,o),
(138,199,cs),
(138,283,o),
(184,396,o),
(320,396,cs),
(642,396,l),
(660,478,l),
(327,478,ls),
(139,478,o),
(48,343,o),
(48,197,cs),
(48,81,o),
(120,0,o),
(231,0,cs)
);
}
);
width = 655;
}
);
metricLeft = "ke-canadian";
metricRight = "=|ne-canadian";
note = uni14D5;
unicode = 5333;
},
{
glyphname = "lo-canadian";
kernLeft = noleft;
lastChange = "2023-01-13 15:55:40 +0000";
layers = (
{
anchors = (
{
name = middle_center_can;
pos = (413,245);
},
{
name = top_center_can;
pos = (464,497);
},
{
name = top_double;
pos = (434,497);
},
{
name = top_left_can;
pos = (146,497);
},
{
name = top_right_can;
pos = (614,497);
}
);
layerId = "9563F490-07F6-43DA-A81C-32B2684714C2";
shapes = (
{
closed = 1;
nodes = (
(328,0,ls),
(516,0,o),
(606,135,o),
(606,281,cs),
(606,398,o),
(535,478,o),
(424,478,cs),
(407,478,l),
(389,398,l),
(405,398,ls),
(475,398,o),
(517,354,o),
(517,279,cs),
(517,195,o),
(470,82,o),
(335,82,cs),
(13,82,l),
(-5,0,l)
);
}
);
width = 654;
}
);
metricLeft = "ne-canadian";
metricRight = "=|ke-canadian";
note = uni14D7;
unicode = 5335;
},
{
glyphname = "la-canadian";
kernRight = naright;
lastChange = "2023-01-13 15:55:37 +0000";
layers = (
{
anchors = (
{
name = middle_center_can;
pos = (244,245);
},
{
name = top_center_can;
pos = (298,497);
},
{
name = top_left_can;
pos = (150,497);
},
{
name = top_right_can;
pos = (617,497);
}
);
layerId = "9563F490-07F6-43DA-A81C-32B2684714C2";
shapes = (
{
closed = 1;
nodes = (
(556,0,l),
(574,82,l),
(264,82,ls),
(182,82,o),
(137,125,o),
(137,200,cs),
(137,282,o),
(177,398,o),
(316,398,cs),
(331,398,l),
(349,478,l),
(327,478,ls),
(132,478,o),
(47,338,o),
(47,193,cs),
(47,74,o),
(122,0,o),
(246,0,cs)
);
}
);
width = 653;
}
);
metricLeft = "ke-canadian";
metricRight = "=|ne-canadian";
note = uni14DA;
unicode = 5338;
},
{
glyphname = "l-canadian";
kernLeft = mwestleft;
kernRight = mwestright;
lastChange = "2023-01-13 15:55:40 +0000";
layers = (
{
layerId = "9563F490-07F6-43DA-A81C-32B2684714C2";
shapes = (
{
closed = 1;
nodes = (
(360,345,l),
(374,404,l),
(242,404,ls),
(191,404,o),
(165,431,o),
(165,482,cs),
(165,545,o),
(192,631,o),
(288,631,cs),
(295,631,l),
(307,690,l),
(298,690,ls),
(156,690,o),
(102,578,o),
(102,476,cs),
(102,391,o),
(152,345,o),
(240,345,cs)
);
}
);
width = 370;
}
);
metricLeft = "t-canadian";
metricRight = "m-canadian";
note = uni14EA;
unicode = 5354;
},
{
glyphname = "lWestCree-canadian";
kernLeft = mwestleft;
kernRight = mwestright;
lastChange = "2023-01-13 15:55:37 +0000";
layers = (
{
layerId = "9563F490-07F6-43DA-A81C-32B2684714C2";
shapes = (
{
closed = 1;
nodes = (
(264,345,l),
(271,384,l),
(140,457,l),
(133,424,l),
(297,499,l),
(302,529,l),
(169,598,l),
(163,569,l),
(327,642,l),
(337,690,l),
(326,690,l),
(127,601,l),
(122,577,l),
(256,505,l),
(261,529,l),
(96,458,l),
(91,434,l),
(252,345,l)
);
}
);
width = 291;
}
);
metricRight = "=|";
note = uni14EB;
unicode = 5355;
},
{
glyphname = "mediall-canadian";
lastChange = "2023-01-13 15:55:37 +0000";
layers = (
{
layerId = "9563F490-07F6-43DA-A81C-32B2684714C2";
shapes = (
{
closed = 1;
nodes = (
(401,-13,l),
(414,48,l),
(128,205,l),
(119,162,l),
(471,319,l),
(480,360,l),
(192,507,l),
(183,470,l),
(537,628,l),
(553,702,l),
(529,702,l),
(115,518,l),
(107,480,l),
(395,328,l),
(402,361,l),
(49,210,l),
(42,172,l),
(378,-13,l)
);
}
);
width = 510;
}
);
metricRight = "=|";
note = uni14EC;
unicode = 5356;
},
{
glyphname = "se-canadian";
kernRight = seright;
lastChange = "2023-01-13 15:55:37 +0000";
layers = (
{
anchors = (
{
name = top_left_can;
pos = (199,690);
},
{
name = top_right_can;
pos = (430,690);
}
);
layerId = "9563F490-07F6-43DA-A81C-32B2684714C2";
shapes = (
{
closed = 1;
nodes = (
(327,0,l),
(398,331,l),
(372,331,ls),
(238,331,o),
(181,391,o),
(214,551,cs),
(244,690,l),
(155,690,l),
(125,553,ls),
(82,353,o),
(170,249,o),
(352,249,cs),
(365,249,l),
(298,279,l),
(238,0,l)
);
}
);
width = 439;
}
);
note = uni14ED;
unicode = 5357;
},
{
glyphname = "si-canadian";
kernLeft = sileft;
lastChange = "2023-01-13 15:55:40 +0000";
layers = (
{
anchors = (
{
name = top_left_can;
pos = (203,690);
},
{
name = top_right_can;
pos = (433,690);
}
);
layerId = "9563F490-07F6-43DA-A81C-32B2684714C2";
shapes = (
{
closed = 1;
nodes = (
(101,0,l),
(160,280,l),
(86,249,l),
(121,249,ls),
(300,249,o),
(402,335,o),
(445,539,cs),
(477,690,l),
(387,690,l),
(357,545,ls),
(325,401,o),
(251,331,o),
(127,331,cs),
(81,331,l),
(11,0,l)
);
}
);
width = 439;
}
);
metricLeft = "=|se-canadian";
metricRight = "=|se-canadian";
note = uni14EF;
unicode = 5359;
},
{
glyphname = "so-canadian";
kernRight = soright;
lastChange = "2023-01-13 15:55:40 +0000";
layers = (
{
anchors = (
{
name = top_double;
pos = (429,690);
},
{
name = top_left_can;
pos = (199,690);
},
{
name = top_right_can;
pos = (429,690);
}
);
layerId = "9563F490-07F6-43DA-A81C-32B2684714C2";
shapes = (
{
closed = 1;
nodes = (
(97,0,l),
(128,145,ls),
(159,289,o),
(233,358,o),
(358,358,cs),
(404,358,l),
(473,690,l),
(383,690,l),
(324,410,l),
(398,440,l),
(363,440,ls),
(184,440,o),
(82,355,o),
(39,151,cs),
(7,0,l)
);
}
);
width = 440;
}
);
metricLeft = "se-canadian";
metricRight = "se-canadian";
note = uni14F1;
unicode = 5361;
},
{
glyphname = "sa-canadian";
kernLeft = saleft;
kernRight = saright;
lastChange = "2023-01-13 15:55:40 +0000";
layers = (
{
anchors = (
{
name = top_left_can;
pos = (203,690);
},
{
name = top_right_can;
pos = (433,690);
}
);
layerId = "9563F490-07F6-43DA-A81C-32B2684714C2";
shapes = (
{
closed = 1;
nodes = (
(330,0,l),
(360,137,ls),
(403,337,o),
(315,440,o),
(133,440,cs),
(120,440,l),
(187,411,l),
(247,690,l),
(157,690,l),
(87,358,l),
(113,358,ls),
(247,358,o),
(304,298,o),
(270,139,cs),
(241,0,l)
);
}
);
width = 440;
}
);
metricLeft = "=|se-canadian";
metricRight = "=|se-canadian";
note = uni14F4;
unicode = 5364;
},
{
glyphname = "s-canadian";
kernLeft = mwestleft;
kernRight = mwestright;
lastChange = "2023-01-13 15:55:40 +0000";
layers = (
{
layerId = "9563F490-07F6-43DA-A81C-32B2684714C2";
shapes = (
{
closed = 1;
nodes = (
(259,345,l),
(274,421,ls),
(294,515,o),
(253,575,o),
(161,575,cs),
(144,575,l),
(177,547,l),
(207,690,l),
(145,690,l),
(110,525,l),
(141,525,ls),
(206,525,o),
(227,490,o),
(213,420,cs),
(197,345,l)
);
}
);
width = 285;
}
);
metricRight = "=|";
note = uni1505;
unicode = 5381;
},
{
color = 6;
glyphname = "sAthapascan-canadian";
lastChange = "2023-01-13 15:55:40 +0000";
layers = (
{
layerId = "9563F490-07F6-43DA-A81C-32B2684714C2";
shapes = (
{
closed = 1;
nodes = (
(229,177,o),
(271,221,o),
(271,283,cs),
(271,324,o),
(252,352,o),
(213,369,cs),
(184,382,ls),
(161,392,o),
(150,409,o),
(150,429,cs),
(150,463,o),
(170,486,o),
(206,486,cs),
(239,486,o),
(254,469,o),
(245,425,c),
(302,425,l),
(315,492,o),
(275,533,o),
(210,533,cs),
(133,533,o),
(93,488,o),
(93,424,cs),
(93,387,o),
(113,356,o),
(150,340,cs),
(179,327,ls),
(205,315,o),
(214,300,o),
(214,279,cs),
(214,245,o),
(194,224,o),
(159,224,cs),
(124,224,o),
(105,241,o),
(116,287,c),
(59,287,l),
(45,217,o),
(86,177,o),
(157,177,cs)
);
}
);
width = 314;
}
);
metricRight = "=|";
note = uni1506;
unicode = 5382;
},
{
glyphname = "sw-canadian";
kernLeft = mwestleft;
kernRight = mwestright;
lastChange = "2023-01-13 15:55:37 +0000";
layers = (
{
layerId = "9563F490-07F6-43DA-A81C-32B2684714C2";
shapes = (
{
closed = 1;
nodes = (
(133,345,l),
(150,419,ls),
(165,494,o),
(200,525,o),
(266,525,cs),
(297,525,l),
(331,690,l),
(270,690,l),
(241,551,l),
(285,575,l),
(255,575,ls),
(163,575,o),
(110,526,o),
(89,425,cs),
(72,345,l)
);
}
);
width = 285;
}
);
metricLeft = "=|s-canadian";
metricRight = "=|s-canadian";
note = uni1507;
unicode = 5383;
},
{
glyphname = "sBlackfoot-canadian";
lastChange = "2023-01-13 15:55:40 +0000";
layers = (
{
layerId = "9563F490-07F6-43DA-A81C-32B2684714C2";
shapes = (
{
closed = 1;
nodes = (
(265,345,l),
(277,404,l),
(213,404,ls),
(168,404,o),
(151,427,o),
(161,476,cs),
(207,690,l),
(145,690,l),
(101,482,ls),
(82,396,o),
(122,345,o),
(206,345,cs)
);
}
);
width = 273;
}
);
metricLeft = "ai-canadian";
metricRight = "m-canadian";
note = uni1508;
unicode = 5384;
},
{
glyphname = "moosecreesk-canadian";
kernLeft = mwestleft;
kernRight = mwestright;
lastChange = "2023-01-13 15:55:37 +0000";
layers = (
{
layerId = "9563F490-07F6-43DA-A81C-32B2684714C2";
shapes = (
{
closed = 1;
nodes = (
(263,217,o),
(292,351,o),
(292,437,cs),
(292,527,o),
(249,576,o),
(164,576,cs),
(153,576,l),
(177,549,l),
(207,690,l),
(145,690,l),
(110,526,l),
(142,526,ls),
(225,526,o),
(238,490,o),
(235,418,c),
(244,411,l),
(245,440,o),
(233,477,o),
(184,477,cs),
(100,477,o),
(71,372,o),
(71,317,cs),
(71,256,o),
(103,217,o),
(161,217,cs)
);
},
{
closed = 1;
nodes = (
(139,264,o),
(126,282,o),
(126,314,cs),
(126,350,o),
(144,433,o),
(192,433,cs),
(217,433,o),
(230,415,o),
(230,384,cs),
(230,348,o),
(212,264,o),
(164,264,cs)
);
}
);
width = 308;
}
);
metricRight = "=|";
note = uni1509;
unicode = 5385;
},
{
glyphname = "skwNaskapi-canadian";
kernLeft = mwestleft;
kernRight = mwestright;
lastChange = "2023-01-13 15:55:37 +0000";
layers = (
{
layerId = "9563F490-07F6-43DA-A81C-32B2684714C2";
shapes = (
{
closed = 1;
nodes = (
(249,217,o),
(285,320,o),
(285,384,cs),
(285,441,o),
(258,477,o),
(212,477,cs),
(175,477,o),
(145,453,o),
(134,414,c),
(150,417,l),
(177,492,o),
(212,526,o),
(289,526,cs),
(320,526,l),
(355,690,l),
(293,690,l),
(263,548,l),
(301,576,l),
(284,576,ls),
(126,576,o),
(73,413,o),
(73,320,cs),
(73,259,o),
(103,217,o),
(162,217,cs)
);
},
{
closed = 1;
nodes = (
(139,264,o),
(128,282,o),
(128,314,cs),
(128,350,o),
(145,433,o),
(192,433,cs),
(217,433,o),
(230,415,o),
(230,384,cs),
(230,348,o),
(212,264,o),
(165,264,cs)
);
}
);
width = 308;
}
);
metricLeft = "=|moosecreesk-canadian";
metricRight = "=|moosecreesk-canadian";
note = uni150A;
unicode = 5386;
},
{
glyphname = "swNaskapi-canadian";
lastChange = "2023-01-13 15:55:40 +0000";
layers = (
{
layerId = "9563F490-07F6-43DA-A81C-32B2684714C2";
shapes = (
{
closed = 1;
nodes = (
(242,182,l),
(254,244,ls),
(275,344,o),
(231,402,o),
(143,402,cs),
(125,402,l),
(152,375,l),
(181,509,l),
(119,509,l),
(86,353,l),
(120,353,ls),
(183,353,o),
(209,322,o),
(193,245,cs),
(180,182,l)
);
},
{
closed = 1;
nodes = (
(220,45,o),
(242,68,o),
(242,96,cs),
(242,125,o),
(220,147,o),
(192,147,cs),
(165,147,o),
(142,125,o),
(142,96,cs),
(142,68,o),
(165,45,o),
(192,45,cs)
);
},
{
closed = 1;
nodes = (
(196,543,o),
(218,566,o),
(218,594,cs),
(218,622,o),
(196,645,o),
(168,645,cs),
(141,645,o),
(119,622,o),
(119,594,cs),
(119,566,o),
(141,543,o),
(168,543,cs)
);
}
);
width = 316;
}
);
metricRight = "=|";
note = uni150B;
unicode = 5387;
},
{
glyphname = "spwaNaskapi-canadian";
lastChange = "2023-01-13 15:55:37 +0000";
layers = (
{
layerId = "9563F490-07F6-43DA-A81C-32B2684714C2";
shapes = (
{
closed = 1;
nodes = (
(435,0,l),
(451,75,l),
(142,356,l),
(134,315,l),
(561,596,l),
(582,690,l),
(557,690,l),
(56,361,l),
(48,328,l),
(411,0,l)
);
},
{
closed = 1;
nodes = (
(203,497,o),
(225,521,o),
(225,548,cs),
(225,577,o),
(203,599,o),
(175,599,cs),
(148,599,o),
(125,577,o),
(125,548,cs),
(125,521,o),
(148,497,o),
(175,497,cs)
);
},
{
closed = 1;
nodes = (
(364,604,l),
(377,660,ls),
(391,728,o),
(362,770,o),
(298,770,cs),
(273,770,l),
(312,747,l),
(333,846,l),
(274,846,l),
(248,723,l),
(270,723,ls),
(313,723,o),
(327,702,o),
(316,654,cs),
(306,604,l)
);
},
{
closed = 1;
nodes = (
(525,704,o),
(548,727,o),
(548,755,cs),
(548,783,o),
(525,806,o),
(497,806,cs),
(470,806,o),
(447,783,o),
(447,755,cs),
(447,727,o),
(470,704,o),
(497,704,cs)
);
}
);
width = 526;
}
);
metricRight = "pa-canadian";
metricWidth = "pa-canadian";
note = uni150C;
unicode = 5388;
},
{
glyphname = "she-canadian";
kernRight = caright;
lastChange = "2023-01-13 15:55:40 +0000";
layers = (
{
anchors = (
{
name = top_left_can;
pos = (328,690);
},
{
name = top_right_can;
pos = (657,690);
}
);
layerId = "9563F490-07F6-43DA-A81C-32B2684714C2";
shapes = (
{
closed = 1;
nodes = (
(580,-13,o),
(644,61,o),
(675,211,cs),
(695,302,l),
(606,302,l),
(583,201,ls),
(564,106,o),
(532,67,o),
(476,67,cs),
(414,67,o),
(393,116,o),
(410,211,cs),
(453,458,ls),
(480,616,o),
(424,702,o),
(306,702,cs),
(196,702,o),
(132,629,o),
(100,479,cs),
(81,387,l),
(171,387,l),
(192,489,ls),
(213,583,o),
(244,623,o),
(299,623,cs),
(362,623,o),
(384,574,o),
(367,479,cs),
(324,232,ls),
(297,73,o),
(352,-13,o),
(469,-13,cs)
);
}
);
width = 731;
}
);
metricRight = "=|";
note = uni1510;
unicode = 5392;
},
{
glyphname = "shi-canadian";
kernLeft = coleft;
lastChange = "2023-01-13 15:55:40 +0000";
layers = (
{
anchors = (
{
name = top_left_can;
pos = (269,690);
},
{
name = top_right_can;
pos = (596,690);
}
);
layerId = "9563F490-07F6-43DA-A81C-32B2684714C2";
shapes = (
{
closed = 1;
nodes = (
(298,-13,o),
(358,49,o),
(401,217,cs),
(466,478,ls),
(495,588,o),
(523,623,o),
(580,623,cs),
(640,623,o),
(664,573,o),
(641,473,cs),
(623,387,l),
(713,387,l),
(726,451,ls),
(760,604,o),
(706,702,o),
(584,702,cs),
(478,702,o),
(419,640,o),
(377,472,cs),
(310,211,ls),
(282,101,o),
(254,67,o),
(196,67,cs),
(136,67,o),
(113,116,o),
(134,215,cs),
(153,302,l),
(64,302,l),
(49,239,ls),
(16,85,o),
(71,-13,o),
(191,-13,cs)
);
}
);
width = 731;
}
);
metricLeft = "she-canadian";
metricRight = "she-canadian";
note = uni1511;
unicode = 5393;
},
{
glyphname = "sho-canadian";
lastChange = "2023-01-13 15:55:37 +0000";
layers = (
{
anchors = (
{
name = top_center_can;
pos = (429,497);
},
{
name = top_left_can;
pos = (286,497);
},
{
name = top_right_can;
pos = (571,497);
}
);
layerId = "9563F490-07F6-43DA-A81C-32B2684714C2";
shapes = (
{
closed = 1;
nodes = (
(255,67,l),
(175,68,o),
(125,103,o),
(125,162,cs),
(125,222,o),
(159,275,o),
(227,275,cs),
(333,275,o),
(384,122,o),
(529,122,cs),
(646,122,o),
(713,213,o),
(713,318,cs),
(713,421,o),
(633,489,o),
(511,492,c),
(494,412,l),
(575,411,o),
(626,375,o),
(626,316,cs),
(626,257,o),
(590,203,o),
(524,203,cs),
(417,203,o),
(366,357,o),
(221,357,cs),
(100,357,o),
(38,262,o),
(38,161,cs),
(38,57,o),
(118,-11,o),
(238,-13,c)
);
}
);
width = 751;
}
);
metricLeft = "ke-canadian";
metricRight = "=|ke-canadian";
note = uni1513;
unicode = 5395;
},
{
glyphname = "sha-canadian";
lastChange = "2023-01-13 15:55:37 +0000";
layers = (
{
anchors = (
{
name = top_center_can;
pos = (431,497);
},
{
name = top_left_can;
pos = (288,497);
},
{
name = top_right_can;
pos = (573,497);
}
);
layerId = "9563F490-07F6-43DA-A81C-32B2684714C2";
shapes = (
{
closed = 1;
nodes = (
(576,-15,o),
(690,66,o),
(690,210,cs),
(690,297,o),
(634,357,o),
(545,357,cs),
(413,357,o),
(313,203,o),
(221,203,cs),
(178,203,o),
(151,231,o),
(151,276,cs),
(151,368,o),
(224,412,o),
(318,412,c),
(334,492,l),
(175,494,o),
(61,412,o),
(61,269,cs),
(61,182,o),
(117,122,o),
(206,122,cs),
(336,122,o),
(438,275,o),
(528,275,cs),
(573,275,o),
(600,247,o),
(600,202,cs),
(600,110,o),
(527,66,o),
(433,67,c),
(416,-13,l)
);
}
);
width = 751;
}
);
metricLeft = "ke-canadian";
metricRight = "=|ke-canadian";
note = uni1515;
unicode = 5397;
},
{
glyphname = "sh-canadian";
kernLeft = mwestleft;
kernRight = mwestright;
lastChange = "2023-01-13 15:55:40 +0000";
layers = (
{
layerId = "9563F490-07F6-43DA-A81C-32B2684714C2";
shapes = (
{
closed = 1;
nodes = (
(478,286,o),
(567,348,o),
(567,459,cs),
(567,525,o),
(524,572,o),
(451,572,cs),
(361,572,o),
(299,476,o),
(232,476,cs),
(194,476,o),
(173,497,o),
(173,532,cs),
(173,600,o),
(230,642,o),
(315,639,c),
(326,697,l),
(201,700,o),
(110,639,o),
(110,527,cs),
(110,461,o),
(155,414,o),
(227,414,cs),
(317,414,o),
(379,510,o),
(446,510,cs),
(484,510,o),
(504,489,o),
(504,454,cs),
(504,389,o),
(450,344,o),
(365,347,c),
(354,289,l)
);
}
);
width = 570;
}
);
metricLeft = "t-canadian";
metricRight = "=|";
note = uni1525;
unicode = 5413;
},
{
glyphname = "ye-canadian";
kernLeft = yeleft;
lastChange = "2023-01-13 15:55:37 +0000";
layers = (
{
anchors = (
{
name = middle_right_can;
pos = (526,345);
},
{
name = top_left_can;
pos = (178,690);
},
{
name = top_right_can;
pos = (456,690);
}
);
layerId = "9563F490-07F6-43DA-A81C-32B2684714C2";
shapes = (
{
closed = 1;
nodes = (
(355,0,l),
(423,323,l),
(165,323,l),
(170,294,l),
(501,647,l),
(440,701,l),
(43,272,l),
(37,242,l),
(316,242,l),
(264,0,l)
);
}
);
width = 463;
}
);
note = uni1526;
unicode = 5414;
},
{
glyphname = "yi-canadian";
kernRight = yiright;
lastChange = "2023-01-13 15:55:37 +0000";
layers = (
{
anchors = (
{
name = top_left_can;
pos = (200,690);
},
{
name = top_right_can;
pos = (479,690);
}
);
layerId = "9563F490-07F6-43DA-A81C-32B2684714C2";
shapes = (
{
closed = 1;
nodes = (
(97,0,l),
(148,242,l),
(427,242,l),
(434,272,l),
(203,701,l),
(130,661,l),
(329,297,l),
(333,323,l),
(74,323,l),
(6,0,l)
);
}
);
width = 463;
}
);
metricRight = "=|ye-canadian";
metricWidth = "ye-canadian";
note = uni1528;
unicode = 5416;
},
{
glyphname = "yo-canadian";
kernLeft = yoleft;
lastChange = "2023-01-13 15:55:40 +0000";
layers = (
{
anchors = (
{
name = middle_right_can;
pos = (527,345);
},
{
name = top_double;
pos = (457,690);
},
{
name = top_left_can;
pos = (178,690);
},
{
name = top_right_can;
pos = (457,690);
}
);
layerId = "9563F490-07F6-43DA-A81C-32B2684714C2";
shapes = (
{
closed = 1;
nodes = (
(378,29,l),
(179,393,l),
(175,367,l),
(433,367,l),
(502,690,l),
(412,690,l),
(360,447,l),
(81,447,l),
(74,417,l),
(305,-12,l)
);
}
);
width = 463;
}
);
metricLeft = "ye-canadian";
metricWidth = "ye-canadian";
note = uni152A;
unicode = 5418;
},
{
glyphname = "ya-canadian";
kernRight = yaright;
lastChange = "2023-01-13 15:55:37 +0000";
layers = (
{
anchors = (
{
name = top_left_can;
pos = (198,690);
},
{
name = top_right_can;
pos = (477,690);
}
);
layerId = "9563F490-07F6-43DA-A81C-32B2684714C2";
shapes = (
{
closed = 1;
nodes = (
(465,417,l),
(470,447,l),
(191,447,l),
(243,690,l),
(153,690,l),
(84,367,l),
(343,367,l),
(337,396,l),
(6,43,l),
(68,-12,l)
);
}
);
width = 463;
}
);
metricRight = "=|ye-canadian";
metricWidth = "ye-canadian";
note = uni152D;
unicode = 5421;
},
{
glyphname = "y-canadian";
kernLeft = mwestleft;
kernRight = mwestright;
lastChange = "2023-01-13 15:55:37 +0000";
layers = (
{
layerId = "9563F490-07F6-43DA-A81C-32B2684714C2";
shapes = (
{
closed = 1;
nodes = (
(315,549,l),
(320,568,l),
(185,568,l),
(211,690,l),
(150,690,l),
(112,516,l),
(245,516,l),
(243,553,l),
(77,373,l),
(121,336,l)
);
}
);
width = 276;
}
);
note = uni153E;
unicode = 5438;
},
{
glyphname = "biblecreey-canadian";
lastChange = "2023-01-13 15:55:40 +0000";
layers = (
{
layerId = "9563F490-07F6-43DA-A81C-32B2684714C2";
shapes = (
{
closed = 1;
nodes = (
(121,345,l),
(231,622,l),
(197,623,l),
(215,345,l),
(251,345,l),
(387,622,l),
(353,622,l),
(346,345,l),
(401,345,l),
(404,361,l),
(411,690,l),
(365,690,l),
(223,404,l),
(263,404,l),
(244,690,l),
(200,690,l),
(66,361,l),
(62,345,l)
);
}
);
width = 417;
}
);
metricRight = "=|";
note = uni153F;
unicode = 5439;
},
{
glyphname = "yWestCree-canadian";
lastChange = "2023-01-13 15:55:37 +0000";
layers = (
{
layerId = "9563F490-07F6-43DA-A81C-32B2684714C2";
shapes = (
{
closed = 1;
nodes = (
(202,209,l),
(227,327,l),
(327,327,l),
(340,385,l),
(240,385,l),
(264,499,l),
(206,499,l),
(182,385,l),
(80,385,l),
(68,327,l),
(168,327,l),
(144,209,l)
);
}
);
width = 358;
}
);
metricLeft = "shorthorizontalstrokeFinal-canadian";
metricRight = "shorthorizontalstrokeFinal-canadian";
note = uni1540;
unicode = 5440;
},
{
glyphname = "re-canadian";
kernRight = niright;
lastChange = "2023-01-13 15:55:40 +0000";
layers = (
{
anchors = (
{
name = top_center_can;
pos = (299,497);
},
{
name = top_left_can;
pos = (157,497);
},
{
name = top_right_can;
pos = (651,497);
}
);
layerId = "9563F490-07F6-43DA-A81C-32B2684714C2";
shapes = (
{
closed = 1;
nodes = (
(324,-13,o),
(392,53,o),
(423,200,cs),
(466,396,l),
(674,396,l),
(692,478,l),
(394,478,l),
(334,196,ls),
(315,105,o),
(279,67,o),
(218,67,cs),
(151,67,o),
(122,115,o),
(141,204,cs),
(199,478,l),
(109,478,l),
(54,219,ls),
(23,77,o),
(85,-13,o),
(214,-13,cs)
);
}
);
width = 687;
}
);
metricRight = "=|ne-canadian";
note = uni1542;
unicode = 5442;
},
{
glyphname = "reRCree-canadian";
kernLeft = neleft;
lastChange = "2023-01-13 15:55:37 +0000";
layers = (
{
anchors = (
{
name = top_center_can;
pos = (496,497);
},
{
name = top_left_can;
pos = (146,497);
},
{
name = top_right_can;
pos = (639,497);
}
);
layerId = "9563F490-07F6-43DA-A81C-32B2684714C2";
shapes = (
{
closed = 1;
nodes = (
(521,-13,o),
(589,53,o),
(620,200,cs),
(680,478,l),
(589,478,l),
(529,196,ls),
(509,105,o),
(473,67,o),
(413,67,cs),
(345,67,o),
(317,115,o),
(336,204,cs),
(394,478,l),
(97,478,l),
(79,396,l),
(289,396,l),
(251,219,ls),
(220,78,o),
(282,-13,o),
(412,-13,cs)
);
}
);
width = 687;
}
);
metricLeft = "ne-canadian";
metricRight = "=|re-canadian";
note = uni1543;
unicode = 5443;
},
{
glyphname = "leWestCree-canadian";
kernLeft = noleft;
lastChange = "2023-01-13 15:55:40 +0000";
layers = (
{
anchors = (
{
name = top_center_can;
pos = (497,497);
},
{
name = top_left_can;
pos = (145,497);
},
{
name = top_right_can;
pos = (639,497);
}
);
layerId = "9563F490-07F6-43DA-A81C-32B2684714C2";
shapes = (
{
closed = 1;
nodes = (
(293,0,l),
(353,283,ls),
(373,374,o),
(409,412,o),
(469,412,cs),
(537,412,o),
(565,364,o),
(546,274,cs),
(488,0,l),
(578,0,l),
(633,259,ls),
(664,401,o),
(602,492,o),
(473,492,cs),
(363,492,o),
(296,425,o),
(264,278,cs),
(222,82,l),
(13,82,l),
(-5,0,l)
);
}
);
width = 687;
}
);
metricLeft = "ne-canadian";
metricRight = "=|re-canadian";
note = uni1544;
unicode = 5444;
},
{
glyphname = "ri-canadian";
kernRight = naright;
lastChange = "2023-01-13 15:55:40 +0000";
layers = (
{
anchors = (
{
name = top_center_can;
pos = (299,497);
},
{
name = top_left_can;
pos = (156,497);
},
{
name = top_right_can;
pos = (650,497);
}
);
layerId = "9563F490-07F6-43DA-A81C-32B2684714C2";
shapes = (
{
closed = 1;
nodes = (
(97,0,l),
(157,283,ls),
(177,374,o),
(212,412,o),
(274,412,cs),
(341,412,o),
(369,363,o),
(351,274,cs),
(292,0,l),
(589,0,l),
(607,82,l),
(398,82,l),
(436,259,ls),
(466,401,o),
(404,492,o),
(280,492,cs),
(165,492,o),
(98,425,o),
(66,278,cs),
(7,0,l)
);
}
);
width = 686;
}
);
metricLeft = "re-canadian";
metricRight = "=|ne-canadian";
note = uni1546;
unicode = 5446;
},
{
glyphname = "ro-canadian";
lastChange = "2023-01-13 15:55:40 +0000";
layers = (
{
anchors = (
{
name = top_center_can;
pos = (290,690);
}
);
layerId = "9563F490-07F6-43DA-A81C-32B2684714C2";
shapes = (
{
closed = 1;
nodes = (
(100,0,l),
(160,283,l),
(118,243,l),
(191,243,ls),
(385,243,o),
(447,389,o),
(447,511,cs),
(447,621,o),
(380,690,o),
(264,690,cs),
(158,690,l),
(141,609,l),
(247,609,ls),
(320,609,o),
(358,572,o),
(358,504,cs),
(358,414,o),
(312,323,o),
(187,323,cs),
(78,323,l),
(10,0,l)
);
}
);
width = 441;
}
);
metricLeft = "nunavuth-canadian";
note = uni1548;
unicode = 5448;
},
{
glyphname = "loWestCree-canadian";
lastChange = "2023-01-13 15:55:40 +0000";
layers = (
{
anchors = (
{
name = top_center_can;
pos = (301,690);
},
{
name = top_left_can;
pos = (202,690);
}
);
layerId = "9563F490-07F6-43DA-A81C-32B2684714C2";
shapes = (
{
closed = 1;
nodes = (
(140,0,ls),
(333,0,o),
(396,146,o),
(396,268,cs),
(396,378,o),
(328,446,o),
(213,446,cs),
(156,446,l),
(186,406,l),
(246,690,l),
(157,690,l),
(88,367,l),
(196,367,ls),
(269,367,o),
(307,330,o),
(307,263,cs),
(307,173,o),
(261,82,o),
(136,82,cs),
(27,82,l),
(10,0,l)
);
}
);
width = 442;
}
);
metricLeft = "nunavuth-canadian";
metricRight = "ro-canadian";
note = uni154A;
unicode = 5450;
},
{
glyphname = "ra-canadian";
lastChange = "2023-01-13 15:55:40 +0000";
layers = (
{
anchors = (
{
name = top_center_can;
pos = (343,690);
},
{
name = top_right_can;
pos = (431,690);
}
);
layerId = "9563F490-07F6-43DA-A81C-32B2684714C2";
shapes = (
{
closed = 1;
nodes = (
(330,0,l),
(399,323,l),
(291,323,ls),
(218,323,o),
(180,359,o),
(180,427,cs),
(180,517,o),
(226,608,o),
(351,608,cs),
(460,608,l),
(477,690,l),
(347,690,ls),
(154,690,o),
(91,544,o),
(91,422,cs),
(91,312,o),
(158,243,o),
(274,243,cs),
(331,243,l),
(300,284,l),
(240,0,l)
);
}
);
width = 442;
}
);
metricLeft = "=|ro-canadian";
metricRight = "nunavuth-canadian";
note = uni154B;
unicode = 5451;
},
{
glyphname = "laWestCree-canadian";
lastChange = "2023-01-13 15:55:40 +0000";
layers = (
{
anchors = (
{
name = top_center_can;
pos = (431,690);
}
);
layerId = "9563F490-07F6-43DA-A81C-32B2684714C2";
shapes = (
{
closed = 1;
nodes = (
(328,0,l),
(346,81,l),
(239,81,ls),
(166,81,o),
(127,118,o),
(127,185,cs),
(127,275,o),
(174,367,o),
(298,367,cs),
(408,367,l),
(476,690,l),
(386,690,l),
(326,407,l),
(369,446,l),
(295,446,ls),
(101,446,o),
(39,300,o),
(39,179,cs),
(39,69,o),
(106,0,o),
(222,0,cs)
);
}
);
width = 441;
}
);
metricLeft = "=|ro-canadian";
metricRight = "nunavuth-canadian";
note = uni154D;
unicode = 5453;
},
{
glyphname = "r-canadian";
kernLeft = mwestleft;
kernRight = mwestright;
lastChange = "2023-01-13 15:55:37 +0000";
layers = (
{
layerId = "9563F490-07F6-43DA-A81C-32B2684714C2";
shapes = (
{
closed = 1;
nodes = (
(235,345,l),
(270,514,l),
(224,514,ls),
(189,514,o),
(171,531,o),
(171,561,cs),
(171,600,o),
(189,639,o),
(250,639,cs),
(297,639,l),
(308,690,l),
(260,690,ls),
(164,690,o),
(112,639,o),
(112,559,cs),
(112,503,o),
(150,464,o),
(213,464,cs),
(236,464,l),
(202,481,l),
(173,345,l)
);
}
);
width = 262;
}
);
metricLeft = "=|k-canadian";
note = uni1550;
unicode = 5456;
},
{
glyphname = "rWestCree-canadian";
kernLeft = mwestleft;
kernRight = mwestright;
lastChange = "2023-01-13 15:55:40 +0000";
layers = (
{
layerId = "9563F490-07F6-43DA-A81C-32B2684714C2";
shapes = (
{
closed = 1;
nodes = (
(146,690,l),
(138,651,l),
(270,578,l),
(276,611,l),
(113,535,l),
(107,505,l),
(240,437,l),
(246,466,l),
(83,392,l),
(72,345,l),
(84,345,l),
(283,434,l),
(288,458,l),
(154,529,l),
(149,505,l),
(314,577,l),
(319,601,l),
(157,690,l)
);
}
);
width = 291;
}
);
metricLeft = "=|lWestCree-canadian";
metricRight = "=|lWestCree-canadian";
note = uni1551;
unicode = 5457;
},
{
glyphname = "rMedial-canadian";
lastChange = "2023-01-13 15:55:40 +0000";
layers = (
{
layerId = "9563F490-07F6-43DA-A81C-32B2684714C2";
shapes = (
{
closed = 1;
nodes = (
(25,-13,l),
(440,172,l),
(448,210,l),
(159,361,l),
(153,328,l),
(505,480,l),
(513,518,l),
(177,702,l),
(154,702,l),
(141,641,l),
(427,485,l),
(437,527,l),
(83,371,l),
(74,329,l),
(363,183,l),
(372,219,l),
(18,62,l),
(3,-13,l)
);
}
);
width = 509;
}
);
metricLeft = "mediall-canadian";
metricRight = "mediall-canadian";
note = uni1552;
unicode = 5458;
},
{
glyphname = "fe-canadian";
kernLeft = ecanleft;
kernRight = ecanright;
lastChange = "2023-01-13 15:55:37 +0000";
layers = (
{
layerId = "9563F490-07F6-43DA-A81C-32B2684714C2";
shapes = (
{
closed = 1;
nodes = (
(267,0,l),
(687,665,l),
(693,690,l),
(617,690,l),
(257,102,l),
(276,102,l),
(222,360,l),
(178,355,l),
(193,335,o),
(217,323,o),
(251,323,cs),
(369,323,o),
(419,479,o),
(419,565,cs),
(419,648,o),
(378,702,o),
(302,702,cs),
(182,702,o),
(133,556,o),
(133,454,cs),
(133,423,o),
(138,393,o),
(148,358,cs),
(236,0,l)
);
},
{
closed = 1;
nodes = (
(220,382,o),
(203,409,o),
(203,456,cs),
(203,511,o),
(228,637,o),
(298,637,cs),
(331,637,o),
(350,611,o),
(350,563,cs),
(350,508,o),
(325,382,o),
(255,382,cs)
);
}
);
width = 621;
}
);
metricRight = "e-canadian";
note = uni1553;
unicode = 5459;
},
{
glyphname = "fi-canadian";
kernLeft = icanleft;
kernRight = icanright;
lastChange = "2023-01-13 15:55:37 +0000";
layers = (
{
anchors = (
{
name = top_center_can;
pos = (393,690);
},
{
name = top_left_can;
pos = (209,690);
},
{
name = top_right_can;
pos = (600,690);
}
);
layerId = "9563F490-07F6-43DA-A81C-32B2684714C2";
shapes = (
{
closed = 1;
nodes = (
(303,-13,o),
(346,137,o),
(346,225,cs),
(346,313,o),
(304,368,o),
(240,368,cs),
(216,368,o),
(189,357,o),
(165,336,c),
(219,337,l),
(386,587,l),
(364,587,l),
(482,0,l),
(545,0,l),
(550,25,l),
(409,690,l),
(378,690,l),
(136,341,ls),
(91,275,o),
(62,204,o),
(62,124,cs),
(62,41,o),
(104,-13,o),
(179,-13,cs)
);
},
{
closed = 1;
nodes = (
(149,53,o),
(131,79,o),
(131,127,cs),
(131,182,o),
(156,308,o),
(227,308,cs),
(261,308,o),
(277,280,o),
(277,231,cs),
(277,174,o),
(251,53,o),
(184,53,cs)
);
}
);
width = 620;
}
);
metricLeft = "fe-canadian";
metricRight = "e-canadian";
note = uni1555;
unicode = 5461;
},
{
glyphname = "fo-canadian";
kernLeft = ocanleft;
kernRight = ocanright;
lastChange = "2023-01-13 15:55:37 +0000";
layers = (
{
anchors = (
{
name = top_center_can;
pos = (277,690);
}
);
layerId = "9563F490-07F6-43DA-A81C-32B2684714C2";
shapes = (
{
closed = 1;
nodes = (
(43,0,l),
(539,328,l),
(546,361,l),
(368,641,ls),
(344,679,o),
(314,702,o),
(267,702,cs),
(161,702,o),
(108,578,o),
(99,484,cs),
(89,384,o),
(132,318,o),
(210,318,cs),
(307,318,o),
(364,436,o),
(373,529,cs),
(375,561,o),
(374,590,o),
(370,611,c),
(335,561,l),
(475,343,l),
(483,377,l),
(38,81,l),
(20,0,l)
);
},
{
closed = 1;
nodes = (
(182,383,o),
(164,416,o),
(169,478,cs),
(174,542,o),
(198,639,o),
(262,639,cs),
(298,639,o),
(315,606,o),
(311,544,cs),
(306,480,o),
(282,383,o),
(218,383,cs)
);
}
);
width = 549;
}
);
metricRight = "o-canadian";
note = uni1557;
unicode = 5463;
},
{
glyphname = "fa-canadian";
kernLeft = acanleft;
kernRight = acanright;
lastChange = "2023-01-13 15:55:37 +0000";
layers = (
{
anchors = (
{
name = top_center_can;
pos = (466,690);
}
);
layerId = "9563F490-07F6-43DA-A81C-32B2684714C2";
shapes = (
{
closed = 1;
nodes = (
(428,0,l),
(442,68,l),
(129,356,l),
(125,334,l),
(354,558,l),
(334,625,l),
(300,569,o),
(285,502,o),
(285,454,cs),
(285,370,o),
(329,316,o),
(404,316,cs),
(518,316,o),
(568,470,o),
(568,561,cs),
(568,649,o),
(524,702,o),
(454,702,cs),
(414,702,o),
(380,686,o),
(344,650,cs),
(55,361,l),
(48,328,l),
(405,0,l)
);
},
{
closed = 1;
nodes = (
(370,381,o),
(353,408,o),
(353,455,cs),
(353,510,o),
(378,637,o),
(447,637,cs),
(481,637,o),
(499,611,o),
(499,563,cs),
(499,508,o),
(474,381,o),
(404,381,cs)
);
}
);
width = 551;
}
);
metricRight = "=|fo-canadian";
note = uni1559;
unicode = 5465;
},
{
glyphname = "f-canadian";
kernLeft = mwestleft;
kernRight = mwestright;
lastChange = "2023-01-13 15:55:37 +0000";
layers = (
{
layerId = "9563F490-07F6-43DA-A81C-32B2684714C2";
shapes = (
{
closed = 1;
nodes = (
(287,345,l),
(295,386,l),
(144,526,l),
(143,513,l),
(249,619,l),
(245,659,l),
(230,636,o),
(217,595,o),
(217,568,cs),
(217,528,o),
(240,501,o),
(274,501,cs),
(330,501,o),
(356,575,o),
(356,627,cs),
(356,670,o),
(337,696,o),
(301,696,cs),
(281,696,o),
(264,687,o),
(244,668,cs),
(100,526,l),
(97,507,l),
(274,345,l)
);
},
{
closed = 1;
nodes = (
(260,537,o),
(252,549,o),
(252,570,cs),
(252,595,o),
(265,660,o),
(297,660,cs),
(311,660,o),
(320,649,o),
(320,628,cs),
(320,603,o),
(307,537,o),
(275,537,cs)
);
}
);
width = 323;
}
);
note = uni155D;
unicode = 5469;
},
{
glyphname = "the-canadian";
lastChange = "2023-01-13 15:55:37 +0000";
layers = (
{
anchors = (
{
name = middle_right_can;
pos = (664,345);
},
{
name = top_center_can;
pos = (392,690);
},
{
name = top_left_can;
pos = (198,690);
},
{
name = top_right_can;
pos = (584,690);
}
);
layerId = "9563F490-07F6-43DA-A81C-32B2684714C2";
shapes = (
{
closed = 1;
nodes = (
(412,-13,o),
(496,63,o),
(530,226,cs),
(630,690,l),
(539,690,l),
(442,235,ls),
(418,122,o),
(366,71,o),
(274,71,cs),
(147,71,o),
(128,154,o),
(152,264,cs),
(187,426,l),
(143,404,l),
(147,358,o),
(175,315,o),
(225,315,cs),
(337,315,o),
(386,440,o),
(397,538,cs),
(409,639,o),
(366,702,o),
(281,702,cs),
(197,702,o),
(142,636,o),
(115,511,cs),
(65,272,ls),
(30,106,o),
(88,-13,o),
(270,-13,cs)
);
},
{
closed = 1;
nodes = (
(199,381,o),
(182,408,o),
(182,455,cs),
(182,510,o),
(208,637,o),
(277,637,cs),
(311,637,o),
(328,611,o),
(328,563,cs),
(328,507,o),
(303,381,o),
(234,381,cs)
);
}
);
width = 591;
}
);
metricLeft = "te-canadian";
metricRight = "te-canadian";
note = uni155E;
unicode = 5470;
},
{
glyphname = "theNCree-canadian";
lastChange = "2023-01-13 15:55:37 +0000";
layers = (
{
layerId = "9563F490-07F6-43DA-A81C-32B2684714C2";
shapes = (
{
closed = 1;
nodes = (
(413,-13,o),
(495,66,o),
(532,239,cs),
(585,490,ls),
(615,629,o),
(562,702,o),
(480,702,cs),
(360,702,o),
(312,556,o),
(312,456,cs),
(312,376,o),
(351,315,o),
(424,315,cs),
(465,315,o),
(504,342,o),
(525,384,c),
(481,413,l),
(444,242,ls),
(418,120,o),
(368,69,o),
(273,69,cs),
(163,69,o),
(125,132,o),
(150,255,cs),
(242,690,l),
(153,690,l),
(62,262,ls),
(25,89,o),
(102,-13,o),
(268,-13,cs)
);
},
{
closed = 1;
nodes = (
(399,381,o),
(381,408,o),
(381,455,cs),
(381,510,o),
(407,637,o),
(475,637,cs),
(508,637,o),
(526,611,o),
(526,563,cs),
(526,507,o),
(500,381,o),
(432,381,cs)
);
}
);
width = 589;
}
);
metricLeft = "te-canadian";
metricRight = "te-canadian";
note = uni155F;
unicode = 5471;
},
{
glyphname = "thi-canadian";
lastChange = "2023-01-13 15:55:37 +0000";
layers = (
{
anchors = (
{
name = top_center_can;
pos = (388,690);
}
);
layerId = "9563F490-07F6-43DA-A81C-32B2684714C2";
shapes = (
{
closed = 1;
nodes = (
(274,-13,o),
(323,133,o),
(323,234,cs),
(323,314,o),
(284,375,o),
(211,375,cs),
(170,375,o),
(130,348,o),
(110,305,c),
(154,276,l),
(190,447,ls),
(216,570,o),
(268,621,o),
(361,621,cs),
(471,621,o),
(511,557,o),
(485,435,cs),
(392,0,l),
(483,0,l),
(574,428,ls),
(610,601,o),
(532,702,o),
(367,702,cs),
(221,702,o),
(140,624,o),
(102,451,cs),
(49,200,ls),
(19,61,o),
(72,-13,o),
(155,-13,cs)
);
},
{
closed = 1;
nodes = (
(127,53,o),
(109,79,o),
(109,127,cs),
(109,183,o),
(134,309,o),
(203,309,cs),
(236,309,o),
(254,282,o),
(254,235,cs),
(254,180,o),
(228,53,o),
(159,53,cs)
);
}
);
width = 591;
}
);
metricLeft = "te-canadian";
metricRight = "te-canadian";
note = uni1560;
unicode = 5472;
},
{
glyphname = "thiNCree-canadian";
lastChange = "2023-01-13 15:55:40 +0000";
layers = (
{
anchors = (
{
name = top_center_can;
pos = (388,690);
}
);
layerId = "9563F490-07F6-43DA-A81C-32B2684714C2";
shapes = (
{
closed = 1;
nodes = (
(439,-13,o),
(495,54,o),
(521,179,cs),
(571,417,ls),
(606,583,o),
(548,702,o),
(365,702,cs),
(223,702,o),
(140,627,o),
(105,464,cs),
(7,0,l),
(97,0,l),
(193,455,ls),
(217,568,o),
(270,619,o),
(361,619,cs),
(489,619,o),
(509,536,o),
(484,426,cs),
(448,264,l),
(494,286,l),
(490,331,o),
(461,375,o),
(411,375,cs),
(299,375,o),
(250,249,o),
(239,152,cs),
(228,51,o),
(271,-13,o),
(355,-13,cs)
);
},
{
closed = 1;
nodes = (
(326,53,o),
(307,79,o),
(307,127,cs),
(307,183,o),
(332,309,o),
(403,309,cs),
(437,309,o),
(454,282,o),
(454,235,cs),
(454,180,o),
(429,53,o),
(358,53,cs)
);
}
);
width = 591;
}
);
metricLeft = "te-canadian";
metricRight = "te-canadian";
note = uni1561;
unicode = 5473;
},
{
glyphname = "tho-canadian";
lastChange = "2023-01-13 15:55:37 +0000";
layers = (
{
anchors = (
{
name = top_center_can;
pos = (344,690);
}
);
layerId = "9563F490-07F6-43DA-A81C-32B2684714C2";
shapes = (
{
closed = 1;
nodes = (
(171,0,ls),
(448,0,o),
(525,279,o),
(525,447,cs),
(525,603,o),
(451,702,o),
(326,702,cs),
(169,702,o),
(100,553,o),
(100,431,cs),
(100,345,o),
(141,290,o),
(213,290,cs),
(330,290,o),
(375,440,o),
(375,529,cs),
(375,603,o),
(344,651,o),
(288,658,c),
(270,633,l),
(276,639,o),
(292,644,o),
(313,644,cs),
(394,644,o),
(440,575,o),
(440,460,cs),
(440,339,o),
(395,83,o),
(175,83,cs),
(47,83,l),
(30,0,l)
);
},
{
closed = 1;
nodes = (
(188,355,o),
(171,381,o),
(171,428,cs),
(171,478,o),
(197,620,o),
(268,620,cs),
(300,620,o),
(318,593,o),
(318,547,cs),
(318,497,o),
(293,355,o),
(222,355,cs)
);
}
);
width = 540;
}
);
metricRight = "to-canadian";
note = uni1564;
unicode = 5476;
},
{
glyphname = "tha-canadian";
lastChange = "2023-01-13 15:55:40 +0000";
layers = (
{
anchors = (
{
name = top_center_can;
pos = (393,690);
}
);
layerId = "9563F490-07F6-43DA-A81C-32B2684714C2";
shapes = (
{
closed = 1;
nodes = (
(410,0,l),
(427,83,l),
(312,83,ls),
(205,83,o),
(148,141,o),
(148,255,cs),
(148,377,o),
(216,644,o),
(377,644,cs),
(403,644,o),
(427,637,o),
(444,622,c),
(421,656,l),
(309,664,o),
(265,511,o),
(265,424,cs),
(265,341,o),
(304,290,o),
(374,290,cs),
(483,290,o),
(542,422,o),
(542,529,cs),
(542,638,o),
(479,702,o),
(375,702,cs),
(155,702,o),
(60,416,o),
(60,249,cs),
(60,94,o),
(147,0,o),
(295,0,cs)
);
},
{
closed = 1;
nodes = (
(344,355,o),
(326,381,o),
(326,428,cs),
(326,478,o),
(353,620,o),
(423,620,cs),
(456,620,o),
(473,593,o),
(473,547,cs),
(473,497,o),
(448,355,o),
(377,355,cs)
);
}
);
width = 539;
}
);
metricLeft = "=|theCarrier-canadian";
metricRight = "=|tho-canadian";
note = uni1566;
unicode = 5478;
},
{
glyphname = "th-canadian";
kernLeft = mwestleft;
kernRight = mwestright;
lastChange = "2023-01-13 15:55:37 +0000";
layers = (
{
layerId = "9563F490-07F6-43DA-A81C-32B2684714C2";
shapes = (
{
closed = 1;
nodes = (
(275,345,l),
(287,397,l),
(232,397,ls),
(181,397,o),
(155,425,o),
(155,477,cs),
(155,535,o),
(187,656,o),
(265,656,cs),
(275,656,o),
(286,654,o),
(295,649,c),
(278,668,l),
(224,668,o),
(203,591,o),
(203,554,cs),
(203,514,o),
(223,487,o),
(258,487,cs),
(320,487,o),
(342,570,o),
(342,612,cs),
(342,664,o),
(313,696,o),
(259,696,cs),
(147,696,o),
(101,554,o),
(101,474,cs),
(101,394,o),
(146,345,o),
(222,345,cs)
);
},
{
closed = 1;
nodes = (
(243,523,o),
(235,533,o),
(235,554,cs),
(235,580,o),
(246,645,o),
(281,645,cs),
(297,645,o),
(304,635,o),
(304,613,cs),
(304,588,o),
(293,523,o),
(259,523,cs)
);
}
);
width = 310;
}
);
metricLeft = "t-canadian";
note = uni156A;
unicode = 5482;
},
{
glyphname = "tthe-canadian";
lastChange = "2023-01-13 15:55:40 +0000";
layers = (
{
anchors = (
{
name = middle_right_can;
pos = (655,345);
},
{
name = top_center_can;
pos = (386,690);
},
{
name = top_left_can;
pos = (198,690);
},
{
name = top_right_can;
pos = (576,690);
}
);
layerId = "9563F490-07F6-43DA-A81C-32B2684714C2";
shapes = (
{
closed = 1;
nodes = (
(405,-13,o),
(488,65,o),
(523,226,cs),
(621,690,l),
(537,690,l),
(440,236,ls),
(415,121,o),
(364,71,o),
(271,71,cs),
(159,71,o),
(118,131,o),
(144,255,cs),
(237,690,l),
(153,690,l),
(62,262,ls),
(25,89,o),
(102,-13,o),
(266,-13,cs)
);
},
{
closed = 1;
nodes = (
(355,387,l),
(420,690,l),
(353,690,l),
(288,387,l)
);
}
);
width = 583;
}
);
metricLeft = "te-canadian";
metricRight = "te-canadian";
note = uni156B;
unicode = 5483;
},
{
glyphname = "tthi-canadian";
lastChange = "2023-01-13 15:55:40 +0000";
layers = (
{
layerId = "9563F490-07F6-43DA-A81C-32B2684714C2";
shapes = (
{
closed = 1;
nodes = (
(91,0,l),
(187,454,ls),
(212,569,o),
(264,618,o),
(356,618,cs),
(468,618,o),
(510,558,o),
(484,435,cs),
(391,0,l),
(475,0,l),
(566,428,ls),
(603,601,o),
(525,702,o),
(362,702,cs),
(222,702,o),
(139,625,o),
(105,464,cs),
(7,0,l)
);
},
{
closed = 1;
nodes = (
(275,0,l),
(339,302,l),
(271,302,l),
(207,0,l)
);
}
);
width = 583;
}
);
metricLeft = "te-canadian";
metricRight = "te-canadian";
note = uni156C;
unicode = 5484;
},
{
glyphname = "ttho-canadian";
lastChange = "2023-01-13 15:55:37 +0000";
layers = (
{
anchors = (
{
name = top_center_can;
pos = (332,690);
},
{
name = top_left_can;
pos = (193,690);
},
{
name = top_right_can;
pos = (511,690);
}
);
layerId = "9563F490-07F6-43DA-A81C-32B2684714C2";
shapes = (
{
closed = 1;
nodes = (
(121,0,ls),
(417,0,o),
(488,281,o),
(488,441,cs),
(488,602,o),
(398,690,o),
(236,690,cs),
(155,690,l),
(137,607,l),
(219,607,ls),
(338,607,o),
(397,551,o),
(397,437,cs),
(397,317,o),
(346,83,o),
(125,83,cs),
(25,83,l),
(8,0,l)
);
},
{
closed = 1;
nodes = (
(255,307,l),
(271,384,l),
(90,384,l),
(73,307,l)
);
}
);
width = 504;
}
);
metricRight = "to-canadian";
note = uni156D;
unicode = 5485;
},
{
glyphname = "ttha-canadian";
lastChange = "2023-01-13 15:55:40 +0000";
layers = (
{
anchors = (
{
name = top_center_can;
pos = (348,690);
},
{
name = top_left_can;
pos = (185,690);
},
{
name = top_right_can;
pos = (494,690);
}
);
layerId = "9563F490-07F6-43DA-A81C-32B2684714C2";
shapes = (
{
closed = 1;
nodes = (
(394,0,l),
(411,83,l),
(326,83,ls),
(209,83,o),
(152,139,o),
(152,252,cs),
(152,381,o),
(207,607,o),
(422,607,cs),
(524,607,l),
(541,690,l),
(426,690,ls),
(135,690,o),
(61,415,o),
(61,247,cs),
(61,88,o),
(148,0,o),
(311,0,cs)
);
},
{
closed = 1;
nodes = (
(457,307,l),
(472,384,l),
(292,384,l),
(275,307,l)
);
}
);
width = 504;
}
);
metricLeft = "=|to-canadian";
metricRight = "=|ttho-canadian";
note = uni156E;
unicode = 5486;
},
{
glyphname = "tth-canadian";
lastChange = "2023-01-13 15:55:40 +0000";
layers = (
{
layerId = "9563F490-07F6-43DA-A81C-32B2684714C2";
shapes = (
{
closed = 1;
nodes = (
(245,495,l),
(223,495,l),
(281,377,l),
(329,400,l),
(269,524,l),
(257,501,l),
(388,554,l),
(371,601,l),
(248,552,l),
(268,540,l),
(299,690,l),
(245,690,l),
(213,540,l),
(236,551,l),
(127,601,l),
(105,554,l),
(210,506,l),
(207,527,l),
(101,411,l),
(139,377,l)
);
},
{
closed = 1;
nodes = (
(575,495,l),
(553,495,l),
(611,377,l),
(659,400,l),
(598,524,l),
(587,501,l),
(718,554,l),
(700,600,l),
(578,552,l),
(597,540,l),
(629,690,l),
(575,690,l),
(543,540,l),
(566,551,l),
(456,601,l),
(435,554,l),
(540,506,l),
(537,527,l),
(431,411,l),
(469,377,l)
);
}
);
width = 689;
}
);
metricRight = "=|";
note = uni156F;
unicode = 5487;
},
{
glyphname = "tye-canadian";
lastChange = "2023-01-13 15:55:40 +0000";
layers = (
{
layerId = "9563F490-07F6-43DA-A81C-32B2684714C2";
shapes = (
{
closed = 1;
nodes = (
(405,-13,o),
(488,66,o),
(523,226,cs),
(621,690,l),
(537,690,l),
(440,236,ls),
(415,121,o),
(364,71,o),
(271,71,cs),
(159,71,o),
(118,131,o),
(144,255,cs),
(237,690,l),
(153,690,l),
(62,262,ls),
(25,89,o),
(102,-13,o),
(266,-13,cs)
);
},
{
closed = 1;
nodes = (
(391,412,o),
(423,443,o),
(439,514,cs),
(476,690,l),
(435,690,l),
(399,521,ls),
(388,474,o),
(371,455,o),
(338,455,cs),
(304,455,o),
(294,473,o),
(303,518,cs),
(339,690,l),
(298,690,l),
(260,515,ls),
(246,450,o),
(275,412,o),
(336,412,cs)
);
}
);
width = 583;
}
);
metricLeft = "te-canadian";
metricRight = "te-canadian";
note = uni1570;
unicode = 5488;
},
{
glyphname = "tyi-canadian";
lastChange = "2023-01-13 15:55:40 +0000";
layers = (
{
layerId = "9563F490-07F6-43DA-A81C-32B2684714C2";
shapes = (
{
closed = 1;
nodes = (
(91,0,l),
(187,454,ls),
(212,569,o),
(264,618,o),
(356,618,cs),
(468,618,o),
(510,558,o),
(484,435,cs),
(391,0,l),
(475,0,l),
(566,428,ls),
(603,601,o),
(525,702,o),
(362,702,cs),
(222,702,o),
(139,624,o),
(105,464,cs),
(7,0,l)
);
},
{
closed = 1;
nodes = (
(193,0,l),
(229,169,ls),
(239,215,o),
(257,235,o),
(290,235,cs),
(323,235,o),
(334,216,o),
(325,172,cs),
(289,0,l),
(330,0,l),
(367,175,ls),
(382,240,o),
(353,278,o),
(292,278,cs),
(237,278,o),
(204,246,o),
(188,176,cs),
(152,0,l)
);
}
);
width = 583;
}
);
metricLeft = "te-canadian";
metricRight = "te-canadian";
note = uni1571;
unicode = 5489;
},
{
glyphname = "tyo-canadian";
lastChange = "2023-01-13 15:55:37 +0000";
layers = (
{
layerId = "9563F490-07F6-43DA-A81C-32B2684714C2";
shapes = (
{
closed = 1;
nodes = (
(120,0,ls),
(417,0,o),
(490,281,o),
(490,441,cs),
(490,602,o),
(399,690,o),
(235,690,cs),
(156,690,l),
(139,609,l),
(220,609,ls),
(338,609,o),
(399,551,o),
(399,437,cs),
(399,285,o),
(317,81,o),
(124,81,cs),
(27,81,l),
(11,0,l)
);
},
{
closed = 1;
nodes = (
(106,212,ls),
(218,212,o),
(258,283,o),
(264,357,cs),
(270,433,o),
(230,478,o),
(159,478,cs),
(112,478,l),
(100,429,l),
(149,429,ls),
(193,429,o),
(215,406,o),
(213,362,cs),
(211,315,o),
(190,261,o),
(112,261,cs),
(66,261,l),
(55,212,l)
);
}
);
width = 506;
}
);
metricLeft = "nunavuth-canadian";
metricRight = "theCarrier-canadian";
note = uni1572;
unicode = 5490;
},
{
glyphname = "tya-canadian";
lastChange = "2023-01-13 15:55:40 +0000";
layers = (
{
layerId = "9563F490-07F6-43DA-A81C-32B2684714C2";
shapes = (
{
closed = 1;
nodes = (
(393,0,l),
(411,81,l),
(329,81,ls),
(212,81,o),
(151,139,o),
(151,253,cs),
(151,405,o),
(233,609,o),
(427,609,cs),
(523,609,l),
(539,690,l),
(431,690,ls),
(132,690,o),
(61,409,o),
(61,248,cs),
(61,88,o),
(152,0,o),
(315,0,cs)
);
},
{
closed = 1;
nodes = (
(439,212,l),
(449,261,l),
(402,261,ls),
(356,261,o),
(334,284,o),
(337,327,cs),
(339,375,o),
(360,429,o),
(438,429,cs),
(484,429,l),
(495,478,l),
(443,478,ls),
(332,478,o),
(293,407,o),
(286,332,cs),
(279,257,o),
(320,212,o),
(391,212,cs)
);
}
);
width = 505;
}
);
metricLeft = "=|theCarrier-canadian";
metricRight = "nunavuth-canadian";
note = uni1573;
unicode = 5491;
},
{
glyphname = "heNunavik-canadian";
lastChange = "2023-01-13 15:55:37 +0000";
layers = (
{
layerId = "9563F490-07F6-43DA-A81C-32B2684714C2";
shapes = (
{
closed = 1;
nodes = (
(363,0,l),
(595,192,l),
(546,255,l),
(364,103,l),
(391,83,l),
(465,431,ls),
(493,562,o),
(468,702,o),
(318,702,cs),
(144,702,o),
(88,497,o),
(88,373,cs),
(88,263,o),
(138,198,o),
(230,198,cs),
(288,198,o),
(332,231,o),
(362,298,c),
(348,301,l),
(283,0,l)
);
},
{
closed = 1;
nodes = (
(202,276,o),
(175,310,o),
(175,377,cs),
(175,446,o),
(207,625,o),
(310,625,cs),
(361,625,o),
(388,591,o),
(388,525,cs),
(388,455,o),
(356,276,o),
(254,276,cs)
);
}
);
width = 625;
}
);
metricLeft = "ke-canadian";
note = uni1574;
unicode = 5492;
},
{
glyphname = "hiNunavik-canadian";
lastChange = "2023-01-13 15:55:40 +0000";
layers = (
{
anchors = (
{
name = top_center_can;
pos = (482,690);
}
);
layerId = "9563F490-07F6-43DA-A81C-32B2684714C2";
shapes = (
{
closed = 1;
nodes = (
(241,0,l),
(313,340,l),
(295,303,l),
(294,243,o),
(338,198,o),
(409,198,cs),
(571,198,o),
(627,407,o),
(627,524,cs),
(627,638,o),
(570,702,o),
(468,702,cs),
(357,702,o),
(282,623,o),
(250,470,cs),
(167,79,l),
(196,87,l),
(73,244,l),
(10,192,l),
(160,0,l)
);
},
{
closed = 1;
nodes = (
(354,276,o),
(326,310,o),
(326,377,cs),
(326,446,o),
(361,625,o),
(462,625,cs),
(514,625,o),
(541,591,o),
(541,526,cs),
(541,453,o),
(508,276,o),
(406,276,cs)
);
}
);
width = 625;
}
);
metricLeft = "=|heNunavik-canadian";
metricRight = "=|ke-canadian";
note = uni1575;
unicode = 5493;
},
{
glyphname = "hoNunavik-canadian";
lastChange = "2023-01-13 15:55:37 +0000";
layers = (
{
anchors = (
{
name = top_center_can;
pos = (331,690);
},
{
name = top_right_can;
pos = (475,690);
}
);
layerId = "9563F490-07F6-43DA-A81C-32B2684714C2";
shapes = (
{
closed = 1;
nodes = (
(314,-13,o),
(388,67,o),
(421,219,cs),
(503,611,l),
(474,603,l),
(598,445,l),
(661,497,l),
(510,690,l),
(431,690,l),
(358,350,l),
(376,386,l),
(377,446,o),
(333,492,o),
(263,492,cs),
(100,492,o),
(43,283,o),
(43,166,cs),
(43,52,o),
(100,-13,o),
(202,-13,cs)
);
},
{
closed = 1;
nodes = (
(157,65,o),
(130,99,o),
(130,164,cs),
(130,237,o),
(163,413,o),
(265,413,cs),
(317,413,o),
(344,380,o),
(344,313,cs),
(344,243,o),
(310,65,o),
(209,65,cs)
);
}
);
width = 626;
}
);
metricLeft = "ke-canadian";
metricRight = "heNunavik-canadian";
note = uni1577;
unicode = 5495;
},
{
glyphname = "haNunavik-canadian";
lastChange = "2023-01-13 15:55:40 +0000";
layers = (
{
anchors = (
{
name = top_center_can;
pos = (485,690);
},
{
name = top_left_can;
pos = (341,690);
}
);
layerId = "9563F490-07F6-43DA-A81C-32B2684714C2";
shapes = (
{
closed = 1;
nodes = (
(526,-13,o),
(582,192,o),
(582,317,cs),
(582,427,o),
(531,492,o),
(440,492,cs),
(383,492,o),
(337,459,o),
(308,391,c),
(323,388,l),
(387,690,l),
(307,690,l),
(75,497,l),
(125,435,l),
(306,586,l),
(279,607,l),
(205,259,ls),
(177,128,o),
(203,-13,o),
(353,-13,cs)
);
},
{
closed = 1;
nodes = (
(309,65,o),
(281,99,o),
(281,165,cs),
(281,235,o),
(313,413,o),
(416,413,cs),
(469,413,o),
(496,380,o),
(496,313,cs),
(496,243,o),
(464,65,o),
(360,65,cs)
);
}
);
width = 625;
}
);
metricLeft = "=|heNunavik-canadian";
metricRight = "=|ke-canadian";
note = uni1579;
unicode = 5497;
},
{
glyphname = "hNunavik-canadian";
kernLeft = mwestleft;
kernRight = mwestright;
lastChange = "2023-01-13 15:55:40 +0000";
layers = (
{
layerId = "9563F490-07F6-43DA-A81C-32B2684714C2";
shapes = (
{
closed = 1;
nodes = (
(346,339,o),
(382,451,o),
(382,511,cs),
(382,566,o),
(354,601,o),
(307,601,cs),
(275,601,o),
(252,585,o),
(233,552,c),
(242,535,l),
(275,690,l),
(220,690,l),
(104,594,l),
(135,558,l),
(235,640,l),
(213,672,l),
(171,478,ls),
(156,409,o),
(178,339,o),
(252,339,cs)
);
},
{
closed = 1;
nodes = (
(234,386,o),
(220,403,o),
(220,436,cs),
(220,487,o),
(243,554,o),
(289,554,cs),
(313,554,o),
(327,537,o),
(327,505,cs),
(327,454,o),
(302,386,o),
(258,386,cs)
);
}
);
width = 368;
}
);
metricRight = "k-canadian";
note = uni157B;
unicode = 5499;
},
{
color = 4;
glyphname = "nunavuth-canadian";
lastChange = "2023-01-13 15:55:37 +0000";
layers = (
{
layerId = "9563F490-07F6-43DA-A81C-32B2684714C2";
shapes = (
{
closed = 1;
nodes = (
(99,0,l),
(166,317,l),
(424,317,l),
(356,0,l),
(447,0,l),
(594,690,l),
(503,690,l),
(441,398,l),
(184,398,l),
(245,690,l),
(156,690,l),
(9,0,l)
);
}
);
width = 558;
}
);
metricRight = "=|";
note = uni157C;
unicode = 5500;
},
{
glyphname = "tlhe-canadian";
lastChange = "2023-01-13 15:55:37 +0000";
layers = (
{
anchors = (
{
name = top_center_can;
pos = (340,690);
}
);
layerId = "9563F490-07F6-43DA-A81C-32B2684714C2";
shapes = (
{
closed = 1;
nodes = (
(112,0,l),
(273,270,l),
(207,234,l),
(215,233,o),
(225,232,o),
(233,232,cs),
(289,232,o),
(333,256,o),
(370,310,c),
(362,335,l),
(291,0,l),
(381,0,l),
(476,453,ls),
(501,572,o),
(475,702,o),
(327,702,cs),
(162,702,o),
(99,530,o),
(99,406,cs),
(99,336,o),
(126,284,o),
(175,260,c),
(17,0,l)
);
},
{
closed = 1;
nodes = (
(211,310,o),
(185,346,o),
(185,409,cs),
(185,477,o),
(217,625,o),
(318,625,cs),
(372,625,o),
(396,588,o),
(396,529,cs),
(396,460,o),
(363,310,o),
(264,310,cs)
);
}
);
width = 489;
}
);
metricRight = "te-canadian";
note = uni1586;
unicode = 5510;
},
{
glyphname = "tlhi-canadian";
lastChange = "2023-01-13 15:55:40 +0000";
layers = (
{
layerId = "9563F490-07F6-43DA-A81C-32B2684714C2";
shapes = (
{
closed = 1;
nodes = (
(96,0,l),
(169,348,l),
(137,333,l),
(156,273,o),
(197,238,o),
(261,235,c),
(230,254,l),
(275,0,l),
(369,0,l),
(325,249,l),
(442,275,o),
(489,426,o),
(489,524,cs),
(489,633,o),
(428,702,o),
(324,702,cs),
(219,702,o),
(141,631,o),
(108,479,cs),
(7,0,l)
);
},
{
closed = 1;
nodes = (
(216,310,o),
(188,346,o),
(188,410,cs),
(188,477,o),
(222,625,o),
(321,625,cs),
(374,625,o),
(401,589,o),
(401,526,cs),
(401,457,o),
(369,310,o),
(270,310,cs)
);
}
);
width = 491;
}
);
metricLeft = "te-canadian";
metricRight = "=|tlhe-canadian";
note = uni1587;
unicode = 5511;
},
{
glyphname = "tlho-canadian";
lastChange = "2023-01-13 15:55:40 +0000";
layers = (
{
anchors = (
{
name = top_center_can;
pos = (353,690);
}
);
layerId = "9563F490-07F6-43DA-A81C-32B2684714C2";
shapes = (
{
closed = 1;
nodes = (
(317,-13,o),
(395,59,o),
(428,211,cs),
(529,690,l),
(441,690,l),
(366,342,l),
(398,356,l),
(380,416,o),
(339,452,o),
(275,455,c),
(306,436,l),
(261,690,l),
(167,690,l),
(212,440,l),
(94,414,o),
(48,264,o),
(48,166,cs),
(48,57,o),
(108,-13,o),
(213,-13,cs)
);
},
{
closed = 1;
nodes = (
(162,65,o),
(135,100,o),
(135,164,cs),
(135,233,o),
(167,380,o),
(267,380,cs),
(319,380,o),
(347,344,o),
(347,280,cs),
(347,213,o),
(313,65,o),
(215,65,cs)
);
}
);
width = 491;
}
);
metricLeft = "tlhe-canadian";
metricRight = "te-canadian";
note = uni1588;
unicode = 5512;
},
{
glyphname = "tlha-canadian";
lastChange = "2023-01-13 15:55:40 +0000";
layers = (
{
layerId = "9563F490-07F6-43DA-A81C-32B2684714C2";
shapes = (
{
closed = 1;
nodes = (
(371,-13,o),
(434,159,o),
(434,284,cs),
(434,354,o),
(408,406,o),
(358,430,c),
(516,690,l),
(422,690,l),
(261,419,l),
(328,456,l),
(318,457,o),
(309,458,o),
(300,458,cs),
(245,458,o),
(200,434,o),
(164,380,c),
(172,355,l),
(243,690,l),
(154,690,l),
(57,237,ls),
(32,118,o),
(58,-13,o),
(206,-13,cs)
);
},
{
closed = 1;
nodes = (
(161,65,o),
(137,101,o),
(137,160,cs),
(137,230,o),
(170,380,o),
(270,380,cs),
(323,380,o),
(349,344,o),
(349,281,cs),
(349,213,o),
(316,65,o),
(216,65,cs)
);
}
);
width = 489;
}
);
metricLeft = "te-canadian";
note = uni1589;
unicode = 5513;
},
{
glyphname = "reWestCree-canadian";
lastChange = "2023-01-13 15:55:37 +0000";
layers = (
{
layerId = "9563F490-07F6-43DA-A81C-32B2684714C2";
shapes = (
{
closed = 1;
nodes = (
(357,0,l),
(589,194,l),
(539,255,l),
(358,103,l),
(385,83,l),
(466,464,ls),
(497,613,o),
(435,702,o),
(313,702,cs),
(197,702,o),
(131,633,o),
(99,480,cs),
(79,387,l),
(168,387,l),
(190,491,ls),
(211,583,o),
(244,623,o),
(302,623,cs),
(371,623,o),
(400,575,o),
(380,481,cs),
(277,0,l)
);
}
);
width = 619;
}
);
metricLeft = "ce-canadian";
metricRight = "heNunavik-canadian";
note = uni158A;
unicode = 5514;
},
{
glyphname = "riWestCree-canadian";
lastChange = "2023-01-13 15:55:40 +0000";
layers = (
{
layerId = "9563F490-07F6-43DA-A81C-32B2684714C2";
shapes = (
{
closed = 1;
nodes = (
(239,0,l),
(343,491,ls),
(362,583,o),
(397,623,o),
(455,623,cs),
(523,623,o),
(553,575,o),
(532,481,cs),
(512,387,l),
(602,387,l),
(618,464,ls),
(650,613,o),
(586,702,o),
(465,702,cs),
(349,702,o),
(283,633,o),
(251,480,cs),
(167,83,l),
(196,90,l),
(76,246,l),
(10,194,l),
(158,0,l)
);
}
);
width = 619;
}
);
metricLeft = "=|heNunavik-canadian";
metricRight = "=|ce-canadian";
note = uni158B;
unicode = 5515;
},
{
glyphname = "roWestCree-canadian";
lastChange = "2023-01-13 15:55:40 +0000";
layers = (
{
layerId = "9563F490-07F6-43DA-A81C-32B2684714C2";
shapes = (
{
closed = 1;
nodes = (
(315,-13,o),
(381,57,o),
(413,210,cs),
(498,607,l),
(468,600,l),
(587,443,l),
(655,496,l),
(505,690,l),
(425,690,l),
(322,199,ls),
(301,106,o),
(267,67,o),
(209,67,cs),
(141,67,o),
(111,115,o),
(131,209,cs),
(152,302,l),
(62,302,l),
(45,226,ls),
(14,76,o),
(77,-13,o),
(199,-13,cs)
);
}
);
width = 620;
}
);
metricLeft = "ce-canadian";
metricRight = "heNunavik-canadian";
note = uni158C;
unicode = 5516;
},
{
glyphname = "raWestCree-canadian";
lastChange = "2023-01-13 15:55:40 +0000";
layers = (
{
layerId = "9563F490-07F6-43DA-A81C-32B2684714C2";
shapes = (
{
closed = 1;
nodes = (
(468,-13,o),
(533,57,o),
(566,210,cs),
(585,302,l),
(497,302,l),
(474,199,ls),
(454,106,o),
(420,67,o),
(362,67,cs),
(294,67,o),
(265,115,o),
(285,209,cs),
(387,690,l),
(307,690,l),
(75,496,l),
(126,435,l),
(306,586,l),
(279,607,l),
(199,226,ls),
(167,76,o),
(230,-13,o),
(352,-13,cs)
);
}
);
width = 620;
}
);
metricLeft = "=|heNunavik-canadian";
metricRight = "=|ce-canadian";
note = uni158D;
unicode = 5517;
},
{
glyphname = "ng-canadian";
kernLeft = mwestleft;
kernRight = mwestright;
lastChange = "2023-01-13 15:55:40 +0000";
layers = (
{
layerId = "9563F490-07F6-43DA-A81C-32B2684714C2";
shapes = (
{
closed = 1;
nodes = (
(439,217,o),
(481,258,o),
(497,335,cs),
(503,365,l),
(446,365,l),
(439,329,ls),
(429,288,o),
(411,268,o),
(382,268,cs),
(351,268,o),
(338,290,o),
(347,330,cs),
(382,493,l),
(259,493,l),
(267,466,l),
(297,487,o),
(315,544,o),
(318,583,cs),
(324,650,o),
(290,696,o),
(229,696,cs),
(152,696,o),
(114,614,o),
(107,549,cs),
(100,477,o),
(136,434,o),
(199,434,cs),
(333,434,l),
(315,471,l),
(289,346,ls),
(272,268,o),
(306,217,o),
(376,217,cs)
);
},
{
closed = 1;
nodes = (
(172,481,o),
(158,502,o),
(161,542,cs),
(164,582,o),
(181,648,o),
(225,648,cs),
(252,648,o),
(266,627,o),
(263,587,cs),
(260,547,o),
(243,481,o),
(198,481,cs)
);
}
);
width = 507;
}
);
metricLeft = "n-canadian";
metricRight = "c-canadian";
note = uni1595;
unicode = 5525;
},
{
glyphname = "nng-canadian";
kernLeft = mwestleft;
kernRight = mwestright;
lastChange = "2023-01-13 15:55:37 +0000";
layers = (
{
layerId = "9563F490-07F6-43DA-A81C-32B2684714C2";
shapes = (
{
closed = 1;
nodes = (
(681,217,o),
(723,258,o),
(738,335,cs),
(745,365,l),
(687,365,l),
(679,329,ls),
(669,288,o),
(652,268,o),
(623,268,cs),
(591,268,o),
(579,290,o),
(588,330,cs),
(623,493,l),
(508,493,l),
(506,466,l),
(541,492,o),
(559,554,o),
(559,595,cs),
(559,657,o),
(526,696,o),
(469,696,cs),
(384,696,o),
(347,601,o),
(347,533,cs),
(347,507,o),
(354,486,o),
(367,469,c),
(376,493,l),
(270,493,l),
(267,466,l),
(302,492,o),
(320,557,o),
(320,595,cs),
(320,656,o),
(286,696,o),
(230,696,cs),
(144,696,o),
(107,601,o),
(107,533,cs),
(107,471,o),
(142,434,o),
(200,434,cs),
(548,434,l),
(529,346,ls),
(513,268,o),
(548,217,o),
(617,217,cs)
);
},
{
closed = 1;
nodes = (
(175,481,o),
(161,499,o),
(161,532,cs),
(161,569,o),
(178,648,o),
(226,648,cs),
(252,648,o),
(265,630,o),
(265,597,cs),
(265,560,o),
(249,481,o),
(199,481,cs)
);
},
{
closed = 1;
nodes = (
(414,481,o),
(401,499,o),
(401,532,cs),
(401,569,o),
(417,648,o),
(467,648,cs),
(492,648,o),
(505,630,o),
(505,597,cs),
(505,560,o),
(489,481,o),
(439,481,cs)
);
}
);
width = 748;
}
);
metricLeft = "n-canadian";
metricRight = "c-canadian";
note = uni1596;
unicode = 5526;
},
{
glyphname = "sheSayisi-canadian";
lastChange = "2023-01-13 15:55:37 +0000";
layers = (
{
anchors = (
{
name = middle_right_can;
pos = (560,345);
},
{
name = top_center_can;
pos = (340,690);
}
);
layerId = "9563F490-07F6-43DA-A81C-32B2684714C2";
shapes = (
{
closed = 1;
nodes = (
(382,0,l),
(474,439,ls),
(509,602,o),
(455,702,o),
(327,702,cs),
(145,702,o),
(84,480,o),
(84,350,cs),
(84,255,o),
(120,200,o),
(191,200,cs),
(265,200,o),
(305,261,o),
(333,412,c),
(294,412,l),
(275,313,o),
(252,274,o),
(215,274,cs),
(184,274,o),
(168,300,o),
(168,350,cs),
(168,424,o),
(207,625,o),
(317,625,cs),
(387,625,o),
(410,559,o),
(384,439,cs),
(291,0,l)
);
}
);
width = 490;
}
);
metricLeft = "ke-canadian";
metricRight = "te-canadian";
note = uni1597;
unicode = 5527;
},
{
glyphname = "shiSayisi-canadian";
lastChange = "2023-01-13 15:55:37 +0000";
layers = (
{
layerId = "9563F490-07F6-43DA-A81C-32B2684714C2";
shapes = (
{
closed = 1;
nodes = (
(97,0,l),
(194,457,ls),
(218,572,o),
(258,625,o),
(321,625,cs),
(376,625,o),
(405,589,o),
(405,520,cs),
(405,459,o),
(370,274,o),
(301,274,cs),
(259,274,o),
(246,315,o),
(269,412,c),
(230,412,l),
(196,272,o),
(227,200,o),
(313,200,cs),
(440,200,o),
(490,416,o),
(490,517,cs),
(490,634,o),
(430,702,o),
(324,702,cs),
(213,702,o),
(140,625,o),
(107,474,cs),
(7,0,l)
);
}
);
width = 490;
}
);
metricLeft = "te-canadian";
metricRight = "=|ke-canadian";
note = uni1598;
unicode = 5528;
},
{
glyphname = "shoSayisi-canadian";
lastChange = "2023-01-13 15:55:40 +0000";
layers = (
{
anchors = (
{
name = top_center_can;
pos = (337,690);
},
{
name = top_left_can;
pos = (189,690);
},
{
name = top_right_can;
pos = (483,690);
}
);
layerId = "9563F490-07F6-43DA-A81C-32B2684714C2";
shapes = (
{
closed = 1;
nodes = (
(322,-13,o),
(395,65,o),
(427,215,cs),
(528,690,l),
(438,690,l),
(341,233,ls),
(316,118,o),
(276,65,o),
(214,65,cs),
(158,65,o),
(130,100,o),
(130,170,cs),
(130,231,o),
(164,415,o),
(233,415,cs),
(276,415,o),
(289,375,o),
(266,278,c),
(305,278,l),
(338,417,o),
(307,490,o),
(222,490,cs),
(96,490,o),
(44,273,o),
(44,173,cs),
(44,56,o),
(104,-13,o),
(211,-13,cs)
);
}
);
width = 489;
}
);
metricLeft = "ke-canadian";
metricRight = "te-canadian";
note = uni1599;
unicode = 5529;
},
{
glyphname = "shaSayisi-canadian";
lastChange = "2023-01-13 15:55:37 +0000";
layers = (
{
layerId = "9563F490-07F6-43DA-A81C-32B2684714C2";
shapes = (
{
closed = 1;
nodes = (
(390,-13,o),
(451,210,o),
(451,340,cs),
(451,435,o),
(415,490,o),
(344,490,cs),
(270,490,o),
(229,429,o),
(202,278,c),
(242,278,l),
(260,377,o),
(282,415,o),
(320,415,cs),
(352,415,o),
(367,389,o),
(367,340,cs),
(367,266,o),
(328,65,o),
(217,65,cs),
(147,65,o),
(125,130,o),
(151,251,cs),
(244,690,l),
(154,690,l),
(60,251,ls),
(26,88,o),
(80,-13,o),
(207,-13,cs)
);
}
);
width = 490;
}
);
metricLeft = "te-canadian";
metricRight = "=|ke-canadian";
note = uni159A;
unicode = 5530;
},
{
glyphname = "theWoodScree-canadian";
lastChange = "2023-01-13 15:55:37 +0000";
layers = (
{
layerId = "9563F490-07F6-43DA-A81C-32B2684714C2";
shapes = (
{
closed = 1;
nodes = (
(553,-13,o),
(613,178,o),
(613,295,cs),
(613,410,o),
(550,478,o),
(440,478,cs),
(103,478,l),
(87,403,l),
(342,403,l),
(341,430,l),
(250,388,o),
(220,250,o),
(220,172,cs),
(220,59,o),
(282,-13,o),
(387,-13,cs)
);
},
{
closed = 1;
nodes = (
(336,65,o),
(307,101,o),
(307,169,cs),
(307,239,o),
(337,402,o),
(442,402,cs),
(497,402,o),
(526,365,o),
(526,298,cs),
(526,228,o),
(496,65,o),
(391,65,cs)
);
},
{
closed = 1;
nodes = (
(681,614,l),
(697,690,l),
(149,690,l),
(132,614,l)
);
}
);
width = 663;
}
);
note = uni159B;
unicode = 5531;
},
{
glyphname = "thiWoodScree-canadian";
kernRight = niright;
lastChange = "2023-01-13 15:55:37 +0000";
layers = (
{
layerId = "9563F490-07F6-43DA-A81C-32B2684714C2";
shapes = (
{
closed = 1;
nodes = (
(381,-13,o),
(440,179,o),
(440,295,cs),
(440,347,o),
(426,385,o),
(397,410,c),
(390,403,l),
(645,403,l),
(662,478,l),
(291,478,ls),
(100,478,o),
(47,287,o),
(47,172,cs),
(47,59,o),
(109,-13,o),
(214,-13,cs)
);
},
{
closed = 1;
nodes = (
(164,65,o),
(134,101,o),
(134,169,cs),
(134,239,o),
(165,402,o),
(270,402,cs),
(326,402,o),
(354,365,o),
(354,298,cs),
(354,228,o),
(324,65,o),
(218,65,cs)
);
},
{
closed = 1;
nodes = (
(691,614,l),
(707,690,l),
(158,690,l),
(142,614,l)
);
}
);
width = 664;
}
);
metricLeft = "theWoodScree-canadian";
metricRight = "theWoodScree-canadian";
note = uni159C;
unicode = 5532;
},
{
glyphname = "thoWoodScree-canadian";
lastChange = "2023-01-13 15:55:37 +0000";
layers = (
{
layerId = "9563F490-07F6-43DA-A81C-32B2684714C2";
shapes = (
{
closed = 1;
nodes = (
(373,0,ls),
(563,0,o),
(615,191,o),
(615,307,cs),
(615,420,o),
(554,492,o),
(448,492,cs),
(282,492,o),
(222,299,o),
(222,185,cs),
(222,132,o),
(237,93,o),
(266,69,c),
(272,75,l),
(18,75,l),
(2,0,l)
);
},
{
closed = 1;
nodes = (
(338,76,o),
(309,113,o),
(309,181,cs),
(309,251,o),
(340,413,o),
(444,413,cs),
(499,413,o),
(528,377,o),
(528,309,cs),
(528,241,o),
(498,76,o),
(393,76,cs)
);
},
{
closed = 1;
nodes = (
(681,614,l),
(697,690,l),
(149,690,l),
(132,614,l)
);
}
);
width = 663;
}
);
metricLeft = "theWoodScree-canadian";
metricRight = "theWoodScree-canadian";
note = uni159D;
unicode = 5533;
},
{
glyphname = "thaWoodScree-canadian";
lastChange = "2023-01-13 15:55:37 +0000";
layers = (
{
layerId = "9563F490-07F6-43DA-A81C-32B2684714C2";
shapes = (
{
closed = 1;
nodes = (
(559,0,l),
(575,75,l),
(320,75,l),
(322,48,l),
(412,90,o),
(442,228,o),
(442,306,cs),
(442,420,o),
(380,492,o),
(275,492,cs),
(109,492,o),
(49,300,o),
(49,185,cs),
(49,69,o),
(113,0,o),
(223,0,cs)
);
},
{
closed = 1;
nodes = (
(164,76,o),
(136,113,o),
(136,181,cs),
(136,251,o),
(166,413,o),
(271,413,cs),
(327,413,o),
(355,377,o),
(355,309,cs),
(355,241,o),
(325,76,o),
(220,76,cs)
);
},
{
closed = 1;
nodes = (
(689,614,l),
(705,690,l),
(156,690,l),
(140,614,l)
);
}
);
width = 663;
}
);
metricLeft = "theWoodScree-canadian";
metricRight = "theWoodScree-canadian";
note = uni159E;
unicode = 5534;
},
{
glyphname = "thWoodScree-canadian";
lastChange = "2023-01-13 15:55:37 +0000";
layers = (
{
layerId = "9563F490-07F6-43DA-A81C-32B2684714C2";
shapes = (
{
closed = 1;
nodes = (
(377,345,l),
(388,399,l),
(248,399,l),
(244,370,l),
(291,391,o),
(310,463,o),
(310,506,cs),
(310,568,o),
(276,607,o),
(220,607,cs),
(135,607,o),
(98,511,o),
(98,444,cs),
(98,382,o),
(132,345,o),
(191,345,cs)
);
},
{
closed = 1;
nodes = (
(165,391,o),
(153,410,o),
(153,442,cs),
(153,479,o),
(168,559,o),
(217,559,cs),
(242,559,o),
(256,541,o),
(256,508,cs),
(256,471,o),
(240,391,o),
(189,391,cs)
);
},
{
closed = 1;
nodes = (
(438,667,l),
(450,721,l),
(156,721,l),
(143,667,l)
);
}
);
width = 404;
}
);
metricRight = "=|";
note = uni159F;
unicode = 5535;
},
{
glyphname = "lhi-canadian";
kernRight = niright;
lastChange = "2023-01-13 15:55:40 +0000";
layers = (
{
anchors = (
{
name = top_center_can;
pos = (463,690);
},
{
name = top_right_can;
pos = (545,690);
}
);
layerId = "9563F490-07F6-43DA-A81C-32B2684714C2";
shapes = (
{
closed = 1;
nodes = (
(248,0,l),
(265,80,l),
(250,80,ls),
(180,80,o),
(138,126,o),
(138,199,cs),
(138,283,o),
(184,396,o),
(320,396,cs),
(642,396,l),
(658,469,l),
(570,726,l),
(487,697,l),
(575,438,l),
(608,478,l),
(327,478,ls),
(139,478,o),
(48,343,o),
(48,197,cs),
(48,81,o),
(120,0,o),
(231,0,cs)
);
}
);
width = 655;
}
);
metricLeft = "ke-canadian";
metricRight = "=|ne-canadian";
note = uni15A0;
unicode = 5536;
},
{
glyphname = "lho-canadian";
kernLeft = noleft;
lastChange = "2023-01-13 15:55:40 +0000";
layers = (
{
anchors = (
{
name = top_center_can;
pos = (375,496);
},
{
name = top_right_can;
pos = (463,496);
}
);
layerId = "9563F490-07F6-43DA-A81C-32B2684714C2";
shapes = (
{
closed = 1;
nodes = (
(168,-219,l),
(79,41,l),
(47,-1,l),
(328,-1,ls),
(516,-1,o),
(606,135,o),
(606,281,cs),
(606,397,o),
(535,478,o),
(424,478,cs),
(407,478,l),
(389,398,l),
(405,398,ls),
(475,398,o),
(517,353,o),
(517,279,cs),
(517,194,o),
(470,81,o),
(335,81,cs),
(13,81,l),
(-3,9,l),
(85,-249,l)
);
}
);
width = 654;
}
);
metricLeft = "ne-canadian";
metricRight = "=|ke-canadian";
note = uni15A2;
unicode = 5538;
},
{
glyphname = "lha-canadian";
kernRight = naright;
lastChange = "2023-01-13 15:55:37 +0000";
layers = (
{
anchors = (
{
name = top_center_can;
pos = (389,496);
},
{
name = top_left_can;
pos = (300,496);
}
);
layerId = "9563F490-07F6-43DA-A81C-32B2684714C2";
shapes = (
{
closed = 1;
nodes = (
(558,9,l),
(574,82,l),
(264,82,ls),
(182,82,o),
(137,125,o),
(137,200,cs),
(137,282,o),
(177,398,o),
(316,398,cs),
(331,398,l),
(349,478,l),
(327,478,ls),
(132,478,o),
(47,338,o),
(47,193,cs),
(47,74,o),
(122,0,o),
(246,0,cs),
(498,0,l),
(475,38,l),
(295,-199,l),
(360,-249,l)
);
}
);
width = 653;
}
);
metricLeft = "ke-canadian";
metricRight = "=|ne-canadian";
note = uni15A4;
unicode = 5540;
},
{
glyphname = "lh-canadian";
kernLeft = mwestleft;
kernRight = mwestright;
lastChange = "2023-01-13 15:55:37 +0000";
layers = (
{
layerId = "9563F490-07F6-43DA-A81C-32B2684714C2";
shapes = (
{
closed = 1;
nodes = (
(376,351,l),
(386,404,l),
(242,404,ls),
(191,404,o),
(165,431,o),
(165,482,cs),
(165,545,o),
(192,631,o),
(288,631,cs),
(295,631,l),
(307,690,l),
(298,690,ls),
(156,690,o),
(102,578,o),
(102,476,cs),
(102,391,o),
(152,345,o),
(240,345,cs),
(345,345,l),
(325,382,l),
(219,244,l),
(266,208,l)
);
}
);
width = 397;
}
);
metricLeft = "t-canadian";
metricRight = "=|";
note = uni15A6;
unicode = 5542;
},
{
glyphname = "theThCree-canadian";
lastChange = "2023-01-13 15:55:37 +0000";
layers = (
{
anchors = (
{
name = top_left_can;
pos = (177,690);
},
{
name = top_right_can;
pos = (456,690);
}
);
layerId = "9563F490-07F6-43DA-A81C-32B2684714C2";
shapes = (
{
closed = 1;
nodes = (
(287,104,l),
(264,0,l),
(355,0,l),
(377,104,l),
(438,104,l),
(449,158,l),
(388,158,l),
(423,323,l),
(156,323,l),
(170,293,l),
(501,647,l),
(440,701,l),
(43,272,l),
(37,242,l),
(316,242,l),
(298,158,l),
(114,158,l),
(102,104,l)
);
}
);
width = 497;
}
);
metricLeft = "ye-canadian";
note = uni15A7;
unicode = 5543;
},
{
glyphname = "thiThCree-canadian";
kernRight = yiright;
lastChange = "2023-01-13 15:55:37 +0000";
layers = (
{
anchors = (
{
name = top_left_can;
pos = (232,690);
},
{
name = top_right_can;
pos = (512,690);
}
);
layerId = "9563F490-07F6-43DA-A81C-32B2684714C2";
shapes = (
{
closed = 1;
nodes = (
(129,0,l),
(153,104,l),
(337,104,l),
(348,158,l),
(163,158,l),
(182,242,l),
(461,242,l),
(467,272,l),
(237,701,l),
(164,661,l),
(366,287,l),
(388,323,l),
(108,323,l),
(73,158,l),
(13,158,l),
(1,104,l),
(62,104,l),
(40,0,l)
);
}
);
width = 496;
}
);
metricLeft = "=|theThCree-canadian";
metricRight = "=|ye-canadian";
note = uni15A8;
unicode = 5544;
},
{
glyphname = "thoThCree-canadian";
kernLeft = yoleft;
lastChange = "2023-01-13 15:55:40 +0000";
layers = (
{
anchors = (
{
name = top_left_can;
pos = (178,690);
},
{
name = top_right_can;
pos = (457,690);
}
);
layerId = "9563F490-07F6-43DA-A81C-32B2684714C2";
shapes = (
{
closed = 1;
nodes = (
(378,29,l),
(175,403,l),
(154,367,l),
(433,367,l),
(468,531,l),
(529,531,l),
(541,585,l),
(479,585,l),
(501,690,l),
(412,690,l),
(389,585,l),
(205,585,l),
(193,531,l),
(378,531,l),
(360,447,l),
(81,447,l),
(74,417,l),
(305,-12,l)
);
}
);
width = 497;
}
);
metricLeft = "ye-canadian";
metricRight = "theThCree-canadian";
note = uni15AA;
unicode = 5546;
},
{
glyphname = "thaThCree-canadian";
kernRight = yaright;
lastChange = "2023-01-13 15:55:40 +0000";
layers = (
{
anchors = (
{
name = top_left_can;
pos = (234,690);
},
{
name = top_right_can;
pos = (513,690);
}
);
layerId = "9563F490-07F6-43DA-A81C-32B2684714C2";
shapes = (
{
closed = 1;
nodes = (
(500,417,l),
(506,447,l),
(226,447,l),
(244,531,l),
(429,531,l),
(440,585,l),
(255,585,l),
(278,690,l),
(187,690,l),
(165,585,l),
(104,585,l),
(94,531,l),
(154,531,l),
(119,367,l),
(386,367,l),
(373,397,l),
(41,43,l),
(102,-12,l)
);
}
);
width = 498;
}
);
metricLeft = "=|theThCree-canadian";
metricRight = "=|ye-canadian";
note = uni15AC;
unicode = 5548;
},
{
glyphname = "thThCree-canadian";
kernLeft = mwestleft;
kernRight = mwestright;
lastChange = "2023-01-13 15:55:40 +0000";
layers = (
{
layerId = "9563F490-07F6-43DA-A81C-32B2684714C2";
shapes = (
{
closed = 1;
nodes = (
(148,613,l),
(128,516,l),
(267,516,l),
(253,546,l),
(93,373,l),
(135,336,l),
(330,549,l),
(334,568,l),
(199,568,l),
(209,613,l),
(297,613,l),
(303,644,l),
(215,644,l),
(225,690,l),
(164,690,l),
(155,644,l),
(123,644,l),
(117,613,l)
);
}
);
width = 290;
}
);
metricRight = "y-canadian";
note = uni15AE;
unicode = 5550;
},
{
glyphname = "bAivilik-canadian";
lastChange = "2023-01-13 15:55:40 +0000";
layers = (
{
layerId = "9563F490-07F6-43DA-A81C-32B2684714C2";
shapes = (
{
closed = 1;
nodes = (
(384,-13,o),
(442,192,o),
(442,317,cs),
(442,427,o),
(390,492,o),
(299,492,cs),
(243,492,o),
(200,459,o),
(168,392,c),
(182,387,l),
(245,690,l),
(156,690,l),
(9,0,l),
(92,0,l),
(115,111,l),
(105,97,l),
(111,24,o),
(155,-13,o),
(223,-13,cs)
);
},
{
closed = 1;
nodes = (
(168,65,o),
(142,99,o),
(142,165,cs),
(142,235,o),
(173,413,o),
(276,413,cs),
(327,413,o),
(355,380,o),
(355,313,cs),
(355,243,o),
(324,65,o),
(220,65,cs)
);
}
);
width = 485;
}
);
metricLeft = "nunavuth-canadian";
metricRight = "=|ke-canadian";
note = uni15AF;
unicode = 5551;
},
{
glyphname = "eBlackfoot-canadian";
lastChange = "2023-01-13 15:55:37 +0000";
layers = (
{
layerId = "9563F490-07F6-43DA-A81C-32B2684714C2";
shapes = (
{
closed = 1;
nodes = (
(99,0,l),
(187,416,l),
(205,375,o),
(244,350,o),
(296,350,cs),
(415,350,o),
(469,477,o),
(469,563,cs),
(469,646,o),
(421,702,o),
(343,702,cs),
(300,702,o),
(262,685,o),
(234,654,c),
(242,690,l),
(156,690,l),
(9,0,l)
);
}
);
width = 442;
}
);
metricLeft = "nunavuth-canadian";
note = uni15B0;
unicode = 5552;
},
{
glyphname = "iBlackfoot-canadian";
lastChange = "2023-01-13 15:55:37 +0000";
layers = (
{
layerId = "9563F490-07F6-43DA-A81C-32B2684714C2";
shapes = (
{
closed = 1;
nodes = (
(187,-13,o),
(226,5,o),
(254,36,c),
(246,0,l),
(332,0,l),
(479,690,l),
(389,690,l),
(300,273,l),
(284,315,o),
(244,340,o),
(192,340,cs),
(72,340,o),
(18,213,o),
(18,127,cs),
(18,43,o),
(67,-13,o),
(145,-13,cs)
);
}
);
width = 443;
}
);
metricLeft = "=|eBlackfoot-canadian";
metricRight = "nunavuth-canadian";
note = uni15B1;
unicode = 5553;
},
{
glyphname = "oBlackfoot-canadian";
lastChange = "2023-01-13 15:55:40 +0000";
layers = (
{
layerId = "9563F490-07F6-43DA-A81C-32B2684714C2";
shapes = (
{
closed = 1;
nodes = (
(339,-13,o),
(392,114,o),
(392,200,cs),
(392,284,o),
(345,340,o),
(269,340,cs),
(228,340,o),
(191,325,o),
(162,297,c),
(245,690,l),
(156,690,l),
(9,0,l),
(95,0,l),
(108,62,l),
(122,16,o),
(163,-13,o),
(218,-13,cs)
);
}
);
width = 443;
}
);
metricLeft = "nunavuth-canadian";
metricRight = "eBlackfoot-canadian";
note = uni15B2;
unicode = 5554;
},
{
glyphname = "aBlackfoot-canadian";
lastChange = "2023-01-13 15:55:37 +0000";
layers = (
{
layerId = "9563F490-07F6-43DA-A81C-32B2684714C2";
shapes = (
{
closed = 1;
nodes = (
(332,0,l),
(479,690,l),
(393,690,l),
(380,628,l),
(365,673,o),
(325,702,o),
(270,702,cs),
(149,702,o),
(96,576,o),
(96,490,cs),
(96,406,o),
(143,350,o),
(219,350,cs),
(260,350,o),
(297,365,o),
(326,393,c),
(242,0,l)
);
}
);
width = 443;
}
);
metricLeft = "=|eBlackfoot-canadian";
metricRight = "nunavuth-canadian";
note = uni15B3;
unicode = 5555;
},
{
glyphname = "weBlackfoot-canadian";
lastChange = "2023-01-13 15:55:37 +0000";
layers = (
{
layerId = "9563F490-07F6-43DA-A81C-32B2684714C2";
shapes = (
{
closed = 1;
nodes = (
(99,0,l),
(163,305,l),
(437,305,l),
(453,384,l),
(181,384,l),
(229,611,l),
(501,611,l),
(518,690,l),
(156,690,l),
(9,0,l)
);
}
);
width = 468;
}
);
metricLeft = "nunavuth-canadian";
note = uni15B4;
unicode = 5556;
},
{
glyphname = "wiBlackfoot-canadian";
lastChange = "2023-01-13 15:55:40 +0000";
layers = (
{
layerId = "9563F490-07F6-43DA-A81C-32B2684714C2";
shapes = (
{
closed = 1;
nodes = (
(357,0,l),
(504,690,l),
(413,690,l),
(349,384,l),
(76,384,l),
(60,306,l),
(332,306,l),
(284,78,l),
(12,78,l),
(-5,0,l)
);
}
);
width = 468;
}
);
metricLeft = "=|weBlackfoot-canadian";
metricRight = "nunavuth-canadian";
note = uni15B5;
unicode = 5557;
},
{
glyphname = "woBlackfoot-canadian";
lastChange = "2023-01-13 15:55:37 +0000";
layers = (
{
layerId = "9563F490-07F6-43DA-A81C-32B2684714C2";
shapes = (
{
closed = 1;
nodes = (
(371,0,l),
(387,78,l),
(116,78,l),
(164,306,l),
(437,306,l),
(453,384,l),
(181,384,l),
(245,690,l),
(156,690,l),
(9,0,l)
);
}
);
width = 468;
}
);
metricLeft = "nunavuth-canadian";
metricRight = "weBlackfoot-canadian";
note = uni15B6;
unicode = 5558;
},
{
glyphname = "waBlackfoot-canadian";
lastChange = "2023-01-13 15:55:40 +0000";
layers = (
{
layerId = "9563F490-07F6-43DA-A81C-32B2684714C2";
shapes = (
{
closed = 1;
nodes = (
(357,0,l),
(504,690,l),
(142,690,l),
(126,611,l),
(397,611,l),
(349,384,l),
(76,384,l),
(60,305,l),
(332,305,l),
(267,0,l)
);
}
);
width = 468;
}
);
metricLeft = "=|weBlackfoot-canadian";
metricRight = "nunavuth-canadian";
note = uni15B7;
unicode = 5559;
},
{
glyphname = "neBlackfoot-canadian";
lastChange = "2023-01-13 15:55:37 +0000";
layers = (
{
layerId = "9563F490-07F6-43DA-A81C-32B2684714C2";
shapes = (
{
closed = 1;
nodes = (
(99,0,l),
(231,622,l),
(275,622,l),
(257,671,l),
(247,621,ls),
(218,487,o),
(278,400,o),
(405,400,cs),
(515,400,o),
(588,467,o),
(617,604,cs),
(636,690,l),
(548,690,l),
(528,596,ls),
(512,517,o),
(471,480,o),
(411,480,cs),
(342,480,o),
(315,527,o),
(331,604,cs),
(350,690,l),
(156,690,l),
(9,0,l)
);
}
);
width = 573;
}
);
metricLeft = "nunavuth-canadian";
note = uni15B8;
unicode = 5560;
},
{
glyphname = "niBlackfoot-canadian";
lastChange = "2023-01-13 15:55:37 +0000";
layers = (
{
layerId = "9563F490-07F6-43DA-A81C-32B2684714C2";
shapes = (
{
closed = 1;
nodes = (
(70,0,l),
(89,94,ls),
(105,173,o),
(146,210,o),
(207,210,cs),
(275,210,o),
(302,162,o),
(287,86,cs),
(268,0,l),
(463,0,l),
(610,690,l),
(519,690,l),
(386,68,l),
(342,68,l),
(360,18,l),
(371,69,ls),
(399,203,o),
(340,290,o),
(213,290,cs),
(102,290,o),
(29,223,o),
(0,86,cs),
(-18,0,l)
);
}
);
width = 574;
}
);
metricLeft = "=|neBlackfoot-canadian";
metricRight = "nunavuth-canadian";
note = uni15B9;
unicode = 5561;
},
{
glyphname = "noBlackfoot-canadian";
lastChange = "2023-01-13 15:55:37 +0000";
layers = (
{
layerId = "9563F490-07F6-43DA-A81C-32B2684714C2";
shapes = (
{
closed = 1;
nodes = (
(203,0,l),
(221,81,ls),
(241,170,o),
(274,211,o),
(336,211,cs),
(404,211,o),
(434,160,o),
(416,73,cs),
(401,0,l),
(490,0,l),
(501,54,ls),
(531,198,o),
(469,290,o),
(343,290,cs),
(232,290,o),
(161,217,o),
(132,77,cs),
(120,18,l),
(157,68,l),
(113,68,l),
(245,690,l),
(156,690,l),
(9,0,l)
);
}
);
width = 574;
}
);
metricLeft = "nunavuth-canadian";
metricRight = "neBlackfoot-canadian";
note = uni15BA;
unicode = 5562;
},
{
glyphname = "naBlackfoot-canadian";
lastChange = "2023-01-13 15:55:40 +0000";
layers = (
{
layerId = "9563F490-07F6-43DA-A81C-32B2684714C2";
shapes = (
{
closed = 1;
nodes = (
(464,0,l),
(611,690,l),
(415,690,l),
(398,609,ls),
(379,520,o),
(344,479,o),
(283,479,cs),
(214,479,o),
(185,529,o),
(203,616,cs),
(217,690,l),
(129,690,l),
(118,636,ls),
(87,492,o),
(150,400,o),
(275,400,cs),
(386,400,o),
(457,472,o),
(487,612,cs),
(499,671,l),
(461,622,l),
(505,622,l),
(373,0,l)
);
}
);
width = 575;
}
);
metricLeft = "=|neBlackfoot-canadian";
metricRight = "nunavuth-canadian";
note = uni15BB;
unicode = 5563;
},
{
glyphname = "keBlackfoot-canadian";
lastChange = "2023-01-13 15:55:37 +0000";
layers = (
{
layerId = "9563F490-07F6-43DA-A81C-32B2684714C2";
shapes = (
{
closed = 1;
nodes = (
(99,0,l),
(224,585,l),
(190,585,l),
(263,256,l),
(303,256,l),
(584,690,l),
(484,690,l),
(272,358,l),
(311,354,l),
(239,690,l),
(156,690,l),
(9,0,l)
);
}
);
width = 508;
}
);
metricLeft = "nunavuth-canadian";
note = uni15BC;
unicode = 5564;
},
{
glyphname = "kiBlackfoot-canadian";
lastChange = "2023-01-13 15:55:37 +0000";
layers = (
{
layerId = "9563F490-07F6-43DA-A81C-32B2684714C2";
shapes = (
{
closed = 1;
nodes = (
(69,1,l),
(280,331,l),
(242,336,l),
(314,1,l),
(397,1,l),
(544,691,l),
(454,691,l),
(329,104,l),
(362,104,l),
(290,435,l),
(249,435,l),
(-31,1,l)
);
}
);
width = 508;
}
);
metricLeft = "=|keBlackfoot-canadian";
metricRight = "nunavuth-canadian";
note = uni15BD;
unicode = 5565;
},
{
glyphname = "koBlackfoot-canadian";
lastChange = "2023-01-13 15:55:40 +0000";
layers = (
{
layerId = "9563F490-07F6-43DA-A81C-32B2684714C2";
shapes = (
{
closed = 1;
nodes = (
(92,0,l),
(317,332,l),
(273,338,l),
(346,0,l),
(438,0,l),
(341,434,l),
(300,434,l),
(88,104,l),
(121,104,l),
(245,690,l),
(156,690,l),
(9,0,l)
);
}
);
width = 509;
}
);
metricLeft = "nunavuth-canadian";
metricRight = "keBlackfoot-canadian";
note = uni15BE;
unicode = 5566;
},
{
glyphname = "kaBlackfoot-canadian";
lastChange = "2023-01-13 15:55:40 +0000";
layers = (
{
layerId = "9563F490-07F6-43DA-A81C-32B2684714C2";
shapes = (
{
closed = 1;
nodes = (
(397,1,l),
(544,691,l),
(461,691,l),
(236,358,l),
(279,353,l),
(207,691,l),
(116,691,l),
(212,256,l),
(252,256,l),
(465,586,l),
(432,586,l),
(307,1,l)
);
}
);
width = 508;
}
);
metricLeft = "=|keBlackfoot-canadian";
metricRight = "nunavuth-canadian";
note = uni15BF;
unicode = 5567;
},
{
color = 9;
glyphname = "heSayisi-canadian";
lastChange = "2023-01-13 15:55:37 +0000";
layers = (
{
anchors = (
{
name = top_right_can;
pos = (536,690);
}
);
layerId = "9563F490-07F6-43DA-A81C-32B2684714C2";
shapes = (
{
closed = 1;
nodes = (
(435,0,l),
(582,690,l),
(492,690,l),
(407,289,l),
(424,288,l),
(473,553,o),
(426,702,o),
(291,702,cs),
(193,702,o),
(126,624,o),
(93,475,cs),
(82,425,o),
(76,381,o),
(75,336,c),
(161,336,l),
(162,377,o),
(167,418,o),
(178,465,cs),
(199,566,o),
(242,623,o),
(302,623,cs),
(417,623,o),
(435,418,o),
(344,0,c)
);
}
);
width = 546;
}
);
metricRight = "nunavuth-canadian";
note = uni15C0;
unicode = 5568;
},
{
color = 9;
glyphname = "hiSayisi-canadian";
lastChange = "2023-01-13 15:55:40 +0000";
layers = (
{
layerId = "9563F490-07F6-43DA-A81C-32B2684714C2";
shapes = (
{
closed = 1;
nodes = (
(99,0,l),
(187,412,o),
(287,623,o),
(394,623,cs),
(459,623,o),
(481,550,o),
(455,423,cs),
(447,387,o),
(439,361,o),
(427,336,c),
(513,336,l),
(526,368,o),
(536,399,o),
(543,429,cs),
(578,597,o),
(532,702,o),
(426,702,cs),
(306,702,o),
(208,564,o),
(149,311,c),
(164,310,l),
(245,690,l),
(156,690,l),
(9,0,l)
);
}
);
width = 546;
}
);
metricLeft = "nunavuth-canadian";
metricRight = "=|heSayisi-canadian";
note = uni15C1;
unicode = 5569;
},
{
color = 9;
glyphname = "hoSayisi-canadian";
lastChange = "2023-01-13 15:55:40 +0000";
layers = (
{
anchors = (
{
name = top_center_can;
pos = (365,690);
},
{
name = top_left_can;
pos = (193,690);
},
{
name = top_right_can;
pos = (539,690);
}
);
layerId = "9563F490-07F6-43DA-A81C-32B2684714C2";
shapes = (
{
closed = 1;
nodes = (
(285,-13,o),
(384,126,o),
(442,379,c),
(428,380,l),
(347,0,l),
(437,0,l),
(583,690,l),
(493,690,l),
(405,278,o),
(305,67,o),
(198,67,cs),
(133,67,o),
(110,140,o),
(137,267,cs),
(145,302,o),
(154,328,o),
(164,354,c),
(78,354,l),
(66,322,o),
(55,291,o),
(48,261,cs),
(15,93,o),
(60,-13,o),
(166,-13,cs)
);
}
);
width = 548;
}
);
metricLeft = "heSayisi-canadian";
metricRight = "nunavuth-canadian";
note = uni15C2;
unicode = 5570;
},
{
color = 9;
glyphname = "haSayisi-canadian";
lastChange = "2023-01-13 15:55:37 +0000";
layers = (
{
layerId = "9563F490-07F6-43DA-A81C-32B2684714C2";
shapes = (
{
closed = 1;
nodes = (
(396,-13,o),
(464,66,o),
(497,214,cs),
(508,265,o),
(514,309,o),
(515,354,c),
(429,354,l),
(428,313,o),
(423,271,o),
(412,225,cs),
(391,124,o),
(348,67,o),
(288,67,cs),
(172,67,o),
(155,271,o),
(245,690,c),
(156,690,l),
(9,0,l),
(99,0,l),
(183,401,l),
(166,402,l),
(116,137,o),
(163,-13,o),
(298,-13,cs)
);
}
);
width = 545;
}
);
metricLeft = "nunavuth-canadian";
metricRight = "=|heSayisi-canadian";
note = uni15C3;
unicode = 5571;
},
{
color = 9;
glyphname = "ghuCarrier-canadian";
lastChange = "2023-01-13 15:55:40 +0000";
layers = (
{
layerId = "9563F490-07F6-43DA-A81C-32B2684714C2";
shapes = (
{
closed = 1;
nodes = (
(252,0,l),
(642,665,l),
(647,690,l),
(569,690,l),
(442,465,l),
(478,481,l),
(195,481,l),
(224,464,l),
(192,690,l),
(121,690,l),
(115,665,l),
(222,0,l)
);
},
{
closed = 1;
nodes = (
(441,413,l),
(424,430,l),
(247,119,l),
(274,114,l),
(229,427,l),
(205,413,l)
);
}
);
width = 575;
}
);
metricLeft = "e-canadian";
metricRight = "e-canadian";
note = uni15C4;
unicode = 5572;
},
{
color = 9;
glyphname = "ghoCarrier-canadian";
lastChange = "2023-01-13 15:55:40 +0000";
layers = (
{
layerId = "9563F490-07F6-43DA-A81C-32B2684714C2";
shapes = (
{
closed = 1;
nodes = (
(52,0,l),
(180,225,l),
(143,209,l),
(426,209,l),
(397,226,l),
(428,0,l),
(500,0,l),
(505,25,l),
(399,690,l),
(368,690,l),
(-21,25,l),
(-27,0,l)
);
},
{
closed = 1;
nodes = (
(405,349,l),
(221,353,l),
(239,263,l),
(384,498,l),
(305,499,l),
(350,259,l)
);
}
);
width = 575;
}
);
metricLeft = "e-canadian";
metricRight = "e-canadian";
note = uni15C5;
unicode = 5573;
},
{
color = 9;
glyphname = "gheCarrier-canadian";
lastChange = "2023-01-13 15:55:37 +0000";
layers = (
{
anchors = (
{
name = middle_center_can;
pos = (85,354);
}
);
layerId = "9563F490-07F6-43DA-A81C-32B2684714C2";
shapes = (
{
closed = 1;
nodes = (
(13,0,l),
(516,328,l),
(523,361,l),
(159,690,l),
(136,690,l),
(122,625,l),
(240,519,l),
(232,576,l),
(138,136,l),
(165,186,l),
(7,82,l),
(-11,0,l)
);
},
{
closed = 1;
nodes = (
(287,536,l),
(261,510,l),
(460,327,l),
(463,375,l),
(199,201,l),
(210,176,l)
);
}
);
width = 526;
}
);
metricLeft = "po-canadian";
metricRight = "o-canadian";
note = uni15C6;
unicode = 5574;
},
{
color = 9;
glyphname = "ghaCarrier-canadian";
lastChange = "2023-01-13 15:55:40 +0000";
layers = (
{
layerId = "9563F490-07F6-43DA-A81C-32B2684714C2";
shapes = (
{
closed = 1;
nodes = (
(436,0,l),
(449,65,l),
(332,171,l),
(340,114,l),
(434,554,l),
(407,503,l),
(565,608,l),
(582,690,l),
(559,690,l),
(56,361,l),
(48,328,l),
(412,0,l)
);
},
{
closed = 1;
nodes = (
(310,180,l),
(126,351,l),
(124,324,l),
(373,489,l),
(357,497,l),
(291,179,l)
);
}
);
width = 527;
}
);
metricLeft = "=|o-canadian";
metricRight = "=|po-canadian";
note = uni15C9;
unicode = 5577;
},
{
color = 9;
glyphname = "ruCarrier-canadian";
lastChange = "2023-01-13 15:55:40 +0000";
layers = (
{
layerId = "9563F490-07F6-43DA-A81C-32B2684714C2";
shapes = (
{
closed = 1;
nodes = (
(252,0,l),
(642,665,l),
(647,690,l),
(566,690,l),
(513,595,l),
(543,612,l),
(180,612,l),
(206,594,l),
(192,690,l),
(121,690,l),
(115,665,l),
(222,0,l)
);
},
{
closed = 1;
nodes = (
(507,545,l),
(498,563,l),
(247,121,l),
(274,116,l),
(210,560,l),
(188,545,l)
);
}
);
width = 575;
}
);
metricLeft = "e-canadian";
metricRight = "e-canadian";
note = uni15CA;
unicode = 5578;
},
{
color = 9;
glyphname = "roCarrier-canadian";
lastChange = "2023-01-13 15:55:40 +0000";
layers = (
{
layerId = "9563F490-07F6-43DA-A81C-32B2684714C2";
shapes = (
{
closed = 1;
nodes = (
(368,690,l),
(-21,25,l),
(-27,0,l),
(55,0,l),
(108,95,l),
(78,77,l),
(441,77,l),
(415,96,l),
(429,0,l),
(499,0,l),
(505,25,l),
(399,690,l)
);
},
{
closed = 1;
nodes = (
(113,145,l),
(123,127,l),
(374,569,l),
(346,574,l),
(412,129,l),
(433,145,l)
);
}
);
width = 574;
}
);
metricLeft = "e-canadian";
metricRight = "e-canadian";
note = uni15CB;
unicode = 5579;
},
{
color = 9;
glyphname = "reCarrier-canadian";
lastChange = "2023-01-13 15:55:40 +0000";
layers = (
{
layerId = "9563F490-07F6-43DA-A81C-32B2684714C2";
shapes = (
{
closed = 1;
nodes = (
(14,0,l),
(516,328,l),
(523,361,l),
(160,690,l),
(136,690,l),
(123,627,l),
(184,571,l),
(176,627,l),
(60,82,l),
(83,130,l),
(7,79,l),
(-11,0,l)
);
},
{
closed = 1;
nodes = (
(231,578,l),
(207,551,l),
(449,327,l),
(453,374,l),
(127,156,l),
(136,130,l)
);
}
);
width = 526;
}
);
metricLeft = "po-canadian";
metricRight = "o-canadian";
note = uni15CC;
unicode = 5580;
},
{
color = 9;
glyphname = "reeCarrier-canadian";
lastChange = "2023-01-13 15:55:37 +0000";
layers = (
{
layerId = "9563F490-07F6-43DA-A81C-32B2684714C2";
shapes = (
{
closed = 1;
nodes = (
(13,0,l),
(516,328,l),
(523,361,l),
(159,690,l),
(136,690,l),
(125,635,l),
(179,584,l),
(177,634,l),
(59,75,l),
(80,124,l),
(5,74,l),
(-11,0,l)
);
},
{
closed = 1;
nodes = (
(226,597,l),
(204,569,l),
(469,327,l),
(472,375,l),
(111,137,l),
(124,111,l)
);
},
{
closed = 1;
nodes = (
(239,270,l),
(274,435,l),
(241,435,l),
(205,270,l)
);
}
);
width = 526;
}
);
metricLeft = "po-canadian";
metricRight = "o-canadian";
note = uni15CD;
unicode = 5581;
},
{
color = 9;
glyphname = "riCarrier-canadian";
lastChange = "2023-01-13 15:55:37 +0000";
layers = (
{
layerId = "9563F490-07F6-43DA-A81C-32B2684714C2";
shapes = (
{
closed = 1;
nodes = (
(13,0,l),
(516,328,l),
(523,361,l),
(159,690,l),
(136,690,l),
(125,635,l),
(181,582,l),
(177,634,l),
(59,75,l),
(84,126,l),
(5,74,l),
(-11,0,l)
);
},
{
closed = 1;
nodes = (
(294,317,o),
(312,333,o),
(312,355,cs),
(312,376,o),
(294,391,o),
(273,391,cs),
(254,391,o),
(237,376,o),
(237,355,cs),
(237,333,o),
(254,317,o),
(273,317,cs)
);
},
{
closed = 1;
nodes = (
(226,597,l),
(202,571,l),
(469,327,l),
(472,375,l),
(113,139,l),
(124,111,l)
);
}
);
width = 526;
}
);
metricLeft = "po-canadian";
metricRight = "o-canadian";
note = uni15CE;
unicode = 5582;
},
{
color = 9;
glyphname = "raCarrier-canadian";
lastChange = "2023-01-13 15:55:40 +0000";
layers = (
{
layerId = "9563F490-07F6-43DA-A81C-32B2684714C2";
shapes = (
{
closed = 1;
nodes = (
(436,0,l),
(449,63,l),
(388,119,l),
(396,63,l),
(511,608,l),
(488,559,l),
(565,611,l),
(582,690,l),
(558,690,l),
(56,361,l),
(48,328,l),
(412,0,l)
);
},
{
closed = 1;
nodes = (
(365,139,l),
(122,362,l),
(119,316,l),
(445,533,l),
(436,559,l),
(341,112,l)
);
}
);
width = 527;
}
);
metricLeft = "=|o-canadian";
metricRight = "=|po-canadian";
note = uni15CF;
unicode = 5583;
},
{
color = 9;
glyphname = "wuCarrier-canadian";
lastChange = "2023-01-13 15:55:37 +0000";
layers = (
{
layerId = "9563F490-07F6-43DA-A81C-32B2684714C2";
shapes = (
{
closed = 1;
nodes = (
(257,0,l),
(650,665,l),
(656,690,l),
(578,690,l),
(297,188,l),
(313,187,l),
(420,690,l),
(350,690,l),
(242,185,l),
(261,185,l),
(187,690,l),
(121,690,l),
(115,665,l),
(226,0,l)
);
}
);
width = 584;
}
);
metricLeft = "e-canadian";
metricRight = "e-canadian";
note = uni15D0;
unicode = 5584;
},
{
color = 9;
glyphname = "woCarrier-canadian";
lastChange = "2023-01-13 15:55:37 +0000";
layers = (
{
layerId = "9563F490-07F6-43DA-A81C-32B2684714C2";
shapes = (
{
closed = 1;
nodes = (
(51,0,l),
(333,501,l),
(316,502,l),
(209,0,l),
(279,0,l),
(386,504,l),
(368,504,l),
(441,0,l),
(508,0,l),
(514,25,l),
(403,690,l),
(373,690,l),
(-21,25,l),
(-27,0,l)
);
}
);
width = 583;
}
);
metricLeft = "e-canadian";
metricRight = "e-canadian";
note = uni15D1;
unicode = 5585;
},
{
color = 9;
glyphname = "weCarrier-canadian";
lastChange = "2023-01-13 15:55:37 +0000";
layers = (
{
layerId = "9563F490-07F6-43DA-A81C-32B2684714C2";
shapes = (
{
closed = 1;
nodes = (
(31,0,l),
(534,328,l),
(541,361,l),
(178,690,l),
(155,690,l),
(141,625,l),
(415,375,l),
(420,389,l),
(91,389,l),
(75,320,l),
(406,320,l),
(410,332,l),
(25,81,l),
(8,0,l)
);
}
);
width = 544;
}
);
metricRight = "o-canadian";
note = uni15D2;
unicode = 5586;
},
{
color = 9;
glyphname = "weeCarrier-canadian";
lastChange = "2023-01-13 15:55:37 +0000";
layers = (
{
layerId = "9563F490-07F6-43DA-A81C-32B2684714C2";
shapes = (
{
closed = 1;
nodes = (
(31,0,l),
(534,328,l),
(541,361,l),
(178,690,l),
(155,690,l),
(142,630,l),
(445,357,l),
(455,384,l),
(206,384,l),
(221,454,l),
(172,454,l),
(156,384,l),
(89,384,l),
(77,327,l),
(144,327,l),
(129,256,l),
(179,256,l),
(193,327,l),
(443,327,l),
(434,343,l),
(24,76,l),
(8,0,l)
);
}
);
width = 544;
}
);
metricLeft = "weCarrier-canadian";
metricRight = "o-canadian";
note = uni15D3;
unicode = 5587;
},
{
color = 9;
glyphname = "wiCarrier-canadian";
lastChange = "2023-01-13 15:55:37 +0000";
layers = (
{
layerId = "9563F490-07F6-43DA-A81C-32B2684714C2";
shapes = (
{
closed = 1;
nodes = (
(31,0,l),
(534,328,l),
(541,361,l),
(178,690,l),
(155,690,l),
(142,630,l),
(429,371,l),
(438,385,l),
(255,385,l),
(245,407,o),
(223,422,o),
(198,422,cs),
(173,422,o),
(151,407,o),
(141,385,c),
(90,385,l),
(77,328,l),
(141,328,l),
(151,307,o),
(173,292,o),
(198,292,cs),
(223,292,o),
(244,307,o),
(254,328,c),
(426,328,l),
(421,335,l),
(24,77,l),
(8,0,l)
);
}
);
width = 544;
}
);
metricLeft = "weCarrier-canadian";
metricRight = "o-canadian";
note = uni15D4;
unicode = 5588;
},
{
color = 9;
glyphname = "waCarrier-canadian";
lastChange = "2023-01-13 15:55:37 +0000";
layers = (
{
layerId = "9563F490-07F6-43DA-A81C-32B2684714C2";
shapes = (
{
closed = 1;
nodes = (
(435,0,l),
(448,65,l),
(174,315,l),
(169,300,l),
(498,300,l),
(513,370,l),
(184,370,l),
(181,357,l),
(564,609,l),
(582,690,l),
(557,690,l),
(56,361,l),
(48,328,l),
(411,0,l)
);
}
);
width = 544;
}
);
metricLeft = "=|o-canadian";
metricRight = "=|weCarrier-canadian";
note = uni15D5;
unicode = 5589;
},
{
color = 9;
glyphname = "hwuCarrier-canadian";
lastChange = "2023-01-13 15:55:37 +0000";
layers = (
{
layerId = "9563F490-07F6-43DA-A81C-32B2684714C2";
shapes = (
{
closed = 1;
nodes = (
(257,0,l),
(650,665,l),
(656,690,l),
(583,690,l),
(462,478,l),
(487,491,l),
(369,491,l),
(412,690,l),
(356,690,l),
(314,491,l),
(194,491,l),
(215,478,l),
(184,690,l),
(121,690,l),
(115,665,l),
(226,0,l)
);
},
{
closed = 1;
nodes = (
(260,151,l),
(215,457,l),
(199,440,l),
(307,440,l),
(245,151,l)
);
},
{
closed = 1;
nodes = (
(355,440,l),
(461,440,l),
(452,457,l),
(280,153,l),
(293,148,l)
);
}
);
width = 584;
}
);
metricLeft = "e-canadian";
metricRight = "e-canadian";
note = uni15D6;
unicode = 5590;
},
{
color = 9;
glyphname = "hwoCarrier-canadian";
lastChange = "2023-01-13 15:55:37 +0000";
layers = (
{
layerId = "9563F490-07F6-43DA-A81C-32B2684714C2";
shapes = (
{
closed = 1;
nodes = (
(45,0,l),
(167,212,l),
(143,199,l),
(260,199,l),
(217,0,l),
(273,0,l),
(316,199,l),
(435,199,l),
(413,212,l),
(446,0,l),
(508,0,l),
(514,25,l),
(403,690,l),
(373,690,l),
(-21,25,l),
(-27,0,l)
);
},
{
closed = 1;
nodes = (
(349,537,l),
(336,542,l),
(274,249,l),
(169,249,l),
(177,233,l)
);
},
{
closed = 1;
nodes = (
(431,249,l),
(323,249,l),
(384,539,l),
(369,539,l),
(413,233,l)
);
}
);
width = 583;
}
);
metricLeft = "e-canadian";
metricRight = "e-canadian";
note = uni15D7;
unicode = 5591;
},
{
color = 9;
glyphname = "hweCarrier-canadian";
lastChange = "2023-01-13 15:55:37 +0000";
layers = (
{
layerId = "9563F490-07F6-43DA-A81C-32B2684714C2";
shapes = (
{
closed = 1;
nodes = (
(31,0,l),
(534,328,l),
(541,361,l),
(178,690,l),
(155,690,l),
(142,630,l),
(238,544,l),
(203,383,l),
(89,383,l),
(76,323,l),
(190,323,l),
(156,163,l),
(23,76,l),
(8,0,l)
);
},
{
closed = 1;
nodes = (
(240,328,l),
(425,328,l),
(210,189,l)
);
},
{
closed = 1;
nodes = (
(279,516,l),
(432,377,l),
(249,377,l)
);
}
);
width = 544;
}
);
metricLeft = "weCarrier-canadian";
metricRight = "o-canadian";
note = uni15D8;
unicode = 5592;
},
{
color = 9;
glyphname = "hweeCarrier-canadian";
lastChange = "2023-01-13 15:55:37 +0000";
layers = (
{
layerId = "9563F490-07F6-43DA-A81C-32B2684714C2";
shapes = (
{
closed = 1;
nodes = (
(31,0,l),
(534,328,l),
(541,361,l),
(178,690,l),
(155,690,l),
(142,634,l),
(258,531,l),
(225,379,l),
(182,379,l),
(197,452,l),
(156,452,l),
(140,379,l),
(88,379,l),
(77,327,l),
(128,327,l),
(114,256,l),
(156,256,l),
(170,327,l),
(214,327,l),
(182,175,l),
(23,72,l),
(8,0,l)
);
},
{
closed = 1;
nodes = (
(258,331,l),
(429,331,l),
(231,201,l)
);
},
{
closed = 1;
nodes = (
(295,504,l),
(435,376,l),
(268,376,l)
);
}
);
width = 544;
}
);
metricLeft = "weCarrier-canadian";
metricRight = "o-canadian";
note = uni15D9;
unicode = 5593;
},
{
color = 9;
glyphname = "hwiCarrier-canadian";
lastChange = "2023-01-13 15:55:40 +0000";
layers = (
{
layerId = "9563F490-07F6-43DA-A81C-32B2684714C2";
shapes = (
{
closed = 1;
nodes = (
(31,0,l),
(534,328,l),
(541,361,l),
(178,690,l),
(155,690,l),
(143,634,l),
(258,531,l),
(224,375,l),
(202,375,l),
(194,394,o),
(177,408,o),
(156,408,cs),
(134,408,o),
(117,394,o),
(109,375,c),
(88,375,l),
(78,331,l),
(108,331,l),
(116,312,o),
(134,298,o),
(156,298,cs),
(176,298,o),
(194,312,o),
(202,331,c),
(214,331,l),
(182,175,l),
(23,72,l),
(8,0,l)
);
},
{
closed = 1;
nodes = (
(258,331,l),
(428,331,l),
(231,201,l)
);
},
{
closed = 1;
nodes = (
(295,505,l),
(435,375,l),
(268,375,l)
);
}
);
width = 544;
}
);
metricLeft = "weCarrier-canadian";
metricRight = "o-canadian";
note = uni15DA;
unicode = 5594;
},
{
color = 9;
glyphname = "hwaCarrier-canadian";
lastChange = "2023-01-13 15:55:37 +0000";
layers = (
{
layerId = "9563F490-07F6-43DA-A81C-32B2684714C2";
shapes = (
{
closed = 1;
nodes = (
(558,690,l),
(56,361,l),
(48,328,l),
(412,0,l),
(436,0,l),
(448,60,l),
(353,146,l),
(386,307,l),
(500,307,l),
(513,367,l),
(399,367,l),
(433,526,l),
(566,613,l),
(582,690,l)
);
},
{
closed = 1;
nodes = (
(350,361,l),
(165,361,l),
(380,500,l)
);
},
{
closed = 1;
nodes = (
(310,174,l),
(157,313,l),
(340,313,l)
);
}
);
width = 545;
}
);
metricLeft = "=|o-canadian";
metricRight = "=|weCarrier-canadian";
note = uni15DB;
unicode = 5595;
},
{
color = 9;
glyphname = "thuCarrier-canadian";
lastChange = "2023-01-13 15:55:40 +0000";
layers = (
{
layerId = "9563F490-07F6-43DA-A81C-32B2684714C2";
shapes = (
{
closed = 1;
nodes = (
(405,-13,o),
(488,66,o),
(523,226,cs),
(621,690,l),
(153,690,l),
(62,262,ls),
(25,89,o),
(102,-13,o),
(266,-13,cs)
);
},
{
closed = 1;
nodes = (
(225,609,l),
(514,609,l),
(434,236,ls),
(410,121,o),
(359,71,o),
(271,71,cs),
(163,71,o),
(124,132,o),
(150,255,cs)
);
}
);
width = 583;
}
);
metricLeft = "te-canadian";
metricRight = "te-canadian";
note = uni15DC;
unicode = 5596;
},
{
color = 9;
glyphname = "thoCarrier-canadian";
lastChange = "2023-01-13 15:55:40 +0000";
layers = (
{
layerId = "9563F490-07F6-43DA-A81C-32B2684714C2";
shapes = (
{
closed = 1;
nodes = (
(475,0,l),
(566,428,ls),
(603,601,o),
(525,702,o),
(362,702,cs),
(222,702,o),
(139,624,o),
(105,464,cs),
(7,0,l)
);
},
{
closed = 1;
nodes = (
(193,454,ls),
(217,569,o),
(269,618,o),
(356,618,cs),
(464,618,o),
(503,557,o),
(477,435,cs),
(402,81,l),
(114,81,l)
);
}
);
width = 583;
}
);
metricLeft = "te-canadian";
metricRight = "te-canadian";
note = uni15DD;
unicode = 5597;
},
{
color = 9;
glyphname = "theCarrier-canadian";
lastChange = "2023-01-13 15:55:37 +0000";
layers = (
{
anchors = (
{
name = middle_center_can;
pos = (308,345);
}
);
layerId = "9563F490-07F6-43DA-A81C-32B2684714C2";
shapes = (
{
closed = 1;
nodes = (
(174,0,ls),
(463,0,o),
(553,268,o),
(553,444,cs),
(553,602,o),
(465,690,o),
(301,690,cs),
(156,690,l),
(9,0,l)
);
},
{
closed = 1;
nodes = (
(237,648,l),
(203,610,l),
(287,610,ls),
(403,610,o),
(464,552,o),
(464,439,cs),
(464,311,o),
(400,80,o),
(181,80,cs),
(97,80,l),
(108,44,l)
);
}
);
width = 568;
}
);
metricLeft = "nunavuth-canadian";
metricRight = "to-canadian";
note = uni15DE;
unicode = 5598;
},
{
color = 9;
glyphname = "thaCarrier-canadian";
lastChange = "2023-01-13 15:55:40 +0000";
layers = (
{
layerId = "9563F490-07F6-43DA-A81C-32B2684714C2";
shapes = (
{
closed = 1;
nodes = (
(457,0,l),
(604,690,l),
(439,690,ls),
(149,690,o),
(60,422,o),
(60,245,cs),
(60,88,o),
(147,0,o),
(311,0,cs)
);
},
{
closed = 1;
nodes = (
(148,379,o),
(212,610,o),
(431,610,cs),
(516,610,l),
(503,645,l),
(375,42,l),
(410,80,l),
(326,80,ls),
(209,80,o),
(148,138,o),
(148,251,cs)
);
}
);
width = 568;
}
);
metricLeft = "=|theCarrier-canadian";
metricRight = "nunavuth-canadian";
note = uni15E1;
unicode = 5601;
},
{
color = 9;
glyphname = "ttuCarrier-canadian";
lastChange = "2023-01-13 15:55:40 +0000";
layers = (
{
layerId = "9563F490-07F6-43DA-A81C-32B2684714C2";
shapes = (
{
closed = 1;
nodes = (
(404,-13,o),
(488,64,o),
(522,221,cs),
(621,690,l),
(591,690,l),
(311,497,l),
(373,490,l),
(184,690,l),
(153,690,l),
(61,256,ls),
(24,86,o),
(100,-13,o),
(262,-13,cs)
);
},
{
closed = 1;
nodes = (
(164,71,o),
(124,131,o),
(149,249,cs),
(222,596,l),
(185,582,l),
(324,433,l),
(342,433,l),
(541,575,l),
(511,594,l),
(434,231,ls),
(410,121,o),
(358,71,o),
(267,71,cs)
);
}
);
width = 583;
}
);
metricLeft = "te-canadian";
metricRight = "te-canadian";
note = uni15E2;
unicode = 5602;
},
{
color = 9;
glyphname = "ttoCarrier-canadian";
lastChange = "2023-01-13 15:55:40 +0000";
layers = (
{
layerId = "9563F490-07F6-43DA-A81C-32B2684714C2";
shapes = (
{
closed = 1;
nodes = (
(36,0,l),
(317,192,l),
(255,200,l),
(444,0,l),
(475,0,l),
(567,434,ls),
(603,604,o),
(527,702,o),
(365,702,cs),
(223,702,o),
(140,626,o),
(106,469,cs),
(7,0,l)
);
},
{
closed = 1;
nodes = (
(464,618,o),
(503,558,o),
(478,440,cs),
(405,94,l),
(442,107,l),
(304,257,l),
(286,257,l),
(86,115,l),
(117,96,l),
(194,459,ls),
(217,569,o),
(270,618,o),
(360,618,cs)
);
}
);
width = 583;
}
);
metricLeft = "te-canadian";
metricRight = "te-canadian";
note = uni15E3;
unicode = 5603;
},
{
color = 9;
glyphname = "tteCarrier-canadian";
lastChange = "2023-01-13 15:55:40 +0000";
layers = (
{
anchors = (
{
name = middle_center_can;
pos = (350,345);
}
);
layerId = "9563F490-07F6-43DA-A81C-32B2684714C2";
shapes = (
{
closed = 1;
nodes = (
(184,0,ls),
(470,0,o),
(563,266,o),
(563,444,cs),
(563,602,o),
(474,690,o),
(315,690,cs),
(152,690,l),
(146,665,l),
(178,316,l),
(190,392,l),
(11,25,l),
(5,0,l)
);
},
{
closed = 1;
nodes = (
(257,335,l),
(260,352,l),
(232,649,l),
(201,610,l),
(297,610,ls),
(413,610,o),
(474,552,o),
(474,439,cs),
(474,311,o),
(410,80,o),
(191,80,cs),
(95,80,l),
(113,43,l)
);
}
);
width = 578;
}
);
metricRight = "theCarrier-canadian";
note = uni15E4;
unicode = 5604;
},
{
color = 9;
glyphname = "ttaCarrier-canadian";
lastChange = "2023-01-13 15:55:40 +0000";
layers = (
{
layerId = "9563F490-07F6-43DA-A81C-32B2684714C2";
shapes = (
{
closed = 1;
nodes = (
(470,0,l),
(475,25,l),
(444,374,l),
(432,298,l),
(611,665,l),
(616,690,l),
(439,690,ls),
(151,690,o),
(60,424,o),
(60,245,cs),
(60,88,o),
(147,0,o),
(306,0,cs)
);
},
{
closed = 1;
nodes = (
(421,80,l),
(326,80,ls),
(209,80,o),
(148,138,o),
(148,251,cs),
(148,379,o),
(212,610,o),
(431,610,cs),
(527,610,l),
(508,646,l),
(365,355,l),
(361,338,l),
(389,41,l)
);
}
);
width = 576;
}
);
metricLeft = "=|theCarrier-canadian";
metricRight = "=|tteCarrier-canadian";
note = uni15E7;
unicode = 5607;
},
{
color = 9;
glyphname = "puCarrier-canadian";
lastChange = "2023-01-13 15:55:40 +0000";
layers = (
{
layerId = "9563F490-07F6-43DA-A81C-32B2684714C2";
shapes = (
{
closed = 1;
nodes = (
(405,-13,o),
(488,66,o),
(523,226,cs),
(621,690,l),
(530,690,l),
(497,527,l),
(209,527,l),
(242,690,l),
(153,690,l),
(62,262,ls),
(25,89,o),
(102,-13,o),
(266,-13,cs)
);
},
{
closed = 1;
nodes = (
(163,71,o),
(124,132,o),
(150,255,cs),
(191,447,l),
(479,447,l),
(434,236,ls),
(410,121,o),
(359,71,o),
(271,71,cs)
);
}
);
width = 583;
}
);
metricLeft = "te-canadian";
metricRight = "te-canadian";
note = uni15E8;
unicode = 5608;
},
{
color = 9;
glyphname = "poCarrier-canadian";
lastChange = "2023-01-13 15:55:40 +0000";
layers = (
{
layerId = "9563F490-07F6-43DA-A81C-32B2684714C2";
shapes = (
{
closed = 1;
nodes = (
(97,0,l),
(131,162,l),
(419,162,l),
(385,0,l),
(475,0,l),
(566,428,ls),
(603,601,o),
(525,702,o),
(362,702,cs),
(222,702,o),
(139,624,o),
(105,464,cs),
(7,0,l)
);
},
{
closed = 1;
nodes = (
(193,454,ls),
(217,569,o),
(269,618,o),
(356,618,cs),
(464,618,o),
(503,557,o),
(477,435,cs),
(437,242,l),
(148,242,l)
);
}
);
width = 583;
}
);
metricLeft = "te-canadian";
metricRight = "te-canadian";
note = uni15E9;
unicode = 5609;
},
{
color = 9;
glyphname = "peCarrier-canadian";
lastChange = "2023-01-13 15:55:40 +0000";
layers = (
{
anchors = (
{
name = middle_center_can;
pos = (338,345);
}
);
layerId = "9563F490-07F6-43DA-A81C-32B2684714C2";
shapes = (
{
closed = 1;
nodes = (
(181,0,ls),
(469,0,o),
(559,268,o),
(559,444,cs),
(559,602,o),
(472,690,o),
(312,690,cs),
(149,690,l),
(132,610,l),
(200,610,l),
(88,80,l),
(19,80,l),
(2,0,l)
);
},
{
closed = 1;
nodes = (
(298,649,l),
(211,610,l),
(294,610,ls),
(411,610,o),
(471,552,o),
(471,439,cs),
(471,312,o),
(408,80,o),
(188,80,cs),
(99,80,l),
(169,41,l)
);
}
);
width = 574;
}
);
metricRight = "theCarrier-canadian";
note = uni15EA;
unicode = 5610;
},
{
color = 9;
glyphname = "paCarrier-canadian";
lastChange = "2023-01-13 15:55:40 +0000";
layers = (
{
layerId = "9563F490-07F6-43DA-A81C-32B2684714C2";
shapes = (
{
closed = 1;
nodes = (
(470,0,l),
(487,80,l),
(419,80,l),
(531,610,l),
(600,610,l),
(617,690,l),
(439,690,ls),
(150,690,o),
(60,422,o),
(60,245,cs),
(60,88,o),
(147,0,o),
(307,0,cs)
);
},
{
closed = 1;
nodes = (
(409,80,l),
(326,80,ls),
(209,80,o),
(148,138,o),
(148,251,cs),
(148,378,o),
(212,610,o),
(431,610,cs),
(521,610,l),
(450,649,l),
(322,41,l)
);
}
);
width = 574;
}
);
metricLeft = "=|theCarrier-canadian";
metricRight = "=|peCarrier-canadian";
note = uni15ED;
unicode = 5613;
},
{
color = 6;
glyphname = "pCarrier-canadian";
lastChange = "2023-01-13 15:55:40 +0000";
layers = (
{
layerId = "9563F490-07F6-43DA-A81C-32B2684714C2";
shapes = (
{
closed = 1;
nodes = (
(297,183,l),
(310,242,l),
(211,242,l),
(271,527,l),
(210,527,l),
(149,242,l),
(50,242,l),
(37,183,l)
);
}
);
width = 358;
}
);
metricLeft = "shorthorizontalstrokeFinal-canadian";
metricRight = "shorthorizontalstrokeFinal-canadian";
note = uni15EE;
unicode = 5614;
},
{
color = 9;
glyphname = "guCarrier-canadian";
lastChange = "2023-01-13 15:55:37 +0000";
layers = (
{
anchors = (
{
name = top_center_can;
pos = (439,690);
}
);
layerId = "9563F490-07F6-43DA-A81C-32B2684714C2";
shapes = (
{
closed = 1;
nodes = (
(244,-13,o),
(300,31,o),
(337,116,c),
(303,116,l),
(309,34,o),
(355,-13,o),
(435,-13,cs),
(533,-13,o),
(591,50,o),
(617,175,cs),
(726,690,l),
(640,690,l),
(531,177,ls),
(517,105,o),
(485,70,o),
(434,70,cs),
(381,70,o),
(357,108,o),
(373,179,cs),
(481,690,l),
(397,690,l),
(289,178,ls),
(273,106,o),
(240,70,o),
(187,70,cs),
(134,70,o),
(113,107,o),
(128,180,cs),
(237,690,l),
(151,690,l),
(43,183,ls),
(17,62,o),
(64,-13,o),
(168,-13,cs)
);
}
);
width = 686;
}
);
metricRight = "=|";
note = uni15EF;
unicode = 5615;
},
{
color = 9;
glyphname = "goCarrier-canadian";
lastChange = "2023-01-13 15:55:37 +0000";
layers = (
{
layerId = "9563F490-07F6-43DA-A81C-32B2684714C2";
shapes = (
{
closed = 1;
nodes = (
(91,0,l),
(199,513,ls),
(214,584,o),
(246,620,o),
(297,620,cs),
(350,620,o),
(373,582,o),
(358,511,cs),
(249,0,l),
(333,0,l),
(441,512,ls),
(457,583,o),
(491,620,o),
(543,620,cs),
(595,620,o),
(617,582,o),
(602,510,cs),
(494,0,l),
(580,0,l),
(687,507,ls),
(713,628,o),
(667,702,o),
(562,702,cs),
(486,702,o),
(430,659,o),
(393,574,c),
(427,574,l),
(421,656,o),
(375,702,o),
(296,702,cs),
(197,702,o),
(140,639,o),
(114,515,cs),
(4,0,l)
);
}
);
width = 686;
}
);
metricLeft = "guCarrier-canadian";
metricRight = "guCarrier-canadian";
note = uni15F0;
unicode = 5616;
},
{
color = 9;
glyphname = "geCarrier-canadian";
lastChange = "2023-01-13 15:55:40 +0000";
layers = (
{
anchors = (
{
name = top_center_can;
pos = (387,690);
}
);
layerId = "9563F490-07F6-43DA-A81C-32B2684714C2";
shapes = (
{
closed = 1;
nodes = (
(273,0,ls),
(442,0,o),
(509,104,o),
(509,216,cs),
(509,285,o),
(475,337,o),
(414,355,c),
(410,325,l),
(530,350,o),
(577,441,o),
(577,530,cs),
(577,626,o),
(510,690,o),
(407,690,cs),
(157,690,l),
(141,614,l),
(390,614,ls),
(451,614,o),
(487,579,o),
(487,522,cs),
(487,446,o),
(444,382,o),
(342,382,cs),
(92,382,l),
(75,308,l),
(327,308,ls),
(388,308,o),
(422,277,o),
(422,221,cs),
(422,169,o),
(403,75,o),
(278,75,cs),
(26,75,l),
(11,0,l)
);
}
);
width = 577;
}
);
metricLeft = "nunavuth-canadian";
note = uni15F1;
unicode = 5617;
},
{
color = 9;
glyphname = "geeCarrier-canadian";
lastChange = "2023-01-13 15:55:40 +0000";
layers = (
{
layerId = "9563F490-07F6-43DA-A81C-32B2684714C2";
shapes = (
{
closed = 1;
nodes = (
(273,0,ls),
(442,0,o),
(509,104,o),
(509,216,cs),
(509,285,o),
(475,337,o),
(414,355,c),
(410,325,l),
(530,350,o),
(577,441,o),
(577,530,cs),
(577,626,o),
(510,690,o),
(407,690,cs),
(157,690,l),
(141,614,l),
(390,614,ls),
(451,614,o),
(487,579,o),
(487,522,cs),
(487,446,o),
(444,382,o),
(342,382,cs),
(312,382,l),
(329,463,l),
(275,463,l),
(258,382,l),
(92,382,l),
(75,308,l),
(243,308,l),
(225,229,l),
(279,229,l),
(297,308,l),
(327,308,ls),
(388,308,o),
(422,277,o),
(422,221,cs),
(422,169,o),
(403,75,o),
(278,75,cs),
(26,75,l),
(11,0,l)
);
}
);
width = 577;
}
);
metricLeft = "geCarrier-canadian";
metricRight = "geCarrier-canadian";
note = uni15F2;
unicode = 5618;
},
{
color = 9;
glyphname = "giCarrier-canadian";
lastChange = "2023-01-13 15:55:40 +0000";
layers = (
{
layerId = "9563F490-07F6-43DA-A81C-32B2684714C2";
shapes = (
{
closed = 1;
nodes = (
(273,0,ls),
(442,0,o),
(509,104,o),
(509,216,cs),
(509,285,o),
(476,336,o),
(414,355,c),
(411,325,l),
(530,350,o),
(577,442,o),
(577,530,cs),
(577,626,o),
(510,690,o),
(407,690,cs),
(157,690,l),
(141,614,l),
(390,614,ls),
(451,614,o),
(487,579,o),
(487,522,cs),
(487,446,o),
(444,382,o),
(342,382,cs),
(325,382,l),
(350,357,l),
(346,391,o),
(317,417,o),
(280,417,cs),
(254,417,o),
(232,403,o),
(221,382,c),
(92,382,l),
(75,308,l),
(221,308,l),
(232,287,o),
(254,272,o),
(280,272,cs),
(316,272,o),
(345,298,o),
(349,332,c),
(312,308,l),
(327,308,ls),
(388,308,o),
(422,277,o),
(422,221,cs),
(422,169,o),
(403,75,o),
(278,75,cs),
(26,75,l),
(11,0,l)
);
}
);
width = 577;
}
);
metricLeft = "geCarrier-canadian";
metricRight = "geCarrier-canadian";
note = uni15F3;
unicode = 5619;
},
{
color = 9;
glyphname = "gaCarrier-canadian";
lastChange = "2023-01-13 15:55:37 +0000";
layers = (
{
anchors = (
{
name = top_center_can;
pos = (396,690);
}
);
layerId = "9563F490-07F6-43DA-A81C-32B2684714C2";
shapes = (
{
closed = 1;
nodes = (
(465,0,l),
(481,75,l),
(231,75,ls),
(170,75,o),
(134,111,o),
(134,168,cs),
(134,243,o),
(178,308,o),
(279,308,cs),
(531,308,l),
(547,382,l),
(296,382,ls),
(233,382,o),
(199,412,o),
(199,469,cs),
(199,521,o),
(218,614,o),
(343,614,cs),
(595,614,l),
(611,690,l),
(349,690,ls),
(180,690,o),
(112,585,o),
(112,473,cs),
(112,405,o),
(146,353,o),
(207,334,c),
(212,365,l),
(92,340,o),
(44,248,o),
(44,159,cs),
(44,64,o),
(111,0,o),
(214,0,cs)
);
}
);
width = 577;
}
);
metricLeft = "=|geCarrier-canadian";
metricRight = "=|geCarrier-canadian";
note = uni15F4;
unicode = 5620;
},
{
color = 9;
glyphname = "khuCarrier-canadian";
lastChange = "2023-01-13 15:55:37 +0000";
layers = (
{
layerId = "9563F490-07F6-43DA-A81C-32B2684714C2";
shapes = (
{
closed = 1;
nodes = (
(241,-13,o),
(296,26,o),
(331,104,c),
(304,106,l),
(313,30,o),
(359,-13,o),
(435,-13,cs),
(533,-13,o),
(591,50,o),
(617,175,cs),
(726,690,l),
(151,690,l),
(43,183,ls),
(17,62,o),
(64,-13,o),
(168,-13,cs)
);
},
{
closed = 1;
nodes = (
(134,70,o),
(113,107,o),
(128,180,cs),
(220,611,l),
(381,611,l),
(289,178,ls),
(273,106,o),
(240,70,o),
(187,70,cs)
);
},
{
closed = 1;
nodes = (
(381,70,o),
(357,108,o),
(373,179,cs),
(465,611,l),
(623,611,l),
(531,177,ls),
(517,105,o),
(485,70,o),
(434,70,cs)
);
}
);
width = 686;
}
);
metricLeft = "guCarrier-canadian";
metricRight = "guCarrier-canadian";
note = uni15F5;
unicode = 5621;
},
{
color = 9;
glyphname = "khoCarrier-canadian";
lastChange = "2023-01-13 15:55:37 +0000";
layers = (
{
layerId = "9563F490-07F6-43DA-A81C-32B2684714C2";
shapes = (
{
closed = 1;
nodes = (
(580,0,l),
(687,507,ls),
(713,628,o),
(667,702,o),
(562,702,cs),
(490,702,o),
(435,664,o),
(399,585,c),
(426,583,l),
(417,660,o),
(371,702,o),
(296,702,cs),
(197,702,o),
(140,639,o),
(114,515,cs),
(4,0,l)
);
},
{
closed = 1;
nodes = (
(199,513,ls),
(213,584,o),
(245,620,o),
(297,620,cs),
(350,620,o),
(373,582,o),
(357,511,cs),
(266,79,l),
(107,79,l)
);
},
{
closed = 1;
nodes = (
(441,512,ls),
(457,583,o),
(491,620,o),
(543,620,cs),
(595,620,o),
(617,582,o),
(602,510,cs),
(510,79,l),
(350,79,l)
);
}
);
width = 686;
}
);
metricLeft = "guCarrier-canadian";
metricRight = "guCarrier-canadian";
note = uni15F6;
unicode = 5622;
},
{
color = 9;
glyphname = "kheCarrier-canadian";
lastChange = "2023-01-13 15:55:37 +0000";
layers = (
{
layerId = "9563F490-07F6-43DA-A81C-32B2684714C2";
shapes = (
{
closed = 1;
nodes = (
(275,0,ls),
(444,0,o),
(512,103,o),
(512,215,cs),
(512,284,o),
(479,334,o),
(418,355,c),
(416,326,l),
(543,354,o),
(579,452,o),
(579,530,cs),
(579,626,o),
(512,690,o),
(408,690,cs),
(156,690,l),
(9,0,l)
);
},
{
closed = 1;
nodes = (
(163,308,l),
(328,308,ls),
(391,308,o),
(425,277,o),
(425,221,cs),
(425,167,o),
(404,74,o),
(280,74,cs),
(114,74,l)
);
},
{
closed = 1;
nodes = (
(229,615,l),
(393,615,ls),
(454,615,o),
(489,579,o),
(489,522,cs),
(489,451,o),
(451,382,o),
(344,382,cs),
(180,382,l)
);
}
);
width = 579;
}
);
metricLeft = "nunavuth-canadian";
metricRight = "geCarrier-canadian";
note = uni15F7;
unicode = 5623;
},
{
color = 9;
glyphname = "kheeCarrier-canadian";
lastChange = "2023-01-13 15:55:37 +0000";
layers = (
{
layerId = "9563F490-07F6-43DA-A81C-32B2684714C2";
shapes = (
{
closed = 1;
nodes = (
(275,0,ls),
(444,0,o),
(512,103,o),
(512,215,cs),
(512,284,o),
(479,334,o),
(418,355,c),
(416,326,l),
(543,354,o),
(579,452,o),
(579,530,cs),
(579,626,o),
(512,690,o),
(408,690,cs),
(156,690,l),
(9,0,l)
);
},
{
closed = 1;
nodes = (
(163,308,l),
(268,308,l),
(249,224,l),
(300,224,l),
(322,326,l),
(295,308,l),
(328,308,ls),
(391,308,o),
(425,277,o),
(425,221,cs),
(425,167,o),
(404,74,o),
(280,74,cs),
(114,74,l)
);
},
{
closed = 1;
nodes = (
(352,468,l),
(301,468,l),
(283,382,l),
(180,382,l),
(229,615,l),
(393,615,ls),
(454,615,o),
(489,579,o),
(489,522,cs),
(489,451,o),
(451,382,o),
(344,382,cs),
(311,382,l),
(330,364,l)
);
}
);
width = 579;
}
);
metricLeft = "nunavuth-canadian";
metricRight = "geCarrier-canadian";
note = uni15F8;
unicode = 5624;
},
{
color = 9;
glyphname = "khiCarrier-canadian";
lastChange = "2023-01-13 15:55:37 +0000";
layers = (
{
layerId = "9563F490-07F6-43DA-A81C-32B2684714C2";
shapes = (
{
closed = 1;
nodes = (
(275,0,ls),
(444,0,o),
(512,103,o),
(512,215,cs),
(512,282,o),
(481,331,o),
(424,354,c),
(413,325,l),
(542,353,o),
(579,452,o),
(579,530,cs),
(579,626,o),
(512,690,o),
(408,690,cs),
(156,690,l),
(9,0,l)
);
},
{
closed = 1;
nodes = (
(164,312,l),
(242,312,l),
(251,289,o),
(275,272,o),
(302,272,cs),
(338,272,o),
(367,302,o),
(370,339,c),
(310,312,l),
(332,312,ls),
(395,312,o),
(425,280,o),
(425,223,cs),
(425,168,o),
(404,74,o),
(280,74,cs),
(114,74,l)
);
},
{
closed = 1;
nodes = (
(393,615,ls),
(454,615,o),
(489,578,o),
(489,520,cs),
(489,449,o),
(455,378,o),
(348,378,cs),
(320,378,l),
(371,351,l),
(368,388,o),
(339,417,o),
(302,417,cs),
(266,417,o),
(236,388,o),
(234,351,c),
(258,378,l),
(179,378,l),
(229,615,l)
);
}
);
width = 579;
}
);
metricLeft = "nunavuth-canadian";
metricRight = "geCarrier-canadian";
note = uni15F9;
unicode = 5625;
},
{
color = 9;
glyphname = "khaCarrier-canadian";
lastChange = "2023-01-13 15:55:40 +0000";
layers = (
{
layerId = "9563F490-07F6-43DA-A81C-32B2684714C2";
shapes = (
{
closed = 1;
nodes = (
(470,0,l),
(616,690,l),
(350,690,ls),
(181,690,o),
(113,586,o),
(113,474,cs),
(113,406,o),
(147,355,o),
(207,335,c),
(209,364,l),
(82,336,o),
(45,238,o),
(45,159,cs),
(45,64,o),
(112,0,o),
(216,0,cs)
);
},
{
closed = 1;
nodes = (
(170,74,o),
(135,111,o),
(135,168,cs),
(135,239,o),
(174,308,o),
(281,308,cs),
(446,308,l),
(396,74,l),
(231,74,ls)
);
},
{
closed = 1;
nodes = (
(235,382,o),
(201,412,o),
(201,469,cs),
(201,523,o),
(222,615,o),
(345,615,cs),
(511,615,l),
(462,382,l),
(297,382,ls)
);
}
);
width = 581;
}
);
metricLeft = "=|geCarrier-canadian";
metricRight = "nunavuth-canadian";
note = uni15FA;
unicode = 5626;
},
{
color = 9;
glyphname = "kkuCarrier-canadian";
lastChange = "2023-01-13 15:55:37 +0000";
layers = (
{
layerId = "9563F490-07F6-43DA-A81C-32B2684714C2";
shapes = (
{
closed = 1;
nodes = (
(241,-13,o),
(295,26,o),
(331,104,c),
(304,104,l),
(313,30,o),
(359,-13,o),
(435,-13,cs),
(533,-13,o),
(590,50,o),
(617,175,cs),
(726,690,l),
(696,690,l),
(430,536,l),
(412,443,l),
(650,582,l),
(623,610,l),
(531,177,ls),
(517,105,o),
(485,70,o),
(434,70,cs),
(381,70,o),
(357,110,o),
(372,179,cs),
(480,690,l),
(398,690,l),
(289,178,ls),
(274,106,o),
(240,70,o),
(187,70,cs),
(134,70,o),
(113,107,o),
(128,180,cs),
(219,610,l),
(179,597,l),
(358,456,l),
(376,538,l),
(182,690,l),
(151,690,l),
(43,183,ls),
(17,61,o),
(64,-13,o),
(168,-13,cs)
);
}
);
width = 686;
}
);
metricLeft = "guCarrier-canadian";
metricRight = "guCarrier-canadian";
note = uni15FB;
unicode = 5627;
},
{
color = 9;
glyphname = "kkoCarrier-canadian";
lastChange = "2023-01-13 15:55:37 +0000";
layers = (
{
layerId = "9563F490-07F6-43DA-A81C-32B2684714C2";
shapes = (
{
closed = 1;
nodes = (
(35,0,l),
(299,154,l),
(318,246,l),
(80,108,l),
(107,80,l),
(199,513,ls),
(214,584,o),
(245,620,o),
(297,620,cs),
(350,620,o),
(373,580,o),
(358,511,cs),
(250,0,l),
(332,0,l),
(440,512,ls),
(456,583,o),
(491,620,o),
(543,620,cs),
(595,620,o),
(617,582,o),
(602,510,cs),
(510,80,l),
(551,93,l),
(372,234,l),
(355,152,l),
(549,0,l),
(580,0,l),
(687,507,ls),
(713,629,o),
(667,702,o),
(562,702,cs),
(490,702,o),
(435,664,o),
(399,585,c),
(426,585,l),
(417,660,o),
(371,702,o),
(296,702,cs),
(197,702,o),
(140,639,o),
(114,515,cs),
(4,0,l)
);
}
);
width = 686;
}
);
metricLeft = "guCarrier-canadian";
metricRight = "guCarrier-canadian";
note = uni15FC;
unicode = 5628;
},
{
color = 9;
glyphname = "kkeCarrier-canadian";
lastChange = "2023-01-13 15:55:40 +0000";
layers = (
{
layerId = "9563F490-07F6-43DA-A81C-32B2684714C2";
shapes = (
{
closed = 1;
nodes = (
(289,0,ls),
(458,0,o),
(526,104,o),
(526,216,cs),
(526,285,o),
(493,334,o),
(432,355,c),
(429,326,l),
(555,354,o),
(592,452,o),
(592,530,cs),
(592,626,o),
(526,690,o),
(422,690,cs),
(155,690,l),
(149,665,l),
(174,382,l),
(94,382,l),
(78,308,l),
(154,308,l),
(14,25,l),
(8,0,l)
);
},
{
closed = 1;
nodes = (
(244,308,l),
(342,308,ls),
(404,308,o),
(438,277,o),
(438,221,cs),
(438,170,o),
(418,75,o),
(294,75,cs),
(91,75,l),
(111,39,l)
);
},
{
closed = 1;
nodes = (
(233,655,l),
(199,614,l),
(407,614,ls),
(468,614,o),
(502,579,o),
(502,522,cs),
(502,446,o),
(460,382,o),
(357,382,cs),
(259,382,l)
);
}
);
width = 593;
}
);
metricRight = "geCarrier-canadian";
note = uni15FD;
unicode = 5629;
},
{
color = 9;
glyphname = "kkeeCarrier-canadian";
lastChange = "2023-01-13 15:55:40 +0000";
layers = (
{
layerId = "9563F490-07F6-43DA-A81C-32B2684714C2";
shapes = (
{
closed = 1;
nodes = (
(289,0,ls),
(458,0,o),
(526,104,o),
(526,216,cs),
(526,285,o),
(493,334,o),
(432,355,c),
(429,326,l),
(555,354,o),
(592,452,o),
(592,530,cs),
(592,626,o),
(526,690,o),
(422,690,cs),
(155,690,l),
(149,665,l),
(174,382,l),
(94,382,l),
(78,308,l),
(154,308,l),
(14,25,l),
(8,0,l)
);
},
{
closed = 1;
nodes = (
(245,311,l),
(299,311,l),
(282,224,l),
(332,224,l),
(355,329,l),
(327,311,l),
(350,311,ls),
(408,311,o),
(438,277,o),
(438,221,cs),
(438,170,o),
(418,75,o),
(294,75,cs),
(91,75,l),
(111,39,l)
);
},
{
closed = 1;
nodes = (
(384,468,l),
(333,468,l),
(315,380,l),
(259,380,l),
(233,655,l),
(199,614,l),
(407,614,ls),
(468,614,o),
(502,579,o),
(502,522,cs),
(502,446,o),
(460,380,o),
(361,380,cs),
(340,380,l),
(363,365,l)
);
}
);
width = 593;
}
);
metricLeft = "kkeCarrier-canadian";
metricRight = "geCarrier-canadian";
note = uni15FE;
unicode = 5630;
},
{
color = 9;
glyphname = "kkiCarrier-canadian";
lastChange = "2023-01-13 15:55:40 +0000";
layers = (
{
layerId = "9563F490-07F6-43DA-A81C-32B2684714C2";
shapes = (
{
closed = 1;
nodes = (
(289,0,ls),
(458,0,o),
(526,104,o),
(526,216,cs),
(526,285,o),
(493,334,o),
(432,355,c),
(429,326,l),
(555,354,o),
(592,452,o),
(592,530,cs),
(592,626,o),
(526,690,o),
(422,690,cs),
(155,690,l),
(149,665,l),
(174,382,l),
(94,382,l),
(78,308,l),
(154,308,l),
(14,25,l),
(8,0,l)
);
},
{
closed = 1;
nodes = (
(247,314,l),
(265,314,l),
(274,289,o),
(298,272,o),
(326,272,cs),
(355,272,o),
(380,293,o),
(387,321,c),
(326,314,l),
(350,314,ls),
(412,314,o),
(438,277,o),
(438,221,cs),
(438,170,o),
(418,75,o),
(294,75,cs),
(91,75,l),
(111,39,l)
);
},
{
closed = 1;
nodes = (
(384,396,o),
(357,417,o),
(326,417,cs),
(298,417,o),
(274,401,o),
(265,376,c),
(260,376,l),
(233,655,l),
(199,614,l),
(407,614,ls),
(468,614,o),
(502,579,o),
(502,522,cs),
(502,446,o),
(464,376,o),
(361,376,cs),
(327,376,l),
(389,364,l)
);
}
);
width = 593;
}
);
metricLeft = "kkeCarrier-canadian";
metricRight = "geCarrier-canadian";
note = uni15FF;
unicode = 5631;
},
{
color = 9;
glyphname = "kkaCarrier-canadian";
lastChange = "2023-01-13 15:55:40 +0000";
layers = (
{
layerId = "9563F490-07F6-43DA-A81C-32B2684714C2";
shapes = (
{
closed = 1;
nodes = (
(484,0,l),
(489,25,l),
(464,308,l),
(545,308,l),
(560,382,l),
(484,382,l),
(625,665,l),
(631,690,l),
(350,690,ls),
(181,690,o),
(113,585,o),
(113,473,cs),
(113,405,o),
(146,355,o),
(207,335,c),
(209,364,l),
(82,336,o),
(45,238,o),
(45,159,cs),
(45,64,o),
(112,0,o),
(215,0,cs)
);
},
{
closed = 1;
nodes = (
(440,75,l),
(232,75,ls),
(171,75,o),
(135,111,o),
(135,168,cs),
(135,243,o),
(179,308,o),
(281,308,cs),
(379,308,l),
(405,35,l)
);
},
{
closed = 1;
nodes = (
(234,382,o),
(200,412,o),
(200,469,cs),
(200,520,o),
(219,614,o),
(344,614,cs),
(547,614,l),
(527,651,l),
(393,382,l),
(297,382,ls)
);
}
);
width = 593;
}
);
metricLeft = "=|geCarrier-canadian";
metricRight = "=|kkeCarrier-canadian";
note = uni1600;
unicode = 5632;
},
{
color = 6;
glyphname = "kkCarrier-canadian";
lastChange = "2023-01-13 15:55:37 +0000";
layers = (
{
layerId = "9563F490-07F6-43DA-A81C-32B2684714C2";
shapes = (
{
closed = 1;
nodes = (
(294,527,l),
(142,251,l),
(182,251,l),
(147,527,l),
(92,527,l),
(89,514,l),
(142,183,l),
(157,183,l),
(353,514,l),
(355,527,l)
);
}
);
width = 325;
}
);
note = uni1601;
unicode = 5633;
},
{
color = 9;
glyphname = "nuCarrier-canadian";
lastChange = "2023-01-13 15:55:37 +0000";
layers = (
{
layerId = "9563F490-07F6-43DA-A81C-32B2684714C2";
shapes = (
{
closed = 1;
nodes = (
(400,-13,o),
(491,75,o),
(526,237,cs),
(539,301,l),
(450,301,l),
(437,241,ls),
(413,128,o),
(356,71,o),
(267,71,cs),
(168,71,o),
(126,136,o),
(151,252,cs),
(243,690,l),
(154,690,l),
(61,258,ls),
(27,94,o),
(103,-13,o),
(260,-13,cs)
);
}
);
width = 577;
}
);
metricLeft = "te-canadian";
note = uni1602;
unicode = 5634;
},
{
color = 9;
glyphname = "noCarrier-canadian";
lastChange = "2023-01-13 15:55:40 +0000";
layers = (
{
layerId = "9563F490-07F6-43DA-A81C-32B2684714C2";
shapes = (
{
closed = 1;
nodes = (
(469,0,l),
(560,432,ls),
(595,596,o),
(519,702,o),
(362,702,cs),
(222,702,o),
(131,614,o),
(97,453,cs),
(83,388,l),
(172,388,l),
(186,449,ls),
(209,562,o),
(266,618,o),
(356,619,cs),
(454,619,o),
(497,554,o),
(471,438,cs),
(379,0,l)
);
}
);
width = 577;
}
);
metricLeft = "=|nuCarrier-canadian";
metricRight = "te-canadian";
note = uni1603;
unicode = 5635;
},
{
color = 9;
glyphname = "neCarrier-canadian";
lastChange = "2023-01-13 15:55:37 +0000";
layers = (
{
anchors = (
{
name = middle_center_can;
pos = (267,345);
}
);
layerId = "9563F490-07F6-43DA-A81C-32B2684714C2";
shapes = (
{
closed = 1;
nodes = (
(185,0,ls),
(452,0,o),
(552,248,o),
(552,441,cs),
(552,602,o),
(463,690,o),
(300,690,cs),
(135,690,l),
(118,607,l),
(285,607,ls),
(403,607,o),
(462,551,o),
(462,437,cs),
(462,310,o),
(404,83,o),
(194,83,cs),
(185,83,l),
(167,0,l)
);
}
);
width = 568;
}
);
metricRight = "theCarrier-canadian";
note = uni1604;
unicode = 5636;
},
{
color = 9;
glyphname = "naCarrier-canadian";
lastChange = "2023-01-13 15:55:40 +0000";
layers = (
{
layerId = "9563F490-07F6-43DA-A81C-32B2684714C2";
shapes = (
{
closed = 1;
nodes = (
(477,0,l),
(495,83,l),
(327,83,ls),
(210,83,o),
(151,139,o),
(151,253,cs),
(151,380,o),
(209,607,o),
(418,607,cs),
(428,607,l),
(445,690,l),
(427,690,ls),
(160,690,o),
(61,441,o),
(61,248,cs),
(61,88,o),
(150,0,o),
(312,0,cs)
);
}
);
width = 567;
}
);
metricLeft = "=|theCarrier-canadian";
metricRight = "=|neCarrier-canadian";
note = uni1607;
unicode = 5639;
},
{
color = 9;
glyphname = "muCarrier-canadian";
lastChange = "2023-01-13 15:55:37 +0000";
layers = (
{
layerId = "9563F490-07F6-43DA-A81C-32B2684714C2";
shapes = (
{
closed = 1;
nodes = (
(244,-13,o),
(300,30,o),
(337,116,c),
(303,116,l),
(309,34,o),
(355,-13,o),
(435,-13,cs),
(533,-13,o),
(590,50,o),
(617,175,cs),
(663,390,l),
(577,390,l),
(531,177,ls),
(516,105,o),
(484,70,o),
(434,70,cs),
(381,70,o),
(357,109,o),
(373,179,cs),
(417,390,l),
(333,390,l),
(289,178,ls),
(273,106,o),
(240,70,o),
(187,70,cs),
(135,70,o),
(113,107,o),
(128,180,cs),
(237,690,l),
(151,690,l),
(43,183,ls),
(17,61,o),
(64,-13,o),
(168,-13,cs)
);
}
);
width = 686;
}
);
metricLeft = "guCarrier-canadian";
metricRight = "=|";
note = uni1608;
unicode = 5640;
},
{
color = 9;
glyphname = "moCarrier-canadian";
lastChange = "2023-01-13 15:55:37 +0000";
layers = (
{
layerId = "9563F490-07F6-43DA-A81C-32B2684714C2";
shapes = (
{
closed = 1;
nodes = (
(580,0,l),
(687,507,ls),
(713,629,o),
(667,702,o),
(562,702,cs),
(486,702,o),
(430,660,o),
(393,574,c),
(427,574,l),
(421,656,o),
(375,702,o),
(296,702,cs),
(197,702,o),
(140,639,o),
(114,515,cs),
(68,299,l),
(155,299,l),
(200,513,ls),
(214,584,o),
(246,620,o),
(297,620,cs),
(350,620,o),
(373,581,o),
(357,511,cs),
(313,299,l),
(397,299,l),
(441,512,ls),
(457,583,o),
(491,620,o),
(543,620,cs),
(595,620,o),
(617,582,o),
(602,510,cs),
(494,0,l)
);
}
);
width = 686;
}
);
metricLeft = "=|muCarrier-canadian";
metricRight = "guCarrier-canadian";
note = uni1609;
unicode = 5641;
},
{
color = 9;
glyphname = "meCarrier-canadian";
lastChange = "2023-01-13 15:55:37 +0000";
layers = (
{
layerId = "9563F490-07F6-43DA-A81C-32B2684714C2";
shapes = (
{
closed = 1;
nodes = (
(272,0,ls),
(441,0,o),
(509,104,o),
(509,216,cs),
(509,285,o),
(475,337,o),
(413,355,c),
(410,325,l),
(529,350,o),
(576,441,o),
(576,530,cs),
(576,626,o),
(509,690,o),
(407,690,cs),
(135,690,l),
(120,614,l),
(390,614,ls),
(451,614,o),
(486,579,o),
(486,522,cs),
(486,446,o),
(443,382,o),
(341,382,cs),
(260,382,l),
(244,308,l),
(326,308,ls),
(387,308,o),
(421,277,o),
(421,221,cs),
(421,169,o),
(403,75,o),
(277,75,cs),
(195,75,l),
(180,0,l)
);
}
);
width = 576;
}
);
metricLeft = "neCarrier-canadian";
metricRight = "geCarrier-canadian";
note = uni160A;
unicode = 5642;
},
{
color = 9;
glyphname = "meeCarrier-canadian";
lastChange = "2023-01-13 15:55:37 +0000";
layers = (
{
layerId = "9563F490-07F6-43DA-A81C-32B2684714C2";
shapes = (
{
closed = 1;
nodes = (
(272,0,ls),
(441,0,o),
(509,104,o),
(509,216,cs),
(509,285,o),
(475,337,o),
(413,355,c),
(410,325,l),
(529,350,o),
(576,441,o),
(576,530,cs),
(576,626,o),
(509,690,o),
(407,690,cs),
(135,690,l),
(120,614,l),
(390,614,ls),
(451,614,o),
(486,579,o),
(486,522,cs),
(486,446,o),
(443,381,o),
(343,381,cs),
(314,381,l),
(332,464,l),
(277,464,l),
(227,228,l),
(282,228,l),
(299,309,l),
(328,309,ls),
(388,309,o),
(421,277,o),
(421,221,cs),
(421,169,o),
(403,75,o),
(277,75,cs),
(195,75,l),
(180,0,l)
);
}
);
width = 576;
}
);
metricLeft = "neCarrier-canadian";
metricRight = "geCarrier-canadian";
note = uni160B;
unicode = 5643;
},
{
color = 9;
glyphname = "miCarrier-canadian";
lastChange = "2023-01-13 15:55:37 +0000";
layers = (
{
layerId = "9563F490-07F6-43DA-A81C-32B2684714C2";
shapes = (
{
closed = 1;
nodes = (
(272,0,ls),
(437,0,o),
(497,96,o),
(507,196,cs),
(515,274,o),
(481,333,o),
(413,355,c),
(410,325,l),
(523,348,o),
(566,430,o),
(574,510,cs),
(585,615,o),
(519,690,o),
(407,690,cs),
(135,690,l),
(120,614,l),
(390,614,ls),
(453,614,o),
(489,576,o),
(485,514,cs),
(482,440,o),
(440,381,o),
(341,381,cs),
(306,381,l),
(355,355,l),
(351,390,o),
(322,417,o),
(285,417,cs),
(245,417,o),
(214,384,o),
(214,345,cs),
(214,305,o),
(245,272,o),
(285,272,cs),
(322,272,o),
(350,300,o),
(355,335,c),
(305,309,l),
(327,309,ls),
(391,309,o),
(425,275,o),
(421,213,cs),
(417,157,o),
(393,75,o),
(277,75,cs),
(195,75,l),
(180,0,l)
);
}
);
width = 574;
}
);
metricLeft = "neCarrier-canadian";
metricRight = "geCarrier-canadian";
note = uni160C;
unicode = 5644;
},
{
color = 9;
glyphname = "maCarrier-canadian";
lastChange = "2023-01-13 15:55:40 +0000";
layers = (
{
layerId = "9563F490-07F6-43DA-A81C-32B2684714C2";
shapes = (
{
closed = 1;
nodes = (
(486,0,l),
(502,75,l),
(231,75,ls),
(170,75,o),
(134,111,o),
(134,168,cs),
(134,243,o),
(178,308,o),
(279,308,cs),
(360,308,l),
(377,382,l),
(296,382,ls),
(233,382,o),
(199,412,o),
(199,469,cs),
(199,521,o),
(218,614,o),
(343,614,cs),
(426,614,l),
(441,690,l),
(349,690,ls),
(180,690,o),
(112,585,o),
(112,473,cs),
(112,405,o),
(146,353,o),
(207,334,c),
(212,365,l),
(92,340,o),
(44,248,o),
(44,159,cs),
(44,64,o),
(111,0,o),
(214,0,cs)
);
}
);
width = 576;
}
);
metricLeft = "=|geCarrier-canadian";
metricRight = "=|neCarrier-canadian";
note = uni160D;
unicode = 5645;
},
{
color = 9;
glyphname = "yuCarrier-canadian";
lastChange = "2023-01-13 15:55:37 +0000";
layers = (
{
layerId = "9563F490-07F6-43DA-A81C-32B2684714C2";
shapes = (
{
closed = 1;
nodes = (
(430,-13,o),
(536,106,o),
(590,361,cs),
(637,582,o),
(603,702,o),
(485,702,cs),
(351,702,o),
(303,537,o),
(303,444,cs),
(303,361,o),
(345,307,o),
(412,307,cs),
(426,307,o),
(438,309,o),
(446,314,c),
(461,384,l),
(453,382,o),
(445,380,o),
(437,380,cs),
(400,380,o),
(381,406,o),
(381,452,cs),
(381,501,o),
(405,630,o),
(474,630,cs),
(536,630,o),
(545,552,o),
(511,386,cs),
(464,163,o),
(394,71,o),
(269,71,cs),
(164,71,o),
(125,133,o),
(150,251,cs),
(242,690,l),
(153,690,l),
(61,258,ls),
(26,93,o),
(101,-13,o),
(261,-13,cs)
);
}
);
width = 621;
}
);
metricLeft = "te-canadian";
metricRight = "te-canadian";
note = uni160E;
unicode = 5646;
},
{
color = 9;
glyphname = "yoCarrier-canadian";
lastChange = "2023-01-13 15:55:37 +0000";
layers = (
{
layerId = "9563F490-07F6-43DA-A81C-32B2684714C2";
shapes = (
{
closed = 1;
nodes = (
(316,-13,o),
(363,153,o),
(363,245,cs),
(363,328,o),
(323,383,o),
(255,383,cs),
(242,383,o),
(229,381,o),
(220,376,c),
(206,305,l),
(214,308,o),
(222,310,o),
(231,310,cs),
(267,310,o),
(286,284,o),
(286,238,cs),
(286,188,o),
(262,60,o),
(192,60,cs),
(131,60,o),
(122,138,o),
(156,303,cs),
(203,526,o),
(272,618,o),
(399,618,cs),
(503,618,o),
(543,556,o),
(518,439,cs),
(424,0,l),
(515,0,l),
(607,432,ls),
(640,597,o),
(565,702,o),
(406,702,cs),
(237,702,o),
(130,583,o),
(76,328,cs),
(30,107,o),
(64,-13,o),
(182,-13,cs)
);
}
);
width = 623;
}
);
metricLeft = "te-canadian";
metricRight = "te-canadian";
note = uni160F;
unicode = 5647;
},
{
color = 9;
glyphname = "yeCarrier-canadian";
lastChange = "2023-01-13 15:55:37 +0000";
layers = (
{
layerId = "9563F490-07F6-43DA-A81C-32B2684714C2";
shapes = (
{
closed = 1;
nodes = (
(456,-13,o),
(545,267,o),
(545,430,cs),
(545,601,o),
(458,690,o),
(297,690,cs),
(152,690,l),
(134,607,l),
(283,607,ls),
(396,607,o),
(454,547,o),
(454,423,cs),
(454,305,o),
(402,65,o),
(231,65,cs),
(155,65,o),
(112,106,o),
(112,181,cs),
(112,232,o),
(134,334,o),
(204,334,cs),
(239,334,o),
(256,310,o),
(256,264,cs),
(256,229,o),
(246,191,o),
(235,156,c),
(302,156,l),
(317,195,o),
(327,239,o),
(327,277,cs),
(327,357,o),
(283,408,o),
(209,408,cs),
(84,408,o),
(35,266,o),
(35,171,cs),
(35,59,o),
(107,-13,o),
(227,-13,cs)
);
}
);
width = 563;
}
);
metricRight = "theCarrier-canadian";
note = uni1610;
unicode = 5648;
},
{
color = 9;
glyphname = "yeeCarrier-canadian";
lastChange = "2023-01-13 15:55:37 +0000";
layers = (
{
layerId = "9563F490-07F6-43DA-A81C-32B2684714C2";
shapes = (
{
closed = 1;
nodes = (
(457,-13,o),
(546,271,o),
(546,436,cs),
(546,601,o),
(457,690,o),
(298,690,cs),
(152,690,l),
(134,607,l),
(283,607,ls),
(396,607,o),
(454,547,o),
(454,428,cs),
(454,310,o),
(402,65,o),
(231,65,cs),
(155,65,o),
(112,105,o),
(112,181,cs),
(112,230,o),
(135,334,o),
(202,334,cs),
(242,334,o),
(258,296,o),
(244,232,cs),
(233,179,l),
(288,179,l),
(355,497,l),
(301,497,l),
(260,303,l),
(271,303,l),
(279,366,o),
(246,408,o),
(190,408,cs),
(81,408,o),
(36,265,o),
(36,176,cs),
(36,61,o),
(106,-13,o),
(231,-13,cs)
);
}
);
width = 563;
}
);
metricRight = "theCarrier-canadian";
metricWidth = "yeCarrier-canadian";
note = uni1611;
unicode = 5649;
},
{
color = 9;
glyphname = "yiCarrier-canadian";
lastChange = "2023-01-13 15:55:37 +0000";
layers = (
{
layerId = "9563F490-07F6-43DA-A81C-32B2684714C2";
shapes = (
{
closed = 1;
nodes = (
(458,-13,o),
(546,270,o),
(546,436,cs),
(546,601,o),
(458,690,o),
(298,690,cs),
(152,690,l),
(134,607,l),
(283,607,ls),
(396,607,o),
(454,547,o),
(454,428,cs),
(454,307,o),
(402,65,o),
(231,65,cs),
(153,65,o),
(111,107,o),
(111,179,cs),
(111,242,o),
(136,322,o),
(213,319,c),
(191,344,l),
(192,306,o),
(224,278,o),
(261,278,cs),
(299,278,o),
(329,308,o),
(329,346,cs),
(329,383,o),
(299,412,o),
(261,412,cs),
(234,412,o),
(212,398,o),
(200,377,c),
(88,372,o),
(34,265,o),
(34,168,cs),
(34,59,o),
(108,-13,o),
(226,-13,cs)
);
}
);
width = 563;
}
);
metricRight = "theCarrier-canadian";
metricWidth = "yeCarrier-canadian";
note = uni1612;
unicode = 5650;
},
{
color = 9;
glyphname = "yaCarrier-canadian";
lastChange = "2023-01-13 15:55:40 +0000";
layers = (
{
layerId = "9563F490-07F6-43DA-A81C-32B2684714C2";
shapes = (
{
closed = 1;
nodes = (
(456,0,l),
(473,83,l),
(325,83,ls),
(212,83,o),
(154,143,o),
(154,267,cs),
(154,384,o),
(206,625,o),
(377,625,cs),
(453,625,o),
(496,583,o),
(496,509,cs),
(496,458,o),
(473,355,o),
(403,355,cs),
(369,355,o),
(352,380,o),
(352,426,cs),
(352,463,o),
(360,498,o),
(373,533,c),
(304,533,l),
(291,495,o),
(280,451,o),
(280,412,cs),
(280,332,o),
(324,282,o),
(399,282,cs),
(523,282,o),
(573,424,o),
(573,519,cs),
(573,631,o),
(500,702,o),
(381,702,cs),
(152,702,o),
(62,423,o),
(62,260,cs),
(62,89,o),
(149,0,o),
(311,0,cs)
);
}
);
width = 563;
}
);
metricLeft = "=|theCarrier-canadian";
metricRight = "=|yeCarrier-canadian";
note = uni1613;
unicode = 5651;
},
{
color = 9;
glyphname = "juCarrier-canadian";
lastChange = "2023-01-13 15:55:37 +0000";
layers = (
{
layerId = "9563F490-07F6-43DA-A81C-32B2684714C2";
shapes = (
{
closed = 1;
nodes = (
(453,-13,o),
(528,132,o),
(528,257,cs),
(528,348,o),
(481,408,o),
(403,408,cs),
(310,408,o),
(262,328,o),
(248,228,cs),
(244,201,o),
(243,174,o),
(244,156,c),
(312,156,l),
(312,173,o),
(312,198,o),
(319,231,cs),
(332,295,o),
(358,334,o),
(399,334,cs),
(434,334,o),
(453,305,o),
(453,256,cs),
(453,175,o),
(412,65,o),
(291,65,cs),
(198,65,o),
(150,121,o),
(150,222,cs),
(150,367,o),
(238,607,o),
(519,607,cs),
(598,607,l),
(616,690,l),
(144,690,l),
(127,610,l),
(375,610,l),
(434,640,l),
(189,633,o),
(61,426,o),
(61,223,cs),
(61,78,o),
(144,-13,o),
(283,-13,cs)
);
}
);
width = 574;
}
);
metricRight = "=|yeCarrier-canadian";
note = uni1614;
unicode = 5652;
},
{
color = 9;
glyphname = "juSayisi-canadian";
lastChange = "2023-01-13 15:55:40 +0000";
layers = (
{
anchors = (
{
name = top_center_can;
pos = (401,690);
}
);
layerId = "9563F490-07F6-43DA-A81C-32B2684714C2";
shapes = (
{
closed = 1;
nodes = (
(426,-13,o),
(521,183,o),
(536,350,cs),
(552,526,o),
(464,637,o),
(291,646,c),
(355,610,l),
(605,610,l),
(621,690,l),
(149,690,l),
(131,607,l),
(206,607,ls),
(385,607,o),
(463,524,o),
(448,360,cs),
(440,241,o),
(389,65,o),
(238,65,cs),
(152,65,o),
(106,112,o),
(112,194,cs),
(115,247,o),
(140,334,o),
(200,334,cs),
(237,334,o),
(252,306,o),
(249,254,cs),
(249,225,o),
(241,185,o),
(230,156,c),
(298,156,l),
(310,191,o),
(319,227,o),
(321,263,cs),
(328,352,o),
(286,408,o),
(206,408,cs),
(100,408,o),
(46,294,o),
(37,200,cs),
(24,73,o),
(101,-13,o),
(236,-13,cs)
);
}
);
width = 574;
}
);
metricLeft = "yeCarrier-canadian";
metricRight = "=|juCarrier-canadian";
note = uni1615;
unicode = 5653;
},
{
color = 9;
glyphname = "joCarrier-canadian";
lastChange = "2023-01-13 15:55:40 +0000";
layers = (
{
layerId = "9563F490-07F6-43DA-A81C-32B2684714C2";
shapes = (
{
closed = 1;
nodes = (
(475,0,l),
(493,80,l),
(244,80,l),
(185,49,l),
(430,57,o),
(558,264,o),
(558,467,cs),
(558,611,o),
(475,702,o),
(336,702,cs),
(166,702,o),
(91,557,o),
(91,433,cs),
(91,342,o),
(138,282,o),
(216,282,cs),
(309,282,o),
(357,361,o),
(371,462,cs),
(375,489,o),
(376,516,o),
(375,533,c),
(307,533,l),
(307,517,o),
(307,492,o),
(300,459,cs),
(287,395,o),
(261,355,o),
(220,355,cs),
(185,355,o),
(166,384,o),
(166,434,cs),
(166,515,o),
(207,625,o),
(328,625,cs),
(421,625,o),
(469,569,o),
(469,468,cs),
(469,323,o),
(382,83,o),
(100,83,cs),
(21,83,l),
(3,0,l)
);
}
);
width = 575;
}
);
metricLeft = "yeCarrier-canadian";
metricRight = "=|juCarrier-canadian";
note = uni1616;
unicode = 5654;
},
{
color = 9;
glyphname = "jeCarrier-canadian";
lastChange = "2023-01-13 15:55:37 +0000";
layers = (
{
layerId = "9563F490-07F6-43DA-A81C-32B2684714C2";
shapes = (
{
closed = 1;
nodes = (
(543,-13,o),
(593,314,o),
(593,454,cs),
(593,610,o),
(532,702,o),
(415,702,cs),
(305,702,o),
(226,622,o),
(178,461,c),
(196,460,l),
(245,690,l),
(156,690,l),
(9,0,l),
(99,0,l),
(163,302,ls),
(208,515,o),
(283,619,o),
(391,619,cs),
(471,619,o),
(508,564,o),
(508,451,cs),
(508,365,o),
(473,60,o),
(369,60,cs),
(333,60,o),
(315,85,o),
(315,131,cs),
(315,190,o),
(342,310,o),
(422,310,cs),
(433,310,o),
(442,308,o),
(448,305,c),
(461,376,l),
(449,381,o),
(434,383,o),
(417,383,cs),
(287,383,o),
(240,223,o),
(240,128,cs),
(240,41,o),
(284,-13,o),
(362,-13,cs)
);
}
);
width = 624;
}
);
metricLeft = "nunavuth-canadian";
metricRight = "te-canadian";
note = uni1617;
unicode = 5655;
},
{
color = 9;
glyphname = "jeeCarrier-canadian";
lastChange = "2023-01-13 15:55:40 +0000";
layers = (
{
layerId = "9563F490-07F6-43DA-A81C-32B2684714C2";
shapes = (
{
closed = 1;
nodes = (
(543,-13,o),
(593,316,o),
(593,453,cs),
(593,610,o),
(532,702,o),
(415,702,cs),
(305,702,o),
(226,622,o),
(178,461,c),
(196,460,l),
(245,690,l),
(156,690,l),
(9,0,l),
(99,0,l),
(161,295,ls),
(209,517,o),
(281,619,o),
(390,619,cs),
(471,619,o),
(508,563,o),
(508,450,cs),
(508,337,o),
(471,60,o),
(355,60,cs),
(310,60,o),
(286,91,o),
(286,145,cs),
(286,200,o),
(309,298,o),
(374,319,c),
(356,236,l),
(403,236,l),
(447,448,l),
(402,448,l),
(384,369,l),
(277,348,o),
(239,208,o),
(239,127,cs),
(239,40,o),
(284,-13,o),
(362,-13,cs)
);
}
);
width = 623;
}
);
metricLeft = "nunavuth-canadian";
metricRight = "jeCarrier-canadian";
note = uni1618;
unicode = 5656;
},
{
color = 9;
glyphname = "jiCarrier-canadian";
lastChange = "2023-01-13 15:55:40 +0000";
layers = (
{
layerId = "9563F490-07F6-43DA-A81C-32B2684714C2";
shapes = (
{
closed = 1;
nodes = (
(543,-13,o),
(593,316,o),
(593,453,cs),
(593,610,o),
(532,702,o),
(415,702,cs),
(305,702,o),
(226,622,o),
(178,461,c),
(196,460,l),
(245,690,l),
(156,690,l),
(9,0,l),
(99,0,l),
(161,295,ls),
(209,517,o),
(281,619,o),
(390,619,cs),
(471,619,o),
(508,563,o),
(508,450,cs),
(508,337,o),
(471,60,o),
(355,60,cs),
(310,60,o),
(286,91,o),
(286,145,cs),
(286,191,o),
(302,269,o),
(349,298,c),
(357,285,o),
(373,275,o),
(391,275,cs),
(427,275,o),
(454,304,o),
(454,342,cs),
(454,379,o),
(427,408,o),
(391,408,cs),
(354,408,o),
(327,373,o),
(330,337,c),
(263,295,o),
(239,191,o),
(239,127,cs),
(239,40,o),
(284,-13,o),
(362,-13,cs)
);
}
);
width = 623;
}
);
metricLeft = "nunavuth-canadian";
metricRight = "jeCarrier-canadian";
note = uni1619;
unicode = 5657;
},
{
color = 9;
glyphname = "jiSayisi-canadian";
lastChange = "2023-01-13 15:55:37 +0000";
layers = (
{
layerId = "9563F490-07F6-43DA-A81C-32B2684714C2";
shapes = (
{
closed = 1;
nodes = (
(522,-13,o),
(612,350,o),
(612,521,cs),
(612,642,o),
(569,702,o),
(485,702,cs),
(350,702,o),
(307,533,o),
(307,444,cs),
(307,355,o),
(353,307,o),
(412,307,cs),
(429,307,o),
(440,309,o),
(448,314,c),
(465,384,l),
(457,382,o),
(449,380,o),
(439,380,cs),
(405,381,o),
(383,402,o),
(383,454,cs),
(383,494,o),
(405,630,o),
(478,630,cs),
(515,630,o),
(531,601,o),
(531,532,cs),
(531,419,o),
(469,71,o),
(289,71,cs),
(142,71,o),
(154,257,o),
(182,390,cs),
(245,690,l),
(156,690,l),
(9,0,l),
(99,0,l),
(159,290,l),
(139,296,l),
(108,148,o),
(140,-13,o),
(296,-13,cs)
);
}
);
width = 625;
}
);
metricLeft = "nunavuth-canadian";
metricRight = "jeCarrier-canadian";
note = uni161A;
unicode = 5658;
},
{
color = 9;
glyphname = "jaCarrier-canadian";
lastChange = "2023-01-13 15:55:37 +0000";
layers = (
{
anchors = (
{
name = top_center_can;
pos = (401,690);
}
);
layerId = "9563F490-07F6-43DA-A81C-32B2684714C2";
shapes = (
{
closed = 1;
nodes = (
(364,-13,o),
(443,68,o),
(491,229,c),
(472,230,l),
(424,0,l),
(514,0,l),
(661,690,l),
(570,690,l),
(506,388,ls),
(462,176,o),
(386,71,o),
(277,71,cs),
(197,71,o),
(160,127,o),
(160,239,cs),
(160,325,o),
(196,630,o),
(300,630,cs),
(335,630,o),
(354,606,o),
(354,559,cs),
(354,500,o),
(327,381,o),
(247,381,cs),
(237,381,o),
(227,382,o),
(221,384,c),
(209,314,l),
(220,310,o),
(235,307,o),
(251,307,cs),
(383,307,o),
(430,467,o),
(430,561,cs),
(430,650,o),
(385,703,o),
(307,703,cs),
(127,703,o),
(75,377,o),
(75,236,cs),
(75,80,o),
(137,-13,o),
(254,-13,cs)
);
}
);
width = 625;
}
);
metricLeft = "=|jeCarrier-canadian";
metricRight = "nunavuth-canadian";
note = uni161B;
unicode = 5659;
},
{
color = 9;
glyphname = "jjuCarrier-canadian";
lastChange = "2023-01-13 15:55:40 +0000";
layers = (
{
layerId = "9563F490-07F6-43DA-A81C-32B2684714C2";
shapes = (
{
closed = 1;
nodes = (
(440,-13,o),
(524,130,o),
(524,261,cs),
(524,350,o),
(477,408,o),
(400,408,cs),
(322,408,o),
(270,350,o),
(245,242,cs),
(239,213,o),
(236,180,o),
(236,156,c),
(303,156,l),
(304,171,o),
(306,197,o),
(313,229,cs),
(328,298,o),
(355,334,o),
(394,334,cs),
(429,334,o),
(448,305,o),
(448,258,cs),
(448,178,o),
(407,63,o),
(285,63,cs),
(198,63,o),
(152,120,o),
(152,225,cs),
(152,398,o),
(242,607,o),
(483,607,cs),
(591,607,l),
(609,690,l),
(498,690,ls),
(397,690,o),
(314,662,o),
(248,616,c),
(182,702,l),
(109,646,l),
(179,557,l),
(96,468,o),
(64,336,o),
(64,230,cs),
(64,82,o),
(143,-13,o),
(277,-13,cs)
);
}
);
width = 569;
}
);
metricRight = "=|yeCarrier-canadian";
note = uni161C;
unicode = 5660;
},
{
color = 9;
glyphname = "jjoCarrier-canadian";
lastChange = "2023-01-13 15:55:37 +0000";
layers = (
{
layerId = "9563F490-07F6-43DA-A81C-32B2684714C2";
shapes = (
{
closed = 1;
nodes = (
(504,43,l),
(435,132,l),
(519,222,o),
(551,354,o),
(551,460,cs),
(551,608,o),
(470,702,o),
(336,702,cs),
(173,702,o),
(90,559,o),
(90,429,cs),
(90,340,o),
(137,282,o),
(214,282,cs),
(293,282,o),
(344,340,o),
(368,447,cs),
(375,476,o),
(379,510,o),
(379,533,c),
(311,533,l),
(310,519,o),
(307,493,o),
(301,461,cs),
(286,392,o),
(259,355,o),
(220,355,cs),
(185,355,o),
(166,384,o),
(166,432,cs),
(166,512,o),
(208,627,o),
(329,627,cs),
(416,627,o),
(463,570,o),
(463,465,cs),
(463,292,o),
(371,83,o),
(130,83,cs),
(22,83,l),
(5,0,l),
(116,0,ls),
(216,0,o),
(299,28,o),
(365,73,c),
(432,-13,l)
);
}
);
width = 568;
}
);
metricLeft = "yeCarrier-canadian";
metricRight = "=|jjuCarrier-canadian";
note = uni161D;
unicode = 5661;
},
{
color = 9;
glyphname = "jjeCarrier-canadian";
lastChange = "2023-01-13 15:55:37 +0000";
layers = (
{
layerId = "9563F490-07F6-43DA-A81C-32B2684714C2";
shapes = (
{
closed = 1;
nodes = (
(549,-13,o),
(598,314,o),
(598,453,cs),
(598,618,o),
(525,702,o),
(390,702,cs),
(330,702,o),
(270,683,o),
(221,639,c),
(167,702,l),
(100,640,l),
(162,568,l),
(136,527,o),
(115,475,o),
(100,410,cs),
(14,0,l),
(103,0,l),
(190,408,ls),
(220,548,o),
(286,619,o),
(384,619,cs),
(471,619,o),
(513,567,o),
(513,451,cs),
(513,367,o),
(478,60,o),
(373,60,cs),
(338,60,o),
(320,85,o),
(320,131,cs),
(320,190,o),
(346,310,o),
(426,310,cs),
(437,310,o),
(446,308,o),
(452,305,c),
(466,376,l),
(454,381,o),
(439,383,o),
(422,383,cs),
(292,383,o),
(244,223,o),
(244,128,cs),
(244,41,o),
(288,-13,o),
(367,-13,cs)
);
}
);
width = 629;
}
);
metricRight = "jeCarrier-canadian";
note = uni161E;
unicode = 5662;
},
{
color = 9;
glyphname = "jjeeCarrier-canadian";
lastChange = "2023-01-13 15:55:37 +0000";
layers = (
{
layerId = "9563F490-07F6-43DA-A81C-32B2684714C2";
shapes = (
{
closed = 1;
nodes = (
(549,-13,o),
(598,314,o),
(598,453,cs),
(598,618,o),
(525,702,o),
(390,702,cs),
(330,702,o),
(270,683,o),
(221,639,c),
(167,702,l),
(100,640,l),
(162,568,l),
(136,527,o),
(115,475,o),
(100,410,cs),
(14,0,l),
(103,0,l),
(190,408,ls),
(220,548,o),
(286,619,o),
(384,619,cs),
(471,619,o),
(513,567,o),
(513,451,cs),
(513,357,o),
(480,60,o),
(362,60,cs),
(318,60,o),
(291,89,o),
(291,147,cs),
(291,211,o),
(315,303,o),
(379,320,c),
(361,236,l),
(407,236,l),
(452,448,l),
(406,448,l),
(389,369,l),
(284,348,o),
(244,214,o),
(244,128,cs),
(244,41,o),
(288,-13,o),
(367,-13,cs)
);
}
);
width = 629;
}
);
metricLeft = "jjeCarrier-canadian";
metricRight = "jeCarrier-canadian";
note = uni161F;
unicode = 5663;
},
{
color = 9;
glyphname = "jjiCarrier-canadian";
lastChange = "2023-01-13 15:55:37 +0000";
layers = (
{
layerId = "9563F490-07F6-43DA-A81C-32B2684714C2";
shapes = (
{
closed = 1;
nodes = (
(473,-13,o),
(540,89,o),
(581,284,cs),
(636,549,o),
(565,702,o),
(390,702,cs),
(324,702,o),
(267,681,o),
(221,639,c),
(167,702,l),
(100,640,l),
(162,570,l),
(135,527,o),
(114,473,o),
(100,410,cs),
(14,0,l),
(103,0,l),
(190,408,ls),
(220,548,o),
(285,619,o),
(384,619,cs),
(504,619,o),
(542,510,o),
(497,290,cs),
(463,132,o),
(427,60,o),
(359,60,cs),
(301,60,o),
(279,113,o),
(298,204,cs),
(308,252,o),
(326,284,o),
(353,298,c),
(361,285,o),
(378,275,o),
(396,275,cs),
(432,275,o),
(459,305,o),
(459,342,cs),
(459,379,o),
(432,408,o),
(396,408,cs),
(353,408,o),
(332,367,o),
(335,336,c),
(294,311,o),
(266,262,o),
(252,195,cs),
(225,67,o),
(271,-13,o),
(367,-13,cs)
);
}
);
width = 628;
}
);
metricLeft = "jjeCarrier-canadian";
metricRight = "jeCarrier-canadian";
note = uni1620;
unicode = 5664;
},
{
color = 9;
glyphname = "jjaCarrier-canadian";
lastChange = "2023-01-13 15:55:40 +0000";
layers = (
{
layerId = "9563F490-07F6-43DA-A81C-32B2684714C2";
shapes = (
{
closed = 1;
nodes = (
(344,-13,o),
(404,7,o),
(453,51,c),
(507,-13,l),
(574,49,l),
(512,122,l),
(538,162,o),
(559,214,o),
(574,280,cs),
(661,690,l),
(571,690,l),
(484,282,ls),
(454,142,o),
(388,71,o),
(290,71,cs),
(203,71,o),
(161,123,o),
(161,239,cs),
(161,323,o),
(197,630,o),
(301,630,cs),
(336,630,o),
(355,605,o),
(355,558,cs),
(355,499,o),
(328,380,o),
(248,380,cs),
(238,380,o),
(228,382,o),
(222,384,c),
(209,314,l),
(220,309,o),
(236,307,o),
(252,307,cs),
(383,307,o),
(430,467,o),
(430,561,cs),
(430,649,o),
(386,702,o),
(307,702,cs),
(126,702,o),
(75,376,o),
(75,237,cs),
(75,71,o),
(150,-13,o),
(284,-13,cs)
);
}
);
width = 629;
}
);
metricLeft = "=|jeCarrier-canadian";
metricRight = "=|jjeCarrier-canadian";
note = uni1621;
unicode = 5665;
},
{
color = 9;
glyphname = "luCarrier-canadian";
lastChange = "2023-01-13 15:55:40 +0000";
layers = (
{
layerId = "9563F490-07F6-43DA-A81C-32B2684714C2";
shapes = (
{
closed = 1;
nodes = (
(404,-13,o),
(485,65,o),
(520,228,cs),
(618,690,l),
(528,690,l),
(432,237,ls),
(407,123,o),
(357,71,o),
(274,71,cs),
(192,71,o),
(151,123,o),
(151,220,cs),
(151,338,o),
(209,595,o),
(390,617,c),
(406,690,l),
(143,690,l),
(127,614,l),
(290,614,l),
(355,641,l),
(154,632,o),
(59,382,o),
(59,215,cs),
(59,73,o),
(134,-13,o),
(271,-13,cs)
);
}
);
width = 579;
}
);
metricRight = "te-canadian";
note = uni1622;
unicode = 5666;
},
{
color = 9;
glyphname = "loCarrier-canadian";
lastChange = "2023-01-13 15:55:37 +0000";
layers = (
{
layerId = "9563F490-07F6-43DA-A81C-32B2684714C2";
shapes = (
{
closed = 1;
nodes = (
(97,0,l),
(193,453,ls),
(217,567,o),
(268,619,o),
(351,619,cs),
(433,619,o),
(474,567,o),
(474,469,cs),
(474,352,o),
(416,95,o),
(235,72,c),
(219,0,l),
(482,0,l),
(497,75,l),
(334,75,l),
(270,48,l),
(471,58,o),
(566,308,o),
(566,474,cs),
(566,616,o),
(491,702,o),
(354,702,cs),
(220,702,o),
(139,625,o),
(104,462,cs),
(7,0,l)
);
}
);
width = 580;
}
);
metricLeft = "te-canadian";
metricRight = "=|luCarrier-canadian";
note = uni1623;
unicode = 5667;
},
{
color = 9;
glyphname = "leCarrier-canadian";
lastChange = "2023-01-13 15:55:37 +0000";
layers = (
{
anchors = (
{
name = middle_center_can;
pos = (300,345);
}
);
layerId = "9563F490-07F6-43DA-A81C-32B2684714C2";
shapes = (
{
closed = 1;
nodes = (
(182,0,ls),
(479,0,o),
(550,281,o),
(550,455,cs),
(550,608,o),
(488,702,o),
(384,702,cs),
(300,702,o),
(230,640,o),
(188,528,c),
(199,528,l),
(233,690,l),
(153,690,l),
(87,383,l),
(163,383,l),
(197,530,o),
(268,619,o),
(352,619,cs),
(422,619,o),
(459,557,o),
(459,446,cs),
(459,316,o),
(407,83,o),
(184,83,cs),
(23,83,l),
(6,0,l)
);
}
);
width = 565;
}
);
metricRight = "theCarrier-canadian";
note = uni1624;
unicode = 5668;
},
{
color = 9;
glyphname = "laCarrier-canadian";
lastChange = "2023-01-13 15:55:40 +0000";
layers = (
{
layerId = "9563F490-07F6-43DA-A81C-32B2684714C2";
shapes = (
{
closed = 1;
nodes = (
(457,0,l),
(475,83,l),
(329,83,ls),
(210,83,o),
(150,138,o),
(150,252,cs),
(150,367,o),
(210,619,o),
(358,619,cs),
(447,619,o),
(487,526,o),
(463,383,c),
(539,383,l),
(604,690,l),
(523,690,l),
(485,511,l),
(494,507,l),
(499,630,o),
(445,702,o),
(353,702,cs),
(149,702,o),
(60,408,o),
(60,248,cs),
(60,88,o),
(148,0,o),
(314,0,cs)
);
}
);
width = 564;
}
);
metricLeft = "=|theCarrier-canadian";
metricRight = "=|leCarrier-canadian";
note = uni1627;
unicode = 5671;
},
{
color = 1;
glyphname = "dluCarrier-canadian";
lastChange = "2023-01-13 15:55:40 +0000";
layers = (
{
layerId = "9563F490-07F6-43DA-A81C-32B2684714C2";
shapes = (
{
closed = 1;
nodes = (
(491,-13,o),
(550,298,o),
(550,418,cs),
(550,543,o),
(496,618,o),
(390,641,c),
(406,620,l),
(599,620,l),
(581,539,l),
(647,539,l),
(697,771,l),
(631,771,l),
(613,690,l),
(364,690,l),
(349,616,l),
(431,598,o),
(466,541,o),
(466,440,cs),
(466,355,o),
(426,71,o),
(251,71,cs),
(159,71,o),
(126,137,o),
(153,266,cs),
(242,690,l),
(153,690,l),
(64,274,ls),
(25,90,o),
(92,-13,o),
(243,-13,cs)
);
}
);
width = 617;
}
);
metricLeft = "te-canadian";
note = uni1628;
unicode = 5672;
},
{
color = 9;
glyphname = "dloCarrier-canadian";
lastChange = "2023-01-13 15:55:40 +0000";
layers = (
{
layerId = "9563F490-07F6-43DA-A81C-32B2684714C2";
shapes = (
{
closed = 1;
nodes = (
(518,-81,l),
(567,151,l),
(500,151,l),
(482,70,l),
(327,70,l),
(275,53,l),
(452,63,o),
(566,282,o),
(566,474,cs),
(566,616,o),
(491,702,o),
(354,702,cs),
(220,702,o),
(139,625,o),
(104,462,cs),
(7,0,l),
(97,0,l),
(193,453,ls),
(217,567,o),
(268,619,o),
(351,619,cs),
(433,619,o),
(474,567,o),
(474,469,cs),
(474,352,o),
(416,95,o),
(235,72,c),
(219,0,l),
(469,0,l),
(451,-81,l)
);
}
);
width = 619;
}
);
metricLeft = "te-canadian";
metricRight = "dluCarrier-canadian";
note = uni1629;
unicode = 5673;
},
{
color = 9;
glyphname = "dleCarrier-canadian";
lastChange = "2023-01-13 15:55:40 +0000";
layers = (
{
anchors = (
{
name = middle_center_can;
pos = (314,345);
}
);
layerId = "9563F490-07F6-43DA-A81C-32B2684714C2";
shapes = (
{
closed = 1;
nodes = (
(194,0,ls),
(492,0,o),
(562,281,o),
(562,455,cs),
(562,608,o),
(500,702,o),
(396,702,cs),
(311,702,o),
(230,636,o),
(187,515,c),
(194,515,l),
(233,701,l),
(298,701,l),
(311,766,l),
(118,766,l),
(104,701,l),
(168,701,l),
(99,383,l),
(176,383,l),
(210,530,o),
(280,619,o),
(364,619,cs),
(435,619,o),
(471,557,o),
(471,446,cs),
(471,316,o),
(419,83,o),
(196,83,cs),
(36,83,l),
(18,0,l)
);
}
);
width = 577;
}
);
metricRight = "theCarrier-canadian";
note = uni162A;
unicode = 5674;
},
{
color = 9;
glyphname = "dlaCarrier-canadian";
lastChange = "2023-01-13 15:55:40 +0000";
layers = (
{
layerId = "9563F490-07F6-43DA-A81C-32B2684714C2";
shapes = (
{
closed = 1;
nodes = (
(457,0,l),
(475,83,l),
(329,83,ls),
(210,83,o),
(150,138,o),
(150,252,cs),
(150,367,o),
(210,619,o),
(358,619,cs),
(447,619,o),
(487,526,o),
(463,383,c),
(539,383,l),
(607,701,l),
(669,701,l),
(683,766,l),
(491,766,l),
(476,701,l),
(540,701,l),
(497,503,l),
(508,499,l),
(514,630,o),
(445,702,o),
(353,702,cs),
(149,702,o),
(60,408,o),
(60,248,cs),
(60,88,o),
(148,0,o),
(314,0,cs)
);
}
);
width = 577;
}
);
metricLeft = "=|theCarrier-canadian";
metricRight = "=|dleCarrier-canadian";
note = uni162D;
unicode = 5677;
},
{
color = 9;
glyphname = "lhuCarrier-canadian";
lastChange = "2023-01-13 15:55:40 +0000";
layers = (
{
layerId = "9563F490-07F6-43DA-A81C-32B2684714C2";
shapes = (
{
closed = 1;
nodes = (
(496,-13,o),
(568,250,o),
(568,413,cs),
(568,528,o),
(526,613,o),
(451,643,c),
(479,614,l),
(631,614,l),
(646,690,l),
(440,690,l),
(424,617,l),
(466,596,o),
(487,541,o),
(487,464,cs),
(487,341,o),
(441,71,o),
(275,71,cs),
(194,71,o),
(154,123,o),
(154,222,cs),
(154,330,o),
(204,565,o),
(334,617,c),
(350,690,l),
(143,690,l),
(127,614,l),
(279,614,l),
(319,648,l),
(140,603,o),
(62,364,o),
(62,215,cs),
(62,73,o),
(135,-13,o),
(271,-13,cs)
);
}
);
width = 598;
}
);
metricLeft = "luCarrier-canadian";
metricRight = "=|";
note = uni162E;
unicode = 5678;
},
{
color = 9;
glyphname = "lhoCarrier-canadian";
lastChange = "2023-01-13 15:55:40 +0000";
layers = (
{
layerId = "9563F490-07F6-43DA-A81C-32B2684714C2";
shapes = (
{
closed = 1;
nodes = (
(203,0,l),
(218,72,l),
(177,94,o),
(157,149,o),
(157,226,cs),
(157,349,o),
(202,619,o),
(368,619,cs),
(448,619,o),
(490,567,o),
(490,468,cs),
(490,359,o),
(440,125,o),
(309,72,c),
(294,0,l),
(499,0,l),
(516,75,l),
(363,75,l),
(324,42,l),
(503,87,o),
(582,326,o),
(582,474,cs),
(582,616,o),
(508,702,o),
(371,702,cs),
(147,702,o),
(74,440,o),
(74,276,cs),
(74,161,o),
(116,76,o),
(191,46,c),
(164,75,l),
(13,75,l),
(-4,0,l)
);
}
);
width = 598;
}
);
metricLeft = "luCarrier-canadian";
metricRight = "=|";
note = uni162F;
unicode = 5679;
},
{
color = 9;
glyphname = "lheCarrier-canadian";
lastChange = "2023-01-13 15:55:37 +0000";
layers = (
{
anchors = (
{
name = middle_center_can;
pos = (315,345);
}
);
layerId = "9563F490-07F6-43DA-A81C-32B2684714C2";
shapes = (
{
closed = 1;
nodes = (
(486,-13,o),
(572,282,o),
(572,458,cs),
(572,610,o),
(505,702,o),
(392,702,cs),
(307,702,o),
(242,651,o),
(203,554,c),
(208,552,l),
(237,690,l),
(156,690,l),
(98,416,l),
(174,416,l),
(212,554,o),
(275,619,o),
(358,619,cs),
(440,619,o),
(482,560,o),
(482,455,cs),
(482,332,o),
(426,71,o),
(262,71,cs),
(172,71,o),
(126,149,o),
(143,273,c),
(68,273,l),
(9,0,l),
(90,0,l),
(126,170,l),
(116,170,l),
(113,58,o),
(175,-13,o),
(279,-13,cs)
);
}
);
width = 586;
}
);
metricLeft = "nunavuth-canadian";
metricRight = "theCarrier-canadian";
note = uni1630;
unicode = 5680;
},
{
color = 9;
glyphname = "lhaCarrier-canadian";
lastChange = "2023-01-13 15:55:40 +0000";
layers = (
{
layerId = "9563F490-07F6-43DA-A81C-32B2684714C2";
shapes = (
{
closed = 1;
nodes = (
(323,-13,o),
(388,39,o),
(427,136,c),
(422,138,l),
(393,0,l),
(474,0,l),
(532,273,l),
(456,273,l),
(418,135,o),
(354,71,o),
(271,71,cs),
(190,71,o),
(148,129,o),
(148,235,cs),
(148,357,o),
(205,619,o),
(368,619,cs),
(458,619,o),
(504,541,o),
(487,416,c),
(563,416,l),
(621,690,l),
(540,690,l),
(504,520,l),
(514,520,l),
(517,632,o),
(455,702,o),
(354,702,cs),
(144,702,o),
(59,408,o),
(59,232,cs),
(59,80,o),
(125,-13,o),
(238,-13,cs)
);
}
);
width = 585;
}
);
metricLeft = "=|theCarrier-canadian";
metricRight = "nunavuth-canadian";
note = uni1633;
unicode = 5683;
},
{
color = 9;
glyphname = "tlhuCarrier-canadian";
lastChange = "2023-01-13 15:55:37 +0000";
layers = (
{
layerId = "9563F490-07F6-43DA-A81C-32B2684714C2";
shapes = (
{
closed = 1;
nodes = (
(496,-13,o),
(568,250,o),
(568,413,cs),
(568,522,o),
(541,607,o),
(464,643,c),
(458,620,l),
(618,620,l),
(601,539,l),
(667,539,l),
(716,771,l),
(649,771,l),
(632,690,l),
(440,690,l),
(424,617,l),
(466,596,o),
(487,541,o),
(487,464,cs),
(487,341,o),
(441,71,o),
(275,71,cs),
(194,71,o),
(154,123,o),
(154,222,cs),
(154,330,o),
(204,565,o),
(334,617,c),
(350,690,l),
(143,690,l),
(127,614,l),
(294,614,l),
(285,636,l),
(127,576,o),
(62,353,o),
(62,215,cs),
(62,73,o),
(135,-13,o),
(271,-13,cs)
);
}
);
width = 633;
}
);
metricLeft = "lhuCarrier-canadian";
note = uni1634;
unicode = 5684;
},
{
color = 9;
glyphname = "tlhoCarrier-canadian";
lastChange = "2023-01-13 15:55:37 +0000";
layers = (
{
layerId = "9563F490-07F6-43DA-A81C-32B2684714C2";
shapes = (
{
closed = 1;
nodes = (
(29,-81,l),
(46,0,l),
(239,0,l),
(254,72,l),
(213,94,o),
(192,149,o),
(192,226,cs),
(192,349,o),
(238,619,o),
(404,619,cs),
(484,619,o),
(526,567,o),
(526,468,cs),
(526,359,o),
(475,125,o),
(345,72,c),
(329,0,l),
(536,0,l),
(552,75,l),
(385,75,l),
(394,54,l),
(552,114,o),
(617,337,o),
(617,474,cs),
(617,616,o),
(544,702,o),
(408,702,cs),
(183,702,o),
(110,440,o),
(110,276,cs),
(110,168,o),
(138,83,o),
(214,46,c),
(220,70,l),
(61,70,l),
(78,151,l),
(12,151,l),
(-38,-81,l)
);
}
);
width = 634;
}
);
metricLeft = "=|tlhuCarrier-canadian";
metricRight = "lhuCarrier-canadian";
note = uni1635;
unicode = 5685;
},
{
color = 9;
glyphname = "tlheCarrier-canadian";
lastChange = "2023-01-13 15:55:37 +0000";
layers = (
{
anchors = (
{
name = middle_center_can;
pos = (323,345);
}
);
layerId = "9563F490-07F6-43DA-A81C-32B2684714C2";
shapes = (
{
closed = 1;
nodes = (
(495,-13,o),
(582,282,o),
(582,458,cs),
(582,610,o),
(515,702,o),
(401,702,cs),
(298,702,o),
(226,636,o),
(185,519,c),
(202,550,l),
(235,701,l),
(297,701,l),
(311,766,l),
(118,766,l),
(104,701,l),
(168,701,l),
(106,416,l),
(183,416,l),
(221,554,o),
(284,619,o),
(368,619,cs),
(448,619,o),
(493,560,o),
(493,455,cs),
(493,332,o),
(435,71,o),
(271,71,cs),
(181,71,o),
(135,149,o),
(153,273,c),
(76,273,l),
(18,0,l),
(99,0,l),
(134,170,l),
(126,170,l),
(123,58,o),
(185,-13,o),
(289,-13,cs)
);
}
);
width = 596;
}
);
metricLeft = "dleCarrier-canadian";
metricRight = "theCarrier-canadian";
note = uni1636;
unicode = 5686;
},
{
color = 9;
glyphname = "tlhaCarrier-canadian";
lastChange = "2023-01-13 15:55:40 +0000";
layers = (
{
layerId = "9563F490-07F6-43DA-A81C-32B2684714C2";
shapes = (
{
closed = 1;
nodes = (
(323,-13,o),
(389,39,o),
(428,136,c),
(423,138,l),
(394,0,l),
(475,0,l),
(533,273,l),
(457,273,l),
(419,135,o),
(355,71,o),
(271,71,cs),
(190,71,o),
(148,129,o),
(148,235,cs),
(148,357,o),
(205,619,o),
(368,619,cs),
(459,619,o),
(505,541,o),
(488,416,c),
(563,416,l),
(624,701,l),
(687,701,l),
(701,766,l),
(509,766,l),
(495,701,l),
(558,701,l),
(518,512,l),
(526,511,l),
(527,636,o),
(456,702,o),
(354,702,cs),
(144,702,o),
(59,408,o),
(59,232,cs),
(59,80,o),
(125,-13,o),
(238,-13,cs)
);
}
);
width = 595;
}
);
metricLeft = "=|theCarrier-canadian";
metricRight = "=|dleCarrier-canadian";
note = uni1639;
unicode = 5689;
},
{
color = 9;
glyphname = "tluCarrier-canadian";
lastChange = "2023-01-13 15:55:37 +0000";
layers = (
{
layerId = "9563F490-07F6-43DA-A81C-32B2684714C2";
shapes = (
{
closed = 1;
nodes = (
(250,-13,o),
(298,24,o),
(336,108,c),
(309,108,l),
(317,30,o),
(360,-13,o),
(432,-13,cs),
(610,-13,o),
(666,298,o),
(666,435,cs),
(666,539,o),
(632,604,o),
(568,634,c),
(547,620,l),
(714,620,l),
(696,539,l),
(762,539,l),
(811,771,l),
(745,771,l),
(727,690,l),
(489,690,l),
(473,616,l),
(547,611,o),
(582,563,o),
(582,461,cs),
(582,363,o),
(538,70,o),
(431,70,cs),
(380,70,o),
(363,111,o),
(380,189,cs),
(403,302,l),
(318,302,l),
(295,189,ls),
(277,108,o),
(247,70,o),
(201,70,cs),
(159,70,o),
(140,97,o),
(140,166,cs),
(140,238,o),
(189,618,o),
(382,616,c),
(397,690,l),
(144,690,l),
(128,614,l),
(290,614,l),
(275,629,l),
(107,565,o),
(52,295,o),
(52,159,cs),
(52,46,o),
(98,-13,o),
(184,-13,cs)
);
}
);
width = 728;
}
);
metricRight = "tlhuCarrier-canadian";
note = uni163A;
unicode = 5690;
},
{
color = 1;
glyphname = "tloCarrier-canadian";
lastChange = "2023-01-13 15:55:40 +0000";
layers = (
{
layerId = "9563F490-07F6-43DA-A81C-32B2684714C2";
shapes = (
{
closed = 1;
nodes = (
(631,-81,l),
(680,151,l),
(613,151,l),
(596,70,l),
(441,70,l),
(454,56,l),
(631,118,o),
(688,392,o),
(688,530,cs),
(688,643,o),
(641,702,o),
(555,702,cs),
(489,702,o),
(441,666,o),
(403,582,c),
(430,581,l),
(422,660,o),
(380,702,o),
(308,702,cs),
(129,702,o),
(73,392,o),
(73,255,cs),
(73,156,o),
(106,92,o),
(164,61,c),
(186,75,l),
(14,75,l),
(-3,0,l),
(251,0,l),
(267,73,l),
(193,79,o),
(157,127,o),
(157,229,cs),
(157,327,o),
(202,620,o),
(308,620,cs),
(359,620,o),
(377,579,o),
(360,500,cs),
(336,387,l),
(421,387,l),
(445,500,ls),
(463,582,o),
(493,620,o),
(538,620,cs),
(580,620,o),
(599,593,o),
(599,524,cs),
(599,452,o),
(550,71,o),
(358,73,c),
(342,0,l),
(582,0,l),
(564,-81,l)
);
}
);
width = 729;
}
);
metricLeft = "tluCarrier-canadian";
metricRight = "tlhuCarrier-canadian";
note = uni163B;
unicode = 5691;
},
{
color = 9;
glyphname = "tleCarrier-canadian";
lastChange = "2023-01-13 15:55:37 +0000";
layers = (
{
anchors = (
{
name = middle_center_can;
pos = (265,345);
}
);
layerId = "9563F490-07F6-43DA-A81C-32B2684714C2";
shapes = (
{
closed = 1;
nodes = (
(437,-13,o),
(527,84,o),
(527,216,cs),
(527,292,o),
(489,347,o),
(426,355,c),
(422,334,l),
(527,342,o),
(597,440,o),
(597,538,cs),
(597,634,o),
(528,702,o),
(419,702,cs),
(318,702,o),
(233,642,o),
(192,536,c),
(199,534,l),
(234,701,l),
(298,701,l),
(311,766,l),
(118,766,l),
(104,701,l),
(168,701,l),
(107,416,l),
(182,416,l),
(213,553,o),
(283,621,o),
(385,621,cs),
(461,621,o),
(505,581,o),
(505,518,cs),
(505,444,o),
(457,383,o),
(378,383,cs),
(349,383,l),
(333,308,l),
(360,308,ls),
(411,308,o),
(441,276,o),
(441,222,cs),
(441,135,o),
(389,69,o),
(290,69,cs),
(179,69,o),
(128,142,o),
(151,273,c),
(76,273,l),
(18,0,l),
(99,0,l),
(133,159,l),
(118,158,l),
(115,54,o),
(190,-13,o),
(303,-13,cs)
);
}
);
width = 594;
}
);
metricLeft = "dleCarrier-canadian";
metricRight = "geCarrier-canadian";
note = uni163C;
unicode = 5692;
},
{
color = 9;
glyphname = "tlaCarrier-canadian";
lastChange = "2023-01-13 15:55:40 +0000";
layers = (
{
layerId = "9563F490-07F6-43DA-A81C-32B2684714C2";
shapes = (
{
closed = 1;
nodes = (
(311,-13,o),
(388,36,o),
(433,123,c),
(424,139,l),
(394,0,l),
(474,0,l),
(533,273,l),
(459,273,l),
(427,137,o),
(357,69,o),
(254,69,cs),
(179,69,o),
(134,109,o),
(134,172,cs),
(134,245,o),
(183,307,o),
(262,307,cs),
(291,307,l),
(306,382,l),
(279,382,ls),
(229,382,o),
(198,413,o),
(198,468,cs),
(198,554,o),
(250,621,o),
(351,621,cs),
(461,621,o),
(512,548,o),
(489,416,c),
(563,416,l),
(624,701,l),
(687,701,l),
(700,766,l),
(507,766,l),
(493,701,l),
(557,701,l),
(518,514,l),
(526,526,l),
(532,633,o),
(457,702,o),
(336,702,cs),
(203,702,o),
(112,606,o),
(112,473,cs),
(112,404,o),
(146,351,o),
(200,337,c),
(206,354,l),
(106,340,o),
(43,245,o),
(43,152,cs),
(43,56,o),
(111,-13,o),
(220,-13,cs)
);
}
);
width = 595;
}
);
metricLeft = "=|geCarrier-canadian";
metricRight = "=|dleCarrier-canadian";
note = uni163F;
unicode = 5695;
},
{
color = 9;
glyphname = "zuCarrier-canadian";
lastChange = "2023-01-13 15:55:37 +0000";
layers = (
{
layerId = "9563F490-07F6-43DA-A81C-32B2684714C2";
shapes = (
{
closed = 1;
nodes = (
(462,-13,o),
(545,130,o),
(545,310,cs),
(545,375,o),
(533,450,o),
(533,518,cs),
(533,578,o),
(555,611,o),
(611,611,cs),
(630,611,l),
(646,690,l),
(602,690,ls),
(496,690,o),
(449,632,o),
(449,513,cs),
(449,451,o),
(460,384,o),
(460,307,cs),
(460,180,o),
(407,71,o),
(273,71,cs),
(186,71,o),
(137,116,o),
(137,190,cs),
(137,317,o),
(286,490,o),
(286,597,cs),
(286,655,o),
(247,690,o),
(181,690,cs),
(141,690,l),
(125,611,l),
(153,611,ls),
(185,611,o),
(198,599,o),
(198,575,cs),
(198,498,o),
(45,332,o),
(45,177,cs),
(45,64,o),
(129,-13,o),
(264,-13,cs)
);
}
);
width = 596;
}
);
metricRight = "=|";
note = uni1640;
unicode = 5696;
},
{
color = 9;
glyphname = "zoCarrier-canadian";
lastChange = "2023-01-13 15:55:40 +0000";
layers = (
{
layerId = "9563F490-07F6-43DA-A81C-32B2684714C2";
shapes = (
{
closed = 1;
nodes = (
(39,0,ls),
(145,0,o),
(192,58,o),
(192,177,cs),
(192,239,o),
(181,305,o),
(181,383,cs),
(181,510,o),
(235,619,o),
(367,619,cs),
(454,619,o),
(503,574,o),
(503,499,cs),
(503,373,o),
(354,200,o),
(354,93,cs),
(354,35,o),
(393,0,o),
(460,0,cs),
(499,0,l),
(516,78,l),
(488,78,ls),
(456,78,o),
(442,91,o),
(442,115,cs),
(442,191,o),
(595,357,o),
(595,513,cs),
(595,626,o),
(511,702,o),
(377,702,cs),
(179,702,o),
(96,559,o),
(96,380,cs),
(96,315,o),
(107,240,o),
(107,172,cs),
(107,112,o),
(86,78,o),
(30,78,cs),
(11,78,l),
(-6,0,l)
);
}
);
width = 595;
}
);
metricLeft = "zuCarrier-canadian";
metricRight = "zuCarrier-canadian";
note = uni1641;
unicode = 5697;
},
